{
.appVersion = "1352";
DisplayStrings = (
"HHOOHEHHOHO\012HOHHH/Upsilondieresis HHOHH\012HHOOHHOOHH/space",
"nn/o-cy nuonnuxnnvnonnon\012oonunou/omegatonos nnnononn\012nnnnonononno\012/space",
"HHOHHHHOHOOHH\012hohhohhhohh\012hhohh/iotadieresistonos.sc hhoohohh\012hohoohohoohh/space",
"/dcaron l",
"/zhe-cy.sc/che-cy/caron.alt/tcaron lltll7/U-cy",
"(/Iotatonos )/space (/Iotadieresis )/space (/Upsilontonos )/space (/Upsilondieresis )/space (/Omicrontonos )/space (/Omegatonos )/space (/Alphatonos )/space (/Epsilontonos )/space (/Etatonos )\012\012\012[/Iotatonos ]/space [/Iotadieresis ]/space [/Upsilontonos ]/space [/Upsilondieresis ]/space [/Omicrontonos ]/space [/Omegatonos ]/space [/Alphatonos ]/space [/Epsilontonos ]/space [/Etatonos ]\012\012{/Iotatonos }/space {/Iotadieresis }/space {/Upsilontonos }/space {/Upsilondieresis }/space {/Omicrontonos }/space {/Omegatonos }/space {/Alphatonos }/space {/Epsilontonos }/space {/Etatonos",
"/De-cy.loclRUS/El-cy.loclRUS/Lje-cy.loclRUS",
"/el-cy.loclRUS.sc",
Hamburgefonvstiv,
"/hardsign-cy.loclRUS",
"/hardsign-cy.sc",
"/Ii-cy/Ii-cy/Ii-cy/Ii-cy/Ii-cy/Ii-cy",
"/n.sc/n.sc/n.sc/n.sc/n.sc/n.sc",
"9",

glyphs = (
{
glyphname = A;
lastChange = "2022-10-25 01:43:39 +0000";
layers = (
{
anchors = (
{
name = bottom;
position = "{245, 0}";
},
{
name = ogonek;
position = "{474, 10}";
},
{
name = top;
position = "{245, 655}";
},
{
name = topleft;
position = "{107, 655}";
}
);
layerId = "9DFF46AD-73DE-422E-A6A3-16745129C94E";
paths = (
{
closed = 1;
nodes = (
"166 0 LINE SMOOTH",
"174 0 OFFCURVE",
"179 4 OFFCURVE",
"180 12 CURVE SMOOTH",
"228 368 LINE SMOOTH",
"234 413 OFFCURVE",
"239 459 OFFCURVE",
"244 504 CURVE",
"246 504 LINE",
"251 459 OFFCURVE",
"255 413 OFFCURVE",
"261 368 CURVE SMOOTH",
"306 11 LINE SMOOTH",
"307 5 OFFCURVE",
"311 0 OFFCURVE",
"319 0 CURVE SMOOTH",
"477 0 LINE SMOOTH",
"485 0 OFFCURVE",
"488 7 OFFCURVE",
"486 16 CURVE SMOOTH",
"349 644 LINE SMOOTH",
"347 652 OFFCURVE",
"342 655 OFFCURVE",
"335 655 CURVE SMOOTH",
"155 655 LINE SMOOTH",
"148 655 OFFCURVE",
"143 652 OFFCURVE",
"141 644 CURVE SMOOTH",
"3 15 LINE SMOOTH",
"1 6 OFFCURVE",
"4 0 OFFCURVE",
"13 0 CURVE SMOOTH"
);
},
{
closed = 1;
nodes = (
"317 117 LINE",
"294 246 LINE",
"191 246 LINE",
"170 117 LINE"
);
}
);
width = 489;
},
{
anchors = (
{
name = bottom;
position = "{165, 0}";
},
{
name = ogonek;
position = "{320, 10}";
},
{
name = top;
position = "{161, 655}";
},
{
name = topleft;
position = "{97, 655}";
}
);
layerId = "7BE597F2-1213-4429-94A3-E96FC63EF83E";
paths = (
{
closed = 1;
nodes = (
"17 0 LINE SMOOTH",
"19 0 OFFCURVE",
"20 0 OFFCURVE",
"21 3 CURVE SMOOTH",
"131 498 LINE SMOOTH",
"141 544 OFFCURVE",
"151 591 OFFCURVE",
"161 637 CURVE",
"162 637 LINE",
"172 591 OFFCURVE",
"180 546 OFFCURVE",
"190 500 CURVE SMOOTH",
"300 3 LINE SMOOTH",
"301 0 OFFCURVE",
"302 0 OFFCURVE",
"304 0 CURVE SMOOTH",
"314 0 LINE SMOOTH",
"316 0 OFFCURVE",
"318 1 OFFCURVE",
"317 4 CURVE SMOOTH",
"172 652 LINE SMOOTH",
"171 655 OFFCURVE",
"170 655 OFFCURVE",
"168 655 CURVE SMOOTH",
"154 655 LINE SMOOTH",
"152 655 OFFCURVE",
"151 655 OFFCURVE",
"150 652 CURVE SMOOTH",
"5 4 LINE SMOOTH",
"4 0 OFFCURVE",
"6 0 OFFCURVE",
"8 0 CURVE SMOOTH"
);
},
{
closed = 1;
nodes = (
"263 191 LINE",
"258 207 LINE",
"63 207 LINE",
"58 191 LINE"
);
}
);
width = 322;
},
{
anchors = (
{
name = bottom;
position = "{173, 0}";
},
{
name = ogonek;
position = "{348, 10}";
},
{
name = top;
position = "{173, 655}";
},
{
name = topleft;
position = "{95, 655}";
}
);
layerId = "061E0761-0390-47CB-9723-8373CF82D209";
paths = (
{
closed = 1;
nodes = (
"59 0 LINE SMOOTH",
"62 0 OFFCURVE",
"65 2 OFFCURVE",
"66 6 CURVE SMOOTH",
"147 438 LINE SMOOTH",
"156 486 OFFCURVE",
"163 531 OFFCURVE",
"170 578 CURVE",
"172 578 LINE",
"179 531 OFFCURVE",
"187 486 OFFCURVE",
"197 439 CURVE SMOOTH",
"278 6 LINE SMOOTH",
"279 2 OFFCURVE",
"282 0 OFFCURVE",
"286 0 CURVE SMOOTH",
"341 0 LINE SMOOTH",
"346 0 OFFCURVE",
"348 3 OFFCURVE",
"347 10 CURVE SMOOTH",
"216 648 LINE SMOOTH",
"215 653 OFFCURVE",
"212 655 OFFCURVE",
"207 655 CURVE SMOOTH",
"137 655 LINE SMOOTH",
"133 655 OFFCURVE",
"129 653 OFFCURVE",
"128 648 CURVE SMOOTH",
"-2 10 LINE SMOOTH",
"-3 3 OFFCURVE",
"-1 0 OFFCURVE",
"4 0 CURVE SMOOTH"
);
},
{
closed = 1;
nodes = (
"260 161 LINE",
"246 224 LINE",
"96 224 LINE",
"84 161 LINE"
);
}
);
width = 345;
}
);
leftKerningGroup = A;
rightKerningGroup = A;
unicode = 0041;
},
{
glyphname = Aring;
lastChange = "2022-10-25 01:43:39 +0000";
layers = (
{
layerId = "9DFF46AD-73DE-422E-A6A3-16745129C94E";
paths = (
{
closed = 1;
nodes = (
"350 626 LINE",
"356 640 OFFCURVE",
"360 657 OFFCURVE",
"360 675 CURVE SMOOTH",
"360 744 OFFCURVE",
"310 783 OFFCURVE",
"245 783 CURVE SMOOTH",
"180 783 OFFCURVE",
"130 744 OFFCURVE",
"130 675 CURVE SMOOTH",
"130 657 OFFCURVE",
"134 640 OFFCURVE",
"140 626 CURVE",
"3 15 LINE SMOOTH",
"1 6 OFFCURVE",
"4 0 OFFCURVE",
"13 0 CURVE SMOOTH",
"166 0 LINE SMOOTH",
"174 0 OFFCURVE",
"179 4 OFFCURVE",
"180 12 CURVE SMOOTH",
"194 117 LINE",
"293 117 LINE",
"306 11 LINE",
"307 5 OFFCURVE",
"311 0 OFFCURVE",
"319 0 CURVE SMOOTH",
"477 0 LINE SMOOTH",
"485 0 OFFCURVE",
"488 7 OFFCURVE",
"486 16 CURVE SMOOTH"
);
},
{
closed = 1;
nodes = (
"222 702 OFFCURVE",
"230 713 OFFCURVE",
"245 713 CURVE SMOOTH",
"260 713 OFFCURVE",
"268 702 OFFCURVE",
"268 674 CURVE SMOOTH",
"268 646 OFFCURVE",
"260 635 OFFCURVE",
"245 635 CURVE SMOOTH",
"230 635 OFFCURVE",
"222 646 OFFCURVE",
"222 674 CURVE SMOOTH"
);
},
{
closed = 1;
nodes = (
"228 368 LINE SMOOTH",
"234 413 OFFCURVE",
"239 464 OFFCURVE",
"244 509 CURVE",
"246 509 LINE",
"251 464 OFFCURVE",
"255 413 OFFCURVE",
"261 368 CURVE SMOOTH",
"276 246 LINE",
"212 246 LINE"
);
}
);
width = 489;
},
{
layerId = "7BE597F2-1213-4429-94A3-E96FC63EF83E";
paths = (
{
closed = 1;
nodes = (
"175 641 LINE",
"201 647 OFFCURVE",
"217 672 OFFCURVE",
"217 710 CURVE SMOOTH",
"217 754 OFFCURVE",
"196 780 OFFCURVE",
"161 780 CURVE SMOOTH",
"126 780 OFFCURVE",
"105 754 OFFCURVE",
"105 710 CURVE SMOOTH",
"105 672 OFFCURVE",
"121 647 OFFCURVE",
"147 641 CURVE",
"5 4 LINE SMOOTH",
"4 0 OFFCURVE",
"6 0 OFFCURVE",
"8 0 CURVE SMOOTH",
"17 0 LINE SMOOTH",
"19 0 OFFCURVE",
"20 0 OFFCURVE",
"21 3 CURVE",
"63 191 LINE",
"258 191 LINE",
"300 3 LINE",
"301 0 OFFCURVE",
"302 0 OFFCURVE",
"304 0 CURVE SMOOTH",
"314 0 LINE SMOOTH",
"316 0 OFFCURVE",
"318 1 OFFCURVE",
"317 4 CURVE"
);
},
{
closed = 1;
nodes = (
"120 745 OFFCURVE",
"135 765 OFFCURVE",
"161 765 CURVE SMOOTH",
"187 765 OFFCURVE",
"202 745 OFFCURVE",
"202 710 CURVE SMOOTH",
"202 675 OFFCURVE",
"187 655 OFFCURVE",
"161 655 CURVE SMOOTH",
"135 655 OFFCURVE",
"120 675 OFFCURVE",
"120 710 CURVE SMOOTH"
);
},
{
closed = 1;
nodes = (
"131 498 LINE SMOOTH",
"141 544 OFFCURVE",
"151 591 OFFCURVE",
"161 637 CURVE",
"162 637 LINE",
"172 591 OFFCURVE",
"180 546 OFFCURVE",
"190 500 CURVE SMOOTH",
"255 207 LINE",
"66 207 LINE"
);
}
);
width = 322;
},
{
layerId = "061E0761-0390-47CB-9723-8373CF82D209";
paths = (
{
closed = 1;
nodes = (
"219 634 LINE",
"237 646 OFFCURVE",
"246 670 OFFCURVE",
"246 700 CURVE SMOOTH",
"246 752 OFFCURVE",
"219 782 OFFCURVE",
"173 782 CURVE SMOOTH",
"126 782 OFFCURVE",
"99 752 OFFCURVE",
"99 700 CURVE SMOOTH",
"99 670 OFFCURVE",
"109 647 OFFCURVE",
"125 634 CURVE",
"-2 10 LINE",
"-3 3 OFFCURVE",
"-1 0 OFFCURVE",
"4 0 CURVE SMOOTH",
"59 0 LINE SMOOTH",
"62 0 OFFCURVE",
"65 2 OFFCURVE",
"66 6 CURVE",
"95 161 LINE",
"249 161 LINE",
"278 6 LINE",
"279 2 OFFCURVE",
"282 0 OFFCURVE",
"286 0 CURVE SMOOTH",
"341 0 LINE SMOOTH",
"346 0 OFFCURVE",
"348 3 OFFCURVE",
"347 10 CURVE"
);
},
{
closed = 1;
nodes = (
"143 730 OFFCURVE",
"152 744 OFFCURVE",
"173 744 CURVE SMOOTH",
"193 744 OFFCURVE",
"202 730 OFFCURVE",
"202 699 CURVE SMOOTH",
"202 668 OFFCURVE",
"192 653 OFFCURVE",
"173 653 CURVE SMOOTH",
"153 653 OFFCURVE",
"143 668 OFFCURVE",
"143 699 CURVE SMOOTH"
);
},
{
closed = 1;
nodes = (
"147 438 LINE SMOOTH",
"156 486 OFFCURVE",
"163 535 OFFCURVE",
"170 581 CURVE",
"172 581 LINE",
"179 535 OFFCURVE",
"187 486 OFFCURVE",
"197 439 CURVE SMOOTH",
"238 224 LINE",
"106 224 LINE"
);
}
);
width = 345;
}
);
leftKerningGroup = A;
leftMetricsKey = A;
rightKerningGroup = A;
rightMetricsKey = A;
unicode = 00C5;
},
{
glyphname = AE;
lastChange = "2022-10-25 01:43:39 +0000";
layers = (
{
anchors = (
{
name = bottom;
position = "{372, 0}";
},
{
name = top;
position = "{367, 655}";
}
);
layerId = "9DFF46AD-73DE-422E-A6A3-16745129C94E";
paths = (
{
closed = 1;
nodes = (
"168 0 LINE SMOOTH",
"174 0 OFFCURVE",
"180 3 OFFCURVE",
"181 11 CURVE SMOOTH",
"198 117 LINE",
"266 117 LINE",
"266 14 LINE SMOOTH",
"266 6 OFFCURVE",
"271 0 OFFCURVE",
"278 0 CURVE SMOOTH",
"607 0 LINE SMOOTH",
"615 0 OFFCURVE",
"619 6 OFFCURVE",
"619 14 CURVE SMOOTH",
"619 132 LINE SMOOTH",
"619 140 OFFCURVE",
"615 146 OFFCURVE",
"607 146 CURVE SMOOTH",
"432 146 LINE",
"432 260 LINE",
"590 260 LINE SMOOTH",
"598 260 OFFCURVE",
"602 266 OFFCURVE",
"602 274 CURVE SMOOTH",
"602 385 LINE SMOOTH",
"602 393 OFFCURVE",
"598 399 OFFCURVE",
"590 399 CURVE SMOOTH",
"432 399 LINE",
"432 509 LINE",
"607 509 LINE SMOOTH",
"615 509 OFFCURVE",
"619 515 OFFCURVE",
"619 523 CURVE SMOOTH",
"619 641 LINE SMOOTH",
"619 649 OFFCURVE",
"615 655 OFFCURVE",
"607 655 CURVE SMOOTH",
"156 655 LINE SMOOTH",
"149 655 OFFCURVE",
"144 652 OFFCURVE",
"142 644 CURVE SMOOTH",
"3 15 LINE SMOOTH",
"1 6 OFFCURVE",
"4 0 OFFCURVE",
"13 0 CURVE SMOOTH"
);
},
{
closed = 1;
nodes = (
"244 409 LINE SMOOTH",
"251 451 OFFCURVE",
"258 493 OFFCURVE",
"265 535 CURVE",
"267 535 LINE",
"266 492 OFFCURVE",
"266 459 OFFCURVE",
"266 412 CURVE SMOOTH",
"266 246 LINE",
"218 246 LINE"
);
}
);
width = 644;
},
{
anchors = (
{
name = bottom;
position = "{329, 0}";
},
{
name = top;
position = "{329, 655}";
}
);
layerId = "7BE597F2-1213-4429-94A3-E96FC63EF83E";
paths = (
{
closed = 1;
nodes = (
"18 0 LINE SMOOTH",
"19 0 OFFCURVE",
"20 0 OFFCURVE",
"21 2 CURVE",
"84 191 LINE",
"232 191 LINE",
"232 3 LINE SMOOTH",
"232 1 OFFCURVE",
"233 0 OFFCURVE",
"235 0 CURVE SMOOTH",
"442 0 LINE SMOOTH",
"444 0 OFFCURVE",
"445 1 OFFCURVE",
"445 3 CURVE SMOOTH",
"445 13 LINE SMOOTH",
"445 15 OFFCURVE",
"444 16 OFFCURVE",
"442 16 CURVE SMOOTH",
"248 16 LINE",
"248 328 LINE",
"429 328 LINE SMOOTH",
"431 328 OFFCURVE",
"432 329 OFFCURVE",
"432 331 CURVE SMOOTH",
"432 341 LINE SMOOTH",
"432 343 OFFCURVE",
"431 344 OFFCURVE",
"429 344 CURVE SMOOTH",
"248 344 LINE",
"248 639 LINE",
"442 639 LINE SMOOTH",
"444 639 OFFCURVE",
"445 640 OFFCURVE",
"445 642 CURVE SMOOTH",
"445 652 LINE SMOOTH",
"445 654 OFFCURVE",
"444 655 OFFCURVE",
"442 655 CURVE SMOOTH",
"224 655 LINE SMOOTH",
"222 655 OFFCURVE",
"222 655 OFFCURVE",
"221 653 CURVE",
"5 3 LINE",
"4 1 OFFCURVE",
"5 0 OFFCURVE",
"7 0 CURVE SMOOTH"
);
},
{
closed = 1;
nodes = (
"202 547 LINE SMOOTH",
"211 575 OFFCURVE",
"222 609 OFFCURVE",
"231 639 CURVE",
"232 639 LINE",
"232 609 OFFCURVE",
"232 580 OFFCURVE",
"232 550 CURVE SMOOTH",
"232 207 LINE",
"89 207 LINE"
);
}
);
width = 492;
},
{
anchors = (
{
name = bottom;
position = "{296, 0}";
},
{
name = top;
position = "{325, 655}";
}
);
layerId = "061E0761-0390-47CB-9723-8373CF82D209";
paths = (
{
closed = 1;
nodes = (
"62 0 LINE SMOOTH",
"66 0 OFFCURVE",
"68 2 OFFCURVE",
"69 6 CURVE",
"111 161 LINE",
"228 161 LINE",
"228 9 LINE SMOOTH",
"228 3 OFFCURVE",
"230 0 OFFCURVE",
"234 0 CURVE SMOOTH",
"461 0 LINE SMOOTH",
"466 0 OFFCURVE",
"468 3 OFFCURVE",
"468 9 CURVE SMOOTH",
"468 54 LINE SMOOTH",
"468 59 OFFCURVE",
"466 63 OFFCURVE",
"461 63 CURVE SMOOTH",
"293 63 LINE",
"293 304 LINE",
"447 304 LINE SMOOTH",
"452 304 OFFCURVE",
"454 307 OFFCURVE",
"454 313 CURVE SMOOTH",
"454 355 LINE SMOOTH",
"454 360 OFFCURVE",
"452 364 OFFCURVE",
"447 364 CURVE SMOOTH",
"293 364 LINE",
"293 592 LINE",
"461 592 LINE SMOOTH",
"466 592 OFFCURVE",
"468 596 OFFCURVE",
"468 601 CURVE SMOOTH",
"468 646 LINE SMOOTH",
"468 652 OFFCURVE",
"466 655 OFFCURVE",
"461 655 CURVE SMOOTH",
"188 655 LINE SMOOTH",
"185 655 OFFCURVE",
"182 653 OFFCURVE",
"181 649 CURVE",
"-1 10 LINE SMOOTH",
"-3 3 OFFCURVE",
"0 0 OFFCURVE",
"5 0 CURVE SMOOTH"
);
},
{
closed = 1;
nodes = (
"204 509 LINE SMOOTH",
"213 539 OFFCURVE",
"220 569 OFFCURVE",
"228 601 CURVE",
"229 601 LINE",
"228 570 OFFCURVE",
"228 541 OFFCURVE",
"228 512 CURVE SMOOTH",
"228 224 LINE",
"127 224 LINE"
);
}
);
width = 509;
}
);
leftKerningGroup = AE;
leftMetricsKey = A;
rightKerningGroup = E;
rightMetricsKey = E;
unicode = 00C6;
},
{
glyphname = B;
lastChange = "2022-10-25 01:43:39 +0000";
layers = (
{
anchors = (
{
name = bottom;
position = "{216, 0}";
},
{
name = top;
position = "{219, 655}";
}
);
layerId = "9DFF46AD-73DE-422E-A6A3-16745129C94E";
paths = (
{
closed = 1;
nodes = (
"220 0 LINE SMOOTH",
"373 0 OFFCURVE",
"439 59 OFFCURVE",
"439 193 CURVE SMOOTH",
"439 270 OFFCURVE",
"403 323 OFFCURVE",
"331 344 CURVE",
"331 348 LINE",
"392 376 OFFCURVE",
"418 420 OFFCURVE",
"418 488 CURVE SMOOTH",
"418 598 OFFCURVE",
"352 655 OFFCURVE",
"220 655 CURVE SMOOTH",
"43 655 LINE SMOOTH",
"35 655 OFFCURVE",
"30 649 OFFCURVE",
"30 641 CURVE SMOOTH",
"30 14 LINE SMOOTH",
"30 6 OFFCURVE",
"35 0 OFFCURVE",
"44 0 CURVE SMOOTH"
);
},
{
closed = 1;
nodes = (
"196 272 LINE",
"219 272 LINE SMOOTH",
"255 272 OFFCURVE",
"276 247 OFFCURVE",
"276 204 CURVE SMOOTH",
"276 158 OFFCURVE",
"257 133 OFFCURVE",
"222 133 CURVE SMOOTH",
"196 133 LINE"
);
},
{
closed = 1;
nodes = (
"196 522 LINE",
"212 522 LINE SMOOTH",
"242 522 OFFCURVE",
"257 502 OFFCURVE",
"257 460 CURVE SMOOTH",
"257 415 OFFCURVE",
"241 391 OFFCURVE",
"213 391 CURVE SMOOTH",
"196 391 LINE"
);
}
);
width = 457;
},
{
anchors = (
{
name = bottom;
position = "{177, 0}";
},
{
name = top;
position = "{177, 655}";
}
);
layerId = "7BE597F2-1213-4429-94A3-E96FC63EF83E";
paths = (
{
closed = 1;
nodes = (
"164 0 LINE SMOOTH",
"265 0 OFFCURVE",
"312 58 OFFCURVE",
"312 182 CURVE SMOOTH",
"312 266 OFFCURVE",
"277 323 OFFCURVE",
"216 339 CURVE",
"216 340 LINE",
"264 358 OFFCURVE",
"294 418 OFFCURVE",
"294 496 CURVE SMOOTH",
"294 604 OFFCURVE",
"251 655 OFFCURVE",
"159 655 CURVE SMOOTH",
"69 655 LINE SMOOTH",
"67 655 OFFCURVE",
"66 654 OFFCURVE",
"66 652 CURVE SMOOTH",
"66 3 LINE SMOOTH",
"66 1 OFFCURVE",
"67 0 OFFCURVE",
"69 0 CURVE SMOOTH"
);
},
{
closed = 1;
nodes = (
"82 330 LINE",
"173 330 LINE SMOOTH",
"251 330 OFFCURVE",
"296 276 OFFCURVE",
"296 182 CURVE SMOOTH",
"296 65 OFFCURVE",
"256 16 OFFCURVE",
"161 16 CURVE SMOOTH",
"82 16 LINE"
);
},
{
closed = 1;
nodes = (
"82 639 LINE",
"159 639 LINE SMOOTH",
"240 639 OFFCURVE",
"278 594 OFFCURVE",
"278 495 CURVE SMOOTH",
"278 405 OFFCURVE",
"236 346 OFFCURVE",
"173 346 CURVE SMOOTH",
"82 346 LINE"
);
}
);
width = 354;
},
{
anchors = (
{
name = bottom;
position = "{180, 0}";
},
{
name = top;
position = "{180, 655}";
}
);
layerId = "061E0761-0390-47CB-9723-8373CF82D209";
paths = (
{
closed = 1;
nodes = (
"172 0 LINE SMOOTH",
"279 0 OFFCURVE",
"334 64 OFFCURVE",
"334 184 CURVE SMOOTH",
"334 271 OFFCURVE",
"303 326 OFFCURVE",
"246 345 CURVE",
"246 347 LINE",
"293 375 OFFCURVE",
"316 424 OFFCURVE",
"316 495 CURVE SMOOTH",
"316 603 OFFCURVE",
"266 655 OFFCURVE",
"157 655 CURVE SMOOTH",
"61 655 LINE SMOOTH",
"55 655 OFFCURVE",
"52 652 OFFCURVE",
"52 646 CURVE SMOOTH",
"52 9 LINE SMOOTH",
"52 3 OFFCURVE",
"55 0 OFFCURVE",
"61 0 CURVE SMOOTH"
);
},
{
closed = 1;
nodes = (
"117 309 LINE",
"173 309 LINE SMOOTH",
"238 309 OFFCURVE",
"269 271 OFFCURVE",
"269 189 CURVE SMOOTH",
"269 102 OFFCURVE",
"237 63 OFFCURVE",
"170 63 CURVE SMOOTH",
"117 63 LINE"
);
},
{
closed = 1;
nodes = (
"117 592 LINE",
"163 592 LINE SMOOTH",
"224 592 OFFCURVE",
"251 562 OFFCURVE",
"251 486 CURVE SMOOTH",
"251 410 OFFCURVE",
"222 370 OFFCURVE",
"166 370 CURVE SMOOTH",
"117 370 LINE"
);
}
);
width = 363;
}
);
leftKerningGroup = H;
leftMetricsKey = H;
rightKerningGroup = B;
unicode = 0042;
},
{
glyphname = C;
lastChange = "2022-10-25 01:43:39 +0000";
layers = (
{
anchors = (
{
name = bottom;
position = "{263, 0}";
},
{
name = top;
position = "{242, 655}";
}
);
layerId = "9DFF46AD-73DE-422E-A6A3-16745129C94E";
paths = (
{
closed = 1;
nodes = (
"403 -6 OFFCURVE",
"475 92 OFFCURVE",
"461 238 CURVE SMOOTH",
"460 247 OFFCURVE",
"456 252 OFFCURVE",
"450 252 CURVE SMOOTH",
"306 252 LINE SMOOTH",
"298 252 OFFCURVE",
"295 247 OFFCURVE",
"295 237 CURVE SMOOTH",
"296 181 OFFCURVE",
"290 142 OFFCURVE",
"244 142 CURVE SMOOTH",
"202 142 OFFCURVE",
"188 165 OFFCURVE",
"188 247 CURVE SMOOTH",
"188 412 LINE SMOOTH",
"188 488 OFFCURVE",
"200 513 OFFCURVE",
"243 513 CURVE SMOOTH",
"286 513 OFFCURVE",
"299 479 OFFCURVE",
"295 419 CURVE SMOOTH",
"294 410 OFFCURVE",
"297 404 OFFCURVE",
"306 404 CURVE SMOOTH",
"449 404 LINE SMOOTH",
"455 404 OFFCURVE",
"459 410 OFFCURVE",
"460 418 CURVE SMOOTH",
"475 564 OFFCURVE",
"393 661 OFFCURVE",
"244 661 CURVE SMOOTH",
"99 661 OFFCURVE",
"22 577 OFFCURVE",
"22 415 CURVE SMOOTH",
"22 240 LINE SMOOTH",
"22 68 OFFCURVE",
"99 -6 OFFCURVE",
"244 -6 CURVE SMOOTH"
);
}
);
width = 485;
},
{
anchors = (
{
name = bottom;
position = "{196, 0}";
},
{
name = top;
position = "{195, 655}";
}
);
layerId = "7BE597F2-1213-4429-94A3-E96FC63EF83E";
paths = (
{
closed = 1;
nodes = (
"294 -6 OFFCURVE",
"340 63 OFFCURVE",
"335 196 CURVE SMOOTH",
"335 198 OFFCURVE",
"334 199 OFFCURVE",
"332 199 CURVE SMOOTH",
"322 199 LINE SMOOTH",
"320 199 OFFCURVE",
"319 198 OFFCURVE",
"319 196 CURVE SMOOTH",
"324 71 OFFCURVE",
"285 10 OFFCURVE",
"196 10 CURVE SMOOTH",
"115 10 OFFCURVE",
"71 68 OFFCURVE",
"71 180 CURVE SMOOTH",
"71 475 LINE SMOOTH",
"71 588 OFFCURVE",
"114 645 OFFCURVE",
"196 645 CURVE SMOOTH",
"286 645 OFFCURVE",
"323 584 OFFCURVE",
"318 459 CURVE SMOOTH",
"318 457 OFFCURVE",
"319 456 OFFCURVE",
"321 456 CURVE SMOOTH",
"331 456 LINE SMOOTH",
"333 456 OFFCURVE",
"334 457 OFFCURVE",
"334 459 CURVE SMOOTH",
"339 592 OFFCURVE",
"296 661 OFFCURVE",
"196 661 CURVE SMOOTH",
"104 661 OFFCURVE",
"55 598 OFFCURVE",
"55 476 CURVE SMOOTH",
"55 179 LINE SMOOTH",
"55 58 OFFCURVE",
"105 -6 OFFCURVE",
"196 -6 CURVE SMOOTH"
);
}
);
width = 389;
},
{
anchors = (
{
name = bottom;
position = "{207, 0}";
},
{
name = top;
position = "{198, 655}";
}
);
layerId = "061E0761-0390-47CB-9723-8373CF82D209";
paths = (
{
closed = 1;
nodes = (
"306 -6 OFFCURVE",
"357 72 OFFCURVE",
"349 209 CURVE SMOOTH",
"348 217 OFFCURVE",
"344 219 OFFCURVE",
"339 219 CURVE SMOOTH",
"292 219 LINE SMOOTH",
"287 219 OFFCURVE",
"284 215 OFFCURVE",
"285 209 CURVE SMOOTH",
"292 116 OFFCURVE",
"268 57 OFFCURVE",
"199 57 CURVE SMOOTH",
"140 57 OFFCURVE",
"108 100 OFFCURVE",
"108 196 CURVE SMOOTH",
"108 459 LINE SMOOTH",
"108 556 OFFCURVE",
"140 598 OFFCURVE",
"199 598 CURVE SMOOTH",
"264 598 OFFCURVE",
"291 546 OFFCURVE",
"283 446 CURVE SMOOTH",
"282 440 OFFCURVE",
"285 436 OFFCURVE",
"290 436 CURVE SMOOTH",
"341 436 LINE SMOOTH",
"345 436 OFFCURVE",
"347 439 OFFCURVE",
"348 444 CURVE SMOOTH",
"364 577 OFFCURVE",
"309 661 OFFCURVE",
"199 661 CURVE SMOOTH",
"97 661 OFFCURVE",
"43 596 OFFCURVE",
"43 464 CURVE SMOOTH",
"43 191 LINE SMOOTH",
"43 59 OFFCURVE",
"98 -6 OFFCURVE",
"199 -6 CURVE SMOOTH"
);
}
);
width = 392;
}
);
leftKerningGroup = O;
leftMetricsKey = O;
rightKerningGroup = C;
unicode = 0043;
},
{
glyphname = D;
lastChange = "2022-10-25 01:43:39 +0000";
layers = (
{
anchors = (
{
name = bottom;
position = "{212, 0}";
},
{
name = center;
position = "{233, 341}";
},
{
name = top;
position = "{212, 655}";
}
);
layerId = "9DFF46AD-73DE-422E-A6A3-16745129C94E";
paths = (
{
closed = 1;
nodes = (
"225 0 LINE SMOOTH",
"379 0 OFFCURVE",
"465 97 OFFCURVE",
"465 295 CURVE SMOOTH",
"465 368 LINE SMOOTH",
"465 560 OFFCURVE",
"379 655 OFFCURVE",
"221 655 CURVE SMOOTH",
"44 655 LINE SMOOTH",
"35 655 OFFCURVE",
"30 650 OFFCURVE",
"30 641 CURVE SMOOTH",
"30 14 LINE SMOOTH",
"30 5 OFFCURVE",
"35 0 OFFCURVE",
"44 0 CURVE SMOOTH"
);
},
{
closed = 1;
nodes = (
"196 509 LINE",
"219 509 LINE SMOOTH",
"275 509 OFFCURVE",
"299 460 OFFCURVE",
"299 367 CURVE SMOOTH",
"299 296 LINE SMOOTH",
"299 197 OFFCURVE",
"275 146 OFFCURVE",
"223 146 CURVE SMOOTH",
"196 146 LINE"
);
}
);
width = 485;
},
{
anchors = (
{
name = bottom;
position = "{165, 0}";
},
{
name = center;
position = "{194, 328}";
},
{
name = top;
position = "{165, 655}";
}
);
layerId = "7BE597F2-1213-4429-94A3-E96FC63EF83E";
paths = (
{
closed = 1;
nodes = (
"157 0 LINE SMOOTH",
"289 0 OFFCURVE",
"340 77 OFFCURVE",
"340 270 CURVE SMOOTH",
"340 383 LINE SMOOTH",
"340 579 OFFCURVE",
"281 655 OFFCURVE",
"153 655 CURVE SMOOTH",
"68 655 LINE SMOOTH",
"67 655 OFFCURVE",
"66 654 OFFCURVE",
"66 652 CURVE SMOOTH",
"66 3 LINE SMOOTH",
"66 1 OFFCURVE",
"67 0 OFFCURVE",
"69 0 CURVE SMOOTH"
);
},
{
closed = 1;
nodes = (
"82 639 LINE",
"154 639 LINE SMOOTH",
"271 639 OFFCURVE",
"324 565 OFFCURVE",
"324 382 CURVE SMOOTH",
"324 271 LINE SMOOTH",
"324 89 OFFCURVE",
"279 16 OFFCURVE",
"157 16 CURVE SMOOTH",
"82 16 LINE"
);
}
);
width = 391;
},
{
anchors = (
{
name = bottom;
position = "{168, 0}";
},
{
name = center;
position = "{200, 327}";
},
{
name = top;
position = "{168, 656}";
}
);
layerId = "061E0761-0390-47CB-9723-8373CF82D209";
paths = (
{
closed = 1;
nodes = (
"163 0 LINE SMOOTH",
"298 0 OFFCURVE",
"360 94 OFFCURVE",
"360 293 CURVE SMOOTH",
"360 392 LINE SMOOTH",
"360 571 OFFCURVE",
"295 655 OFFCURVE",
"158 655 CURVE SMOOTH",
"60 655 LINE SMOOTH",
"55 655 OFFCURVE",
"52 652 OFFCURVE",
"52 646 CURVE SMOOTH",
"52 9 LINE SMOOTH",
"52 3 OFFCURVE",
"55 0 OFFCURVE",
"61 0 CURVE SMOOTH"
);
},
{
closed = 1;
nodes = (
"117 592 LINE",
"155 592 LINE SMOOTH",
"253 592 OFFCURVE",
"295 531 OFFCURVE",
"295 394 CURVE SMOOTH",
"295 288 LINE SMOOTH",
"295 131 OFFCURVE",
"256 63 OFFCURVE",
"158 63 CURVE SMOOTH",
"117 63 LINE"
);
}
);
width = 398;
}
);
leftKerningGroup = H;
leftMetricsKey = H;
rightKerningGroup = D;
unicode = 0044;
},
{
glyphname = Eth;
lastChange = "2022-10-25 01:43:39 +0000";
layers = (
{
components = (
{
name = D;
transform = "{1, 0, 0, 1, 10, 0}";
}
);
layerId = "9DFF46AD-73DE-422E-A6A3-16745129C94E";
paths = (
{
closed = 1;
nodes = (
"242 269 LINE SMOOTH",
"249 269 OFFCURVE",
"254 274 OFFCURVE",
"254 282 CURVE SMOOTH",
"254 375 LINE SMOOTH",
"254 383 OFFCURVE",
"249 389 OFFCURVE",
"242 389 CURVE SMOOTH",
"40 389 LINE",
"15 389 LINE SMOOTH",
"8 389 OFFCURVE",
"3 383 OFFCURVE",
"3 375 CURVE SMOOTH",
"3 282 LINE SMOOTH",
"3 274 OFFCURVE",
"7 269 OFFCURVE",
"15 269 CURVE SMOOTH"
);
}
);
width = 495;
},
{
components = (
{
name = D;
}
);
layerId = "7BE597F2-1213-4429-94A3-E96FC63EF83E";
paths = (
{
closed = 1;
nodes = (
"189 328 LINE SMOOTH",
"191 328 OFFCURVE",
"192 329 OFFCURVE",
"192 331 CURVE SMOOTH",
"192 341 LINE SMOOTH",
"192 343 OFFCURVE",
"191 344 OFFCURVE",
"189 344 CURVE SMOOTH",
"66 344 LINE",
"8 344 LINE SMOOTH",
"6 344 OFFCURVE",
"5 343 OFFCURVE",
"5 341 CURVE SMOOTH",
"5 331 LINE SMOOTH",
"5 329 OFFCURVE",
"6 328 OFFCURVE",
"8 328 CURVE SMOOTH"
);
}
);
width = 391;
},
{
components = (
{
alignment = -1;
name = D;
}
);
layerId = "061E0761-0390-47CB-9723-8373CF82D209";
paths = (
{
closed = 1;
nodes = (
"191 305 LINE SMOOTH",
"195 305 OFFCURVE",
"198 308 OFFCURVE",
"198 314 CURVE SMOOTH",
"198 354 LINE SMOOTH",
"198 360 OFFCURVE",
"195 363 OFFCURVE",
"191 363 CURVE SMOOTH",
"52 363 LINE",
"14 363 LINE SMOOTH",
"9 363 OFFCURVE",
"7 360 OFFCURVE",
"7 354 CURVE SMOOTH",
"7 314 LINE SMOOTH",
"7 308 OFFCURVE",
"9 305 OFFCURVE",
"14 305 CURVE SMOOTH"
);
}
);
width = 398;
}
);
leftKerningGroup = Eth;
rightKerningGroup = D;
rightMetricsKey = D;
unicode = 00D0;
},
{
glyphname = E;
lastChange = "2022-10-25 01:43:39 +0000";
layers = (
{
anchors = (
{
name = bottom;
position = "{205, 0}";
},
{
name = ogonek;
position = "{360, 10}";
},
{
name = top;
position = "{206, 655}";
},
{
name = topleft;
position = "{27, 655}";
}
);
layerId = "9DFF46AD-73DE-422E-A6A3-16745129C94E";
paths = (
{
closed = 1;
nodes = (
"371 0 LINE SMOOTH",
"379 0 OFFCURVE",
"383 6 OFFCURVE",
"383 14 CURVE SMOOTH",
"383 132 LINE SMOOTH",
"383 140 OFFCURVE",
"379 146 OFFCURVE",
"371 146 CURVE SMOOTH",
"196 146 LINE",
"196 260 LINE",
"354 260 LINE SMOOTH",
"362 260 OFFCURVE",
"366 266 OFFCURVE",
"366 274 CURVE SMOOTH",
"366 385 LINE SMOOTH",
"366 393 OFFCURVE",
"362 399 OFFCURVE",
"354 399 CURVE SMOOTH",
"196 399 LINE",
"196 509 LINE",
"371 509 LINE SMOOTH",
"379 509 OFFCURVE",
"383 515 OFFCURVE",
"383 523 CURVE SMOOTH",
"383 641 LINE SMOOTH",
"383 649 OFFCURVE",
"379 655 OFFCURVE",
"371 655 CURVE SMOOTH",
"42 655 LINE SMOOTH",
"35 655 OFFCURVE",
"30 649 OFFCURVE",
"30 641 CURVE SMOOTH",
"30 14 LINE SMOOTH",
"30 6 OFFCURVE",
"35 0 OFFCURVE",
"42 0 CURVE SMOOTH"
);
}
);
width = 408;
},
{
anchors = (
{
name = bottom;
position = "{168, 0}";
},
{
name = ogonek;
position = "{265, 10}";
},
{
name = top;
position = "{173, 655}";
},
{
name = topleft;
position = "{20, 655}";
}
);
guideLines = (
{
angle = 90;
position = "{453, 599}";
}
);
layerId = "7BE597F2-1213-4429-94A3-E96FC63EF83E";
paths = (
{
closed = 1;
nodes = (
"276 0 LINE SMOOTH",
"278 0 OFFCURVE",
"279 1 OFFCURVE",
"279 3 CURVE SMOOTH",
"279 13 LINE SMOOTH",
"279 15 OFFCURVE",
"278 16 OFFCURVE",
"276 16 CURVE SMOOTH",
"82 16 LINE",
"82 328 LINE",
"263 328 LINE SMOOTH",
"265 328 OFFCURVE",
"266 329 OFFCURVE",
"266 331 CURVE SMOOTH",
"266 341 LINE SMOOTH",
"266 343 OFFCURVE",
"265 344 OFFCURVE",
"263 344 CURVE SMOOTH",
"82 344 LINE",
"82 639 LINE",
"276 639 LINE SMOOTH",
"278 639 OFFCURVE",
"279 640 OFFCURVE",
"279 642 CURVE SMOOTH",
"279 652 LINE SMOOTH",
"279 654 OFFCURVE",
"278 655 OFFCURVE",
"276 655 CURVE SMOOTH",
"69 655 LINE SMOOTH",
"67 655 OFFCURVE",
"66 654 OFFCURVE",
"66 652 CURVE SMOOTH",
"66 3 LINE SMOOTH",
"66 1 OFFCURVE",
"67 0 OFFCURVE",
"69 0 CURVE SMOOTH"
);
}
);
width = 326;
},
{
anchors = (
{
name = bottom;
position = "{175, 0}";
},
{
name = ogonek;
position = "{278, 10}";
},
{
name = top;
position = "{172, 655}";
},
{
name = topleft;
position = "{27, 655}";
}
);
layerId = "061E0761-0390-47CB-9723-8373CF82D209";
paths = (
{
closed = 1;
nodes = (
"285 0 LINE SMOOTH",
"290 0 OFFCURVE",
"292 3 OFFCURVE",
"292 9 CURVE SMOOTH",
"292 54 LINE SMOOTH",
"292 59 OFFCURVE",
"290 63 OFFCURVE",
"285 63 CURVE SMOOTH",
"117 63 LINE",
"117 304 LINE",
"271 304 LINE SMOOTH",
"276 304 OFFCURVE",
"278 307 OFFCURVE",
"278 313 CURVE SMOOTH",
"278 355 LINE SMOOTH",
"278 360 OFFCURVE",
"276 364 OFFCURVE",
"271 364 CURVE SMOOTH",
"117 364 LINE",
"117 592 LINE",
"285 592 LINE SMOOTH",
"290 592 OFFCURVE",
"292 596 OFFCURVE",
"292 601 CURVE SMOOTH",
"292 646 LINE SMOOTH",
"292 652 OFFCURVE",
"290 655 OFFCURVE",
"285 655 CURVE SMOOTH",
"59 655 LINE SMOOTH",
"55 655 OFFCURVE",
"52 652 OFFCURVE",
"52 646 CURVE SMOOTH",
"52 9 LINE SMOOTH",
"52 3 OFFCURVE",
"55 0 OFFCURVE",
"60 0 CURVE SMOOTH"
);
}
);
width = 333;
}
);
leftKerningGroup = H;
leftMetricsKey = H;
rightKerningGroup = E;
unicode = 0045;
},
{
glyphname = F;
lastChange = "2022-10-25 01:43:39 +0000";
layers = (
{
anchors = (
{
name = bottom;
position = "{213, 0}";
},
{
name = top;
position = "{213, 655}";
}
);
layerId = "9DFF46AD-73DE-422E-A6A3-16745129C94E";
paths = (
{
closed = 1;
nodes = (
"185 0 LINE SMOOTH",
"191 0 OFFCURVE",
"196 6 OFFCURVE",
"196 14 CURVE SMOOTH",
"196 247 LINE",
"344 247 LINE SMOOTH",
"352 247 OFFCURVE",
"357 252 OFFCURVE",
"357 260 CURVE SMOOTH",
"357 376 LINE SMOOTH",
"357 384 OFFCURVE",
"352 390 OFFCURVE",
"344 390 CURVE SMOOTH",
"196 390 LINE",
"196 509 LINE",
"371 509 LINE SMOOTH",
"378 509 OFFCURVE",
"383 515 OFFCURVE",
"383 523 CURVE SMOOTH",
"383 641 LINE SMOOTH",
"383 649 OFFCURVE",
"378 655 OFFCURVE",
"371 655 CURVE SMOOTH",
"42 655 LINE SMOOTH",
"35 655 OFFCURVE",
"30 649 OFFCURVE",
"30 641 CURVE SMOOTH",
"30 14 LINE SMOOTH",
"30 6 OFFCURVE",
"35 0 OFFCURVE",
"42 0 CURVE SMOOTH"
);
}
);
width = 403;
},
{
anchors = (
{
name = bottom;
position = "{158, 0}";
},
{
name = top;
position = "{158, 655}";
}
);
layerId = "7BE597F2-1213-4429-94A3-E96FC63EF83E";
paths = (
{
closed = 1;
nodes = (
"79 0 LINE SMOOTH",
"81 0 OFFCURVE",
"82 1 OFFCURVE",
"82 3 CURVE SMOOTH",
"82 320 LINE",
"256 320 LINE SMOOTH",
"258 320 OFFCURVE",
"259 321 OFFCURVE",
"259 323 CURVE SMOOTH",
"259 333 LINE SMOOTH",
"259 335 OFFCURVE",
"258 336 OFFCURVE",
"256 336 CURVE SMOOTH",
"82 336 LINE",
"82 639 LINE",
"276 639 LINE SMOOTH",
"278 639 OFFCURVE",
"279 640 OFFCURVE",
"279 642 CURVE SMOOTH",
"279 652 LINE SMOOTH",
"279 654 OFFCURVE",
"278 655 OFFCURVE",
"276 655 CURVE SMOOTH",
"69 655 LINE SMOOTH",
"67 655 OFFCURVE",
"66 654 OFFCURVE",
"66 652 CURVE SMOOTH",
"66 3 LINE SMOOTH",
"66 1 OFFCURVE",
"67 0 OFFCURVE",
"69 0 CURVE SMOOTH"
);
}
);
width = 296;
},
{
anchors = (
{
name = bottom;
position = "{164, 0}";
},
{
name = top;
position = "{172, 655}";
}
);
layerId = "061E0761-0390-47CB-9723-8373CF82D209";
paths = (
{
closed = 1;
nodes = (
"111 0 LINE SMOOTH",
"114 0 OFFCURVE",
"117 3 OFFCURVE",
"117 9 CURVE SMOOTH",
"117 294 LINE",
"263 294 LINE SMOOTH",
"268 294 OFFCURVE",
"271 298 OFFCURVE",
"271 303 CURVE SMOOTH",
"271 345 LINE SMOOTH",
"271 351 OFFCURVE",
"268 354 OFFCURVE",
"263 354 CURVE SMOOTH",
"117 354 LINE",
"117 592 LINE",
"285 592 LINE SMOOTH",
"290 592 OFFCURVE",
"292 596 OFFCURVE",
"292 601 CURVE SMOOTH",
"292 646 LINE SMOOTH",
"292 652 OFFCURVE",
"290 655 OFFCURVE",
"285 655 CURVE SMOOTH",
"59 655 LINE SMOOTH",
"55 655 OFFCURVE",
"52 652 OFFCURVE",
"52 646 CURVE SMOOTH",
"52 9 LINE SMOOTH",
"52 3 OFFCURVE",
"55 0 OFFCURVE",
"58 0 CURVE SMOOTH"
);
}
);
width = 322;
}
);
leftKerningGroup = H;
leftMetricsKey = H;
rightKerningGroup = F;
unicode = 0046;
},
{
glyphname = G;
lastChange = "2022-10-25 01:43:39 +0000";
layers = (
{
anchors = (
{
name = bottom;
position = "{236, 0}";
},
{
name = top;
position = "{244, 655}";
},
{
name = topleft;
position = "{56, 655}";
}
);
layerId = "9DFF46AD-73DE-422E-A6A3-16745129C94E";
paths = (
{
closed = 1;
nodes = (
"263 -6 OFFCURVE",
"297 26 OFFCURVE",
"321 74 CURVE",
"323 74 LINE",
"323 49 OFFCURVE",
"326 25 OFFCURVE",
"329 13 CURVE SMOOTH",
"331 4 OFFCURVE",
"334 0 OFFCURVE",
"341 0 CURVE SMOOTH",
"452 0 LINE SMOOTH",
"461 0 OFFCURVE",
"466 6 OFFCURVE",
"464 15 CURVE SMOOTH",
"458 49 OFFCURVE",
"455 100 OFFCURVE",
"455 172 CURVE SMOOTH",
"455 339 LINE SMOOTH",
"455 347 OFFCURVE",
"450 353 OFFCURVE",
"444 353 CURVE SMOOTH",
"246 353 LINE SMOOTH",
"239 353 OFFCURVE",
"234 347 OFFCURVE",
"234 339 CURVE SMOOTH",
"234 257 LINE SMOOTH",
"234 248 OFFCURVE",
"239 243 OFFCURVE",
"246 243 CURVE SMOOTH",
"293 243 LINE",
"293 215 LINE SMOOTH",
"293 168 OFFCURVE",
"274 142 OFFCURVE",
"241 142 CURVE SMOOTH",
"200 142 OFFCURVE",
"188 166 OFFCURVE",
"188 237 CURVE SMOOTH",
"188 417 LINE SMOOTH",
"188 485 OFFCURVE",
"203 513 OFFCURVE",
"244 513 CURVE SMOOTH",
"281 513 OFFCURVE",
"293 489 OFFCURVE",
"291 442 CURVE SMOOTH",
"291 432 OFFCURVE",
"294 427 OFFCURVE",
"302 427 CURVE SMOOTH",
"444 426 LINE SMOOTH",
"452 426 OFFCURVE",
"455 431 OFFCURVE",
"456 440 CURVE SMOOTH",
"464 575 OFFCURVE",
"386 661 OFFCURVE",
"244 661 CURVE SMOOTH",
"98 661 OFFCURVE",
"22 576 OFFCURVE",
"22 415 CURVE SMOOTH",
"22 223 LINE SMOOTH",
"22 70 OFFCURVE",
"88 -6 OFFCURVE",
"197 -6 CURVE SMOOTH"
);
}
);
width = 487;
},
{
anchors = (
{
name = bottom;
position = "{200, 0}";
},
{
name = top;
position = "{195, 655}";
},
{
name = topleft;
position = "{48, 655}";
}
);
layerId = "7BE597F2-1213-4429-94A3-E96FC63EF83E";
paths = (
{
closed = 1;
nodes = (
"275 -6 OFFCURVE",
"305 50 OFFCURVE",
"319 123 CURVE",
"320 123 LINE",
"320 79 OFFCURVE",
"321 40 OFFCURVE",
"325 3 CURVE SMOOTH",
"325 1 OFFCURVE",
"326 0 OFFCURVE",
"328 0 CURVE SMOOTH",
"337 0 LINE SMOOTH",
"339 0 OFFCURVE",
"339 1 OFFCURVE",
"339 3 CURVE SMOOTH",
"335 45 OFFCURVE",
"334 88 OFFCURVE",
"334 140 CURVE SMOOTH",
"334 314 LINE SMOOTH",
"334 316 OFFCURVE",
"333 317 OFFCURVE",
"331 317 CURVE SMOOTH",
"209 317 LINE SMOOTH",
"207 317 OFFCURVE",
"206 316 OFFCURVE",
"206 314 CURVE SMOOTH",
"206 304 LINE SMOOTH",
"206 302 OFFCURVE",
"207 301 OFFCURVE",
"209 301 CURVE SMOOTH",
"318 301 LINE",
"318 249 LINE SMOOTH",
"318 83 OFFCURVE",
"278 10 OFFCURVE",
"195 10 CURVE SMOOTH",
"114 10 OFFCURVE",
"71 65 OFFCURVE",
"71 180 CURVE SMOOTH",
"71 475 LINE SMOOTH",
"71 591 OFFCURVE",
"115 645 OFFCURVE",
"196 645 CURVE SMOOTH",
"274 645 OFFCURVE",
"325 584 OFFCURVE",
"318 469 CURVE SMOOTH",
"318 467 OFFCURVE",
"319 466 OFFCURVE",
"321 466 CURVE SMOOTH",
"331 466 LINE SMOOTH",
"333 466 OFFCURVE",
"334 467 OFFCURVE",
"334 469 CURVE SMOOTH",
"342 593 OFFCURVE",
"286 661 OFFCURVE",
"196 661 CURVE SMOOTH",
"105 661 OFFCURVE",
"55 601 OFFCURVE",
"55 476 CURVE SMOOTH",
"55 179 LINE SMOOTH",
"55 55 OFFCURVE",
"104 -6 OFFCURVE",
"195 -6 CURVE SMOOTH"
);
}
);
width = 399;
},
{
anchors = (
{
name = bottom;
position = "{198, 0}";
},
{
name = top;
position = "{198, 655}";
},
{
name = topleft;
position = "{48, 655}";
}
);
layerId = "061E0761-0390-47CB-9723-8373CF82D209";
paths = (
{
closed = 1;
nodes = (
"242 -6 OFFCURVE",
"280 27 OFFCURVE",
"297 80 CURVE",
"298 80 LINE",
"299 45 OFFCURVE",
"300 24 OFFCURVE",
"303 7 CURVE SMOOTH",
"303 2 OFFCURVE",
"305 0 OFFCURVE",
"311 0 CURVE SMOOTH",
"352 0 LINE SMOOTH",
"356 0 OFFCURVE",
"359 3 OFFCURVE",
"358 10 CURVE SMOOTH",
"354 40 OFFCURVE",
"353 69 OFFCURVE",
"353 128 CURVE SMOOTH",
"353 321 LINE SMOOTH",
"353 327 OFFCURVE",
"350 330 OFFCURVE",
"346 330 CURVE SMOOTH",
"207 330 LINE SMOOTH",
"202 330 OFFCURVE",
"200 328 OFFCURVE",
"200 321 CURVE SMOOTH",
"200 277 LINE SMOOTH",
"200 270 OFFCURVE",
"202 268 OFFCURVE",
"207 268 CURVE SMOOTH",
"290 268 LINE",
"290 212 LINE SMOOTH",
"290 106 OFFCURVE",
"258 57 OFFCURVE",
"195 57 CURVE SMOOTH",
"132 57 OFFCURVE",
"108 95 OFFCURVE",
"108 190 CURVE SMOOTH",
"108 463 LINE SMOOTH",
"108 555 OFFCURVE",
"138 598 OFFCURVE",
"200 598 CURVE SMOOTH",
"260 598 OFFCURVE",
"293 545 OFFCURVE",
"284 454 CURVE SMOOTH",
"283 449 OFFCURVE",
"286 446 OFFCURVE",
"290 446 CURVE SMOOTH",
"342 446 LINE SMOOTH",
"346 446 OFFCURVE",
"349 450 OFFCURVE",
"349 454 CURVE SMOOTH",
"360 583 OFFCURVE",
"303 661 OFFCURVE",
"198 661 CURVE SMOOTH",
"98 661 OFFCURVE",
"43 592 OFFCURVE",
"43 466 CURVE SMOOTH",
"43 185 LINE SMOOTH",
"43 57 OFFCURVE",
"87 -6 OFFCURVE",
"183 -6 CURVE SMOOTH"
);
}
);
width = 406;
}
);
leftKerningGroup = O;
leftMetricsKey = O;
rightKerningGroup = G;
unicode = 0047;
},
{
glyphname = H;
lastChange = "2022-10-25 01:43:39 +0000";
layers = (
{
anchors = (
{
name = bottom;
position = "{248, 527}";
},
{
name = center;
position = "{248, 328}";
},
{
name = top;
position = "{248, 655}";
},
{
name = topleft;
position = "{40, 655}";
}
);
layerId = "9DFF46AD-73DE-422E-A6A3-16745129C94E";
paths = (
{
closed = 1;
nodes = (
"183 0 LINE SMOOTH",
"191 0 OFFCURVE",
"196 6 OFFCURVE",
"196 14 CURVE SMOOTH",
"196 256 LINE",
"299 256 LINE",
"299 14 LINE SMOOTH",
"299 6 OFFCURVE",
"304 0 OFFCURVE",
"312 0 CURVE SMOOTH",
"452 0 LINE SMOOTH",
"460 0 OFFCURVE",
"465 6 OFFCURVE",
"465 14 CURVE SMOOTH",
"465 641 LINE SMOOTH",
"465 649 OFFCURVE",
"460 655 OFFCURVE",
"452 655 CURVE SMOOTH",
"312 655 LINE SMOOTH",
"304 655 OFFCURVE",
"299 649 OFFCURVE",
"299 641 CURVE SMOOTH",
"299 402 LINE",
"196 402 LINE",
"196 641 LINE SMOOTH",
"196 649 OFFCURVE",
"191 655 OFFCURVE",
"183 655 CURVE SMOOTH",
"43 655 LINE SMOOTH",
"35 655 OFFCURVE",
"30 649 OFFCURVE",
"30 641 CURVE SMOOTH",
"30 14 LINE SMOOTH",
"30 6 OFFCURVE",
"35 0 OFFCURVE",
"43 0 CURVE SMOOTH"
);
}
);
width = 495;
},
{
anchors = (
{
name = bottom;
position = "{201, 0}";
},
{
name = center;
position = "{204, 328}";
},
{
name = top;
position = "{201, 655}";
},
{
name = topleft;
position = "{40, 655}";
}
);
guideLines = (
{
angle = 90;
position = "{559, 378}";
}
);
layerId = "7BE597F2-1213-4429-94A3-E96FC63EF83E";
paths = (
{
closed = 1;
nodes = (
"79 0 LINE SMOOTH",
"81 0 OFFCURVE",
"82 1 OFFCURVE",
"82 3 CURVE SMOOTH",
"82 331 LINE",
"322 331 LINE",
"322 3 LINE SMOOTH",
"322 1 OFFCURVE",
"323 0 OFFCURVE",
"325 0 CURVE SMOOTH",
"335 0 LINE SMOOTH",
"337 0 OFFCURVE",
"338 1 OFFCURVE",
"338 3 CURVE SMOOTH",
"338 652 LINE SMOOTH",
"338 654 OFFCURVE",
"337 655 OFFCURVE",
"335 655 CURVE SMOOTH",
"325 655 LINE SMOOTH",
"323 655 OFFCURVE",
"322 654 OFFCURVE",
"322 652 CURVE SMOOTH",
"322 347 LINE",
"82 347 LINE",
"82 652 LINE SMOOTH",
"82 654 OFFCURVE",
"81 655 OFFCURVE",
"79 655 CURVE SMOOTH",
"69 655 LINE SMOOTH",
"67 655 OFFCURVE",
"66 654 OFFCURVE",
"66 652 CURVE SMOOTH",
"66 3 LINE SMOOTH",
"66 1 OFFCURVE",
"67 0 OFFCURVE",
"69 0 CURVE SMOOTH"
);
}
);
width = 404;
},
{
anchors = (
{
name = bottom;
position = "{206, 0}";
},
{
name = center;
position = "{206, 351}";
},
{
name = top;
position = "{206, 655}";
},
{
name = topleft;
position = "{27, 655}";
}
);
layerId = "061E0761-0390-47CB-9723-8373CF82D209";
paths = (
{
closed = 1;
nodes = (
"110 0 LINE SMOOTH",
"114 0 OFFCURVE",
"117 3 OFFCURVE",
"117 9 CURVE SMOOTH",
"117 308 LINE",
"295 308 LINE",
"295 9 LINE SMOOTH",
"295 3 OFFCURVE",
"296 0 OFFCURVE",
"302 0 CURVE SMOOTH",
"352 0 LINE SMOOTH",
"357 0 OFFCURVE",
"360 3 OFFCURVE",
"360 9 CURVE SMOOTH",
"360 646 LINE SMOOTH",
"360 652 OFFCURVE",
"357 655 OFFCURVE",
"352 655 CURVE SMOOTH",
"302 655 LINE SMOOTH",
"296 655 OFFCURVE",
"295 652 OFFCURVE",
"295 646 CURVE SMOOTH",
"295 370 LINE",
"117 370 LINE",
"117 646 LINE SMOOTH",
"117 652 OFFCURVE",
"114 655 OFFCURVE",
"110 655 CURVE SMOOTH",
"59 655 LINE SMOOTH",
"55 655 OFFCURVE",
"52 652 OFFCURVE",
"52 646 CURVE SMOOTH",
"52 9 LINE SMOOTH",
"52 3 OFFCURVE",
"55 0 OFFCURVE",
"59 0 CURVE SMOOTH"
);
}
);
width = 411;
}
);
leftKerningGroup = H;
rightKerningGroup = H;
unicode = 0048;
},
{
glyphname = Hbar;
lastChange = "2022-10-25 01:43:39 +0000";
layers = (
{
components = (
{
name = H;
}
);
layerId = "9DFF46AD-73DE-422E-A6A3-16745129C94E";
paths = (
{
closed = 1;
nodes = (
"30 489 LINE",
"465 489 LINE",
"492 489 LINE SMOOTH",
"499 489 OFFCURVE",
"504 495 OFFCURVE",
"504 503 CURVE SMOOTH",
"504 580 LINE SMOOTH",
"504 588 OFFCURVE",
"500 593 OFFCURVE",
"492 593 CURVE SMOOTH",
"3 593 LINE SMOOTH",
"-5 593 OFFCURVE",
"-9 588 OFFCURVE",
"-9 580 CURVE SMOOTH",
"-9 503 LINE SMOOTH",
"-9 495 OFFCURVE",
"-4 489 OFFCURVE",
"3 489 CURVE SMOOTH"
);
}
);
width = 495;
},
{
components = (
{
name = H;
}
);
layerId = "7BE597F2-1213-4429-94A3-E96FC63EF83E";
paths = (
{
closed = 1;
nodes = (
"66 545 LINE",
"338 545 LINE",
"395 545 LINE SMOOTH",
"397 545 OFFCURVE",
"398 546 OFFCURVE",
"398 548 CURVE SMOOTH",
"398 558 LINE SMOOTH",
"398 560 OFFCURVE",
"397 561 OFFCURVE",
"395 561 CURVE SMOOTH",
"9 561 LINE SMOOTH",
"7 561 OFFCURVE",
"6 560 OFFCURVE",
"6 558 CURVE SMOOTH",
"6 548 LINE SMOOTH",
"6 546 OFFCURVE",
"7 545 OFFCURVE",
"9 545 CURVE SMOOTH"
);
}
);
width = 404;
},
{
components = (
{
alignment = -1;
name = H;
}
);
layerId = "061E0761-0390-47CB-9723-8373CF82D209";
paths = (
{
closed = 1;
nodes = (
"52 522 LINE",
"360 522 LINE",
"396 522 LINE SMOOTH",
"400 522 OFFCURVE",
"403 525 OFFCURVE",
"403 531 CURVE SMOOTH",
"403 572 LINE SMOOTH",
"403 577 OFFCURVE",
"400 581 OFFCURVE",
"396 581 CURVE SMOOTH",
"16 581 LINE SMOOTH",
"11 581 OFFCURVE",
"8 577 OFFCURVE",
"8 572 CURVE SMOOTH",
"8 531 LINE SMOOTH",
"8 525 OFFCURVE",
"11 522 OFFCURVE",
"16 522 CURVE SMOOTH"
);
}
);
width = 411;
}
);
leftKerningGroup = H;
rightKerningGroup = H;
unicode = 0126;
},
{
glyphname = I;
lastChange = "2022-10-25 01:47:17 +0000";
layers = (
{
anchors = (
{
name = bottom;
position = "{113, 0}";
},
{
name = ogonek;
position = "{196, 10}";
},
{
name = top;
position = "{115, 655}";
},
{
name = topleft;
position = "{19, 655}";
}
);
layerId = "9DFF46AD-73DE-422E-A6A3-16745129C94E";
paths = (
{
closed = 1;
nodes = (
"184 0 LINE SMOOTH",
"191 0 OFFCURVE",
"196 6 OFFCURVE",
"196 14 CURVE SMOOTH",
"196 641 LINE SMOOTH",
"196 649 OFFCURVE",
"191 655 OFFCURVE",
"184 655 CURVE SMOOTH",
"42 655 LINE SMOOTH",
"35 655 OFFCURVE",
"30 649 OFFCURVE",
"30 641 CURVE SMOOTH",
"30 14 LINE SMOOTH",
"30 6 OFFCURVE",
"35 0 OFFCURVE",
"42 0 CURVE SMOOTH"
);
}
);
width = 226;
},
{
anchors = (
{
name = bottom;
position = "{74, 0}";
},
{
name = ogonek;
position = "{86, 10}";
},
{
name = top;
position = "{74, 655}";
},
{
name = topleft;
position = "{30, 655}";
}
);
layerId = "7BE597F2-1213-4429-94A3-E96FC63EF83E";
paths = (
{
closed = 1;
nodes = (
"79 0 LINE SMOOTH",
"81 0 OFFCURVE",
"82 1 OFFCURVE",
"82 3 CURVE SMOOTH",
"82 652 LINE SMOOTH",
"82 654 OFFCURVE",
"81 655 OFFCURVE",
"79 655 CURVE SMOOTH",
"69 655 LINE SMOOTH",
"67 655 OFFCURVE",
"66 654 OFFCURVE",
"66 652 CURVE SMOOTH",
"66 3 LINE SMOOTH",
"66 1 OFFCURVE",
"67 0 OFFCURVE",
"69 0 CURVE SMOOTH"
);
}
);
width = 148;
},
{
anchors = (
{
name = bottom;
position = "{86, 0}";
},
{
name = ogonek;
position = "{123, 10}";
},
{
name = top;
position = "{86, 655}";
},
{
name = topleft;
position = "{21, 655}";
}
);
layerId = "061E0761-0390-47CB-9723-8373CF82D209";
paths = (
{
closed = 1;
nodes = (
"110 0 LINE SMOOTH",
"114 0 OFFCURVE",
"117 3 OFFCURVE",
"117 9 CURVE SMOOTH",
"117 646 LINE SMOOTH",
"117 652 OFFCURVE",
"114 655 OFFCURVE",
"110 655 CURVE SMOOTH",
"59 655 LINE SMOOTH",
"55 655 OFFCURVE",
"52 652 OFFCURVE",
"52 646 CURVE SMOOTH",
"52 9 LINE SMOOTH",
"52 3 OFFCURVE",
"55 0 OFFCURVE",
"59 0 CURVE SMOOTH"
);
}
);
width = 168;
}
);
leftKerningGroup = H;
leftMetricsKey = H;
rightKerningGroup = H;
rightMetricsKey = H;
unicode = 0049;
},
{
glyphname = J;
lastChange = "2022-10-25 01:47:17 +0000";
layers = (
{
anchors = (
{
name = bottom;
position = "{116, 0}";
},
{
name = top;
position = "{116, 655}";
}
);
layerId = "9DFF46AD-73DE-422E-A6A3-16745129C94E";
paths = (
{
closed = 1;
nodes = (
"138 -145 OFFCURVE",
"196 -63 OFFCURVE",
"196 93 CURVE SMOOTH",
"196 641 LINE SMOOTH",
"196 649 OFFCURVE",
"191 655 OFFCURVE",
"184 655 CURVE SMOOTH",
"42 655 LINE SMOOTH",
"35 655 OFFCURVE",
"30 649 OFFCURVE",
"30 641 CURVE SMOOTH",
"30 84 LINE SMOOTH",
"30 2 OFFCURVE",
"15 -17 OFFCURVE",
"-16 -30 CURVE SMOOTH",
"-20 -32 OFFCURVE",
"-24 -39 OFFCURVE",
"-21 -48 CURVE SMOOTH",
"14 -158 LINE SMOOTH",
"16 -165 OFFCURVE",
"21 -168 OFFCURVE",
"25 -167 CURVE SMOOTH"
);
}
);
width = 226;
},
{
anchors = (
{
name = bottom;
position = "{74, 0}";
},
{
name = top;
position = "{74, 655}";
}
);
layerId = "7BE597F2-1213-4429-94A3-E96FC63EF83E";
paths = (
{
closed = 1;
nodes = (
"62 -116 OFFCURVE",
"82 -74 OFFCURVE",
"82 64 CURVE SMOOTH",
"82 652 LINE SMOOTH",
"82 654 OFFCURVE",
"81 655 OFFCURVE",
"79 655 CURVE SMOOTH",
"69 655 LINE SMOOTH",
"67 655 OFFCURVE",
"66 654 OFFCURVE",
"66 652 CURVE SMOOTH",
"66 64 LINE SMOOTH",
"66 -66 OFFCURVE",
"48 -104 OFFCURVE",
"6 -124 CURVE SMOOTH",
"4 -125 OFFCURVE",
"4 -126 OFFCURVE",
"5 -128 CURVE SMOOTH",
"8 -138 LINE SMOOTH",
"9 -140 OFFCURVE",
"10 -140 OFFCURVE",
"12 -139 CURVE SMOOTH"
);
}
);
width = 148;
},
{
anchors = (
{
name = bottom;
position = "{84, 0}";
},
{
name = top;
position = "{84, 655}";
}
);
layerId = "061E0761-0390-47CB-9723-8373CF82D209";
paths = (
{
closed = 1;
nodes = (
"84 -118 OFFCURVE",
"117 -69 OFFCURVE",
"117 72 CURVE SMOOTH",
"117 646 LINE SMOOTH",
"117 652 OFFCURVE",
"114 655 OFFCURVE",
"111 655 CURVE SMOOTH",
"59 655 LINE SMOOTH",
"55 655 OFFCURVE",
"52 652 OFFCURVE",
"52 646 CURVE SMOOTH",
"52 71 LINE SMOOTH",
"52 -25 OFFCURVE",
"35 -60 OFFCURVE",
"1 -72 CURVE SMOOTH",
"-6 -74 OFFCURVE",
"-7 -78 OFFCURVE",
"-5 -85 CURVE SMOOTH",
"9 -132 LINE SMOOTH",
"11 -138 OFFCURVE",
"14 -141 OFFCURVE",
"22 -138 CURVE SMOOTH"
);
}
);
width = 168;
}
);
leftKerningGroup = J;
rightKerningGroup = J;
rightMetricsKey = H;
unicode = 004A;
},
{
glyphname = K;
lastChange = "2022-10-25 01:43:39 +0000";
layers = (
{
anchors = (
{
name = bottom;
position = "{237, 0}";
},
{
name = top;
position = "{245, 655}";
}
);
layerId = "9DFF46AD-73DE-422E-A6A3-16745129C94E";
paths = (
{
closed = 1;
nodes = (
"184 0 LINE SMOOTH",
"191 0 OFFCURVE",
"196 6 OFFCURVE",
"196 14 CURVE SMOOTH",
"196 187 LINE",
"224 240 LINE",
"290 9 LINE SMOOTH",
"292 2 OFFCURVE",
"298 0 OFFCURVE",
"304 0 CURVE SMOOTH",
"472 0 LINE SMOOTH",
"481 0 OFFCURVE",
"485 7 OFFCURVE",
"481 17 CURVE SMOOTH",
"346 375 LINE",
"459 638 LINE SMOOTH",
"463 648 OFFCURVE",
"461 655 OFFCURVE",
"452 655 CURVE SMOOTH",
"294 655 LINE SMOOTH",
"286 655 OFFCURVE",
"283 653 OFFCURVE",
"281 647 CURVE SMOOTH",
"240 551 LINE SMOOTH",
"212 486 OFFCURVE",
"201 427 OFFCURVE",
"191 388 CURVE",
"189 388 LINE",
"193 427 OFFCURVE",
"196 513 OFFCURVE",
"196 552 CURVE SMOOTH",
"196 641 LINE SMOOTH",
"196 649 OFFCURVE",
"191 655 OFFCURVE",
"184 655 CURVE SMOOTH",
"42 655 LINE SMOOTH",
"35 655 OFFCURVE",
"30 649 OFFCURVE",
"30 641 CURVE SMOOTH",
"30 14 LINE SMOOTH",
"30 6 OFFCURVE",
"35 0 OFFCURVE",
"42 0 CURVE SMOOTH"
);
}
);
width = 483;
},
{
anchors = (
{
name = bottom;
position = "{183, 0}";
},
{
name = top;
position = "{176, 655}";
}
);
layerId = "7BE597F2-1213-4429-94A3-E96FC63EF83E";
paths = (
{
closed = 1;
nodes = (
"79 0 LINE SMOOTH",
"81 0 OFFCURVE",
"82 1 OFFCURVE",
"82 3 CURVE SMOOTH",
"82 208 LINE",
"164 363 LINE",
"315 2 LINE SMOOTH",
"316 0 OFFCURVE",
"317 0 OFFCURVE",
"319 0 CURVE SMOOTH",
"332 0 LINE SMOOTH",
"334 0 OFFCURVE",
"334 2 OFFCURVE",
"333 4 CURVE SMOOTH",
"174 381 LINE",
"318 651 LINE SMOOTH",
"319 653 OFFCURVE",
"319 655 OFFCURVE",
"317 655 CURVE SMOOTH",
"304 655 LINE SMOOTH",
"302 655 OFFCURVE",
"301 655 OFFCURVE",
"300 653 CURVE SMOOTH",
"146 362 LINE SMOOTH",
"124 321 OFFCURVE",
"104 280 OFFCURVE",
"82 239 CURVE",
"82 240 LINE",
"82 281 OFFCURVE",
"82 322 OFFCURVE",
"82 363 CURVE SMOOTH",
"82 652 LINE SMOOTH",
"82 654 OFFCURVE",
"81 655 OFFCURVE",
"79 655 CURVE SMOOTH",
"69 655 LINE SMOOTH",
"67 655 OFFCURVE",
"66 654 OFFCURVE",
"66 652 CURVE SMOOTH",
"66 3 LINE SMOOTH",
"66 1 OFFCURVE",
"67 0 OFFCURVE",
"69 0 CURVE SMOOTH"
);
}
);
width = 339;
},
{
anchors = (
{
name = bottom;
position = "{196, 0}";
},
{
name = top;
position = "{188, 655}";
}
);
layerId = "061E0761-0390-47CB-9723-8373CF82D209";
paths = (
{
closed = 1;
nodes = (
"110 0 LINE SMOOTH",
"114 0 OFFCURVE",
"117 3 OFFCURVE",
"117 9 CURVE SMOOTH",
"117 207 LINE",
"175 316 LINE",
"290 6 LINE",
"291 2 OFFCURVE",
"295 0 OFFCURVE",
"298 0 CURVE SMOOTH",
"359 0 LINE SMOOTH",
"364 0 OFFCURVE",
"366 4 OFFCURVE",
"363 11 CURVE",
"216 391 LINE",
"350 644 LINE SMOOTH",
"354 651 OFFCURVE",
"351 655 OFFCURVE",
"346 655 CURVE SMOOTH",
"287 655 LINE SMOOTH",
"283 655 OFFCURVE",
"280 654 OFFCURVE",
"279 651 CURVE",
"171 433 LINE SMOOTH",
"151 392 OFFCURVE",
"132 351 OFFCURVE",
"115 307 CURVE",
"114 307 LINE",
"116 350 OFFCURVE",
"117 391 OFFCURVE",
"117 434 CURVE SMOOTH",
"117 646 LINE SMOOTH",
"117 652 OFFCURVE",
"114 655 OFFCURVE",
"110 655 CURVE SMOOTH",
"59 655 LINE SMOOTH",
"55 655 OFFCURVE",
"52 652 OFFCURVE",
"52 646 CURVE SMOOTH",
"52 9 LINE SMOOTH",
"52 3 OFFCURVE",
"55 0 OFFCURVE",
"59 0 CURVE SMOOTH"
);
}
);
width = 367;
}
);
leftKerningGroup = H;
leftMetricsKey = H;
rightKerningGroup = K;
unicode = 004B;
},
{
glyphname = L;
lastChange = "2022-10-25 01:43:39 +0000";
layers = (
{
anchors = (
{
name = bottom;
position = "{198, 0}";
},
{
name = center;
position = "{186, 328}";
},
{
name = top;
position = "{115, 655}";
},
{
name = topright;
position = "{375, 655}";
}
);
layerId = "9DFF46AD-73DE-422E-A6A3-16745129C94E";
paths = (
{
closed = 1;
nodes = (
"352 0 LINE SMOOTH",
"361 0 OFFCURVE",
"364 6 OFFCURVE",
"364 14 CURVE SMOOTH",
"364 132 LINE SMOOTH",
"364 141 OFFCURVE",
"360 146 OFFCURVE",
"351 146 CURVE SMOOTH",
"196 146 LINE",
"196 641 LINE SMOOTH",
"196 649 OFFCURVE",
"191 655 OFFCURVE",
"183 655 CURVE SMOOTH",
"43 655 LINE SMOOTH",
"35 655 OFFCURVE",
"30 649 OFFCURVE",
"30 641 CURVE SMOOTH",
"30 14 LINE SMOOTH",
"30 6 OFFCURVE",
"35 0 OFFCURVE",
"43 0 CURVE SMOOTH"
);
}
);
width = 374;
},
{
anchors = (
{
name = bottom;
position = "{175, 0}";
},
{
name = center;
position = "{159, 328}";
},
{
name = top;
position = "{74, 655}";
},
{
name = topright;
position = "{295, 655}";
}
);
layerId = "7BE597F2-1213-4429-94A3-E96FC63EF83E";
paths = (
{
closed = 1;
nodes = (
"273 0 LINE SMOOTH",
"275 0 OFFCURVE",
"276 1 OFFCURVE",
"276 3 CURVE SMOOTH",
"276 13 LINE SMOOTH",
"276 15 OFFCURVE",
"275 16 OFFCURVE",
"273 16 CURVE SMOOTH",
"82 16 LINE",
"82 652 LINE SMOOTH",
"82 654 OFFCURVE",
"81 655 OFFCURVE",
"79 655 CURVE SMOOTH",
"69 655 LINE SMOOTH",
"67 655 OFFCURVE",
"66 654 OFFCURVE",
"66 652 CURVE SMOOTH",
"66 3 LINE SMOOTH",
"66 1 OFFCURVE",
"67 0 OFFCURVE",
"69 0 CURVE SMOOTH"
);
}
);
width = 291;
},
{
anchors = (
{
name = bottom;
position = "{172, 0}";
},
{
name = center;
position = "{157, 351}";
},
{
name = top;
position = "{85, 655}";
},
{
name = topright;
position = "{292, 655}";
}
);
layerId = "061E0761-0390-47CB-9723-8373CF82D209";
paths = (
{
closed = 1;
nodes = (
"279 0 LINE SMOOTH",
"284 0 OFFCURVE",
"287 3 OFFCURVE",
"287 9 CURVE SMOOTH",
"287 54 LINE SMOOTH",
"287 59 OFFCURVE",
"284 63 OFFCURVE",
"279 63 CURVE SMOOTH",
"117 63 LINE",
"117 646 LINE SMOOTH",
"117 652 OFFCURVE",
"114 655 OFFCURVE",
"110 655 CURVE SMOOTH",
"59 655 LINE SMOOTH",
"54 655 OFFCURVE",
"52 652 OFFCURVE",
"52 646 CURVE SMOOTH",
"52 9 LINE SMOOTH",
"52 3 OFFCURVE",
"55 0 OFFCURVE",
"59 0 CURVE SMOOTH"
);
}
);
width = 302;
}
);
leftKerningGroup = H;
leftMetricsKey = H;
rightKerningGroup = L;
unicode = 004C;
},
{
glyphname = Lslash;
lastChange = "2022-10-25 01:43:39 +0000";
layers = (
{
components = (
{
name = L;
transform = "{1, 0, 0, 1, 7, 0}";
}
);
layerId = "9DFF46AD-73DE-422E-A6A3-16745129C94E";
paths = (
{
closed = 1;
nodes = (
"271 342 LINE SMOOTH",
"278 345 OFFCURVE",
"280 348 OFFCURVE",
"280 356 CURVE SMOOTH",
"280 455 LINE SMOOTH",
"280 464 OFFCURVE",
"275 467 OFFCURVE",
"267 464 CURVE SMOOTH",
"12 360 LINE SMOOTH",
"6 358 OFFCURVE",
"3 355 OFFCURVE",
"3 347 CURVE SMOOTH",
"3 247 LINE SMOOTH",
"3 238 OFFCURVE",
"7 235 OFFCURVE",
"14 238 CURVE SMOOTH"
);
}
);
width = 381;
},
{
components = (
{
name = L;
}
);
layerId = "7BE597F2-1213-4429-94A3-E96FC63EF83E";
paths = (
{
closed = 1;
nodes = (
"184 407 LINE SMOOTH",
"186 409 OFFCURVE",
"186 409 OFFCURVE",
"186 411 CURVE SMOOTH",
"186 422 LINE SMOOTH",
"186 424 OFFCURVE",
"185 425 OFFCURVE",
"183 424 CURVE SMOOTH",
"3 297 LINE SMOOTH",
"0 295 OFFCURVE",
"0 295 OFFCURVE",
"0 291 CURVE SMOOTH",
"0 283 LINE SMOOTH",
"0 279 OFFCURVE",
"2 279 OFFCURVE",
"5 281 CURVE SMOOTH"
);
}
);
width = 291;
},
{
components = (
{
alignment = -1;
name = L;
}
);
layerId = "061E0761-0390-47CB-9723-8373CF82D209";
paths = (
{
closed = 1;
nodes = (
"200 399 LINE SMOOTH",
"203 401 OFFCURVE",
"205 404 OFFCURVE",
"205 409 CURVE SMOOTH",
"205 458 LINE SMOOTH",
"205 464 OFFCURVE",
"202 465 OFFCURVE",
"197 462 CURVE SMOOTH",
"1 331 LINE SMOOTH",
"-2 329 OFFCURVE",
"-4 326 OFFCURVE",
"-4 321 CURVE SMOOTH",
"-4 271 LINE SMOOTH",
"-4 266 OFFCURVE",
"-1 265 OFFCURVE",
"3 268 CURVE SMOOTH"
);
}
);
width = 302;
}
);
leftKerningGroup = Lslash;
rightKerningGroup = L;
rightMetricsKey = "=L";
unicode = 0141;
},
{
glyphname = M;
lastChange = "2022-10-25 01:43:39 +0000";
layers = (
{
anchors = (
{
name = bottom;
position = "{300, 0}";
},
{
name = top;
position = "{300, 655}";
}
);
layerId = "9DFF46AD-73DE-422E-A6A3-16745129C94E";
paths = (
{
closed = 1;
nodes = (
"175 0 LINE SMOOTH",
"182 0 OFFCURVE",
"187 5 OFFCURVE",
"187 14 CURVE SMOOTH",
"188 187 LINE SMOOTH",
"189 276 OFFCURVE",
"183 335 OFFCURVE",
"178 384 CURVE",
"180 384 LINE",
"192 341 OFFCURVE",
"206 296 OFFCURVE",
"222 254 CURVE SMOOTH",
"289 80 LINE SMOOTH",
"292 73 OFFCURVE",
"294 71 OFFCURVE",
"299 71 CURVE SMOOTH",
"304 71 LINE SMOOTH",
"309 71 OFFCURVE",
"311 73 OFFCURVE",
"314 80 CURVE SMOOTH",
"381 254 LINE SMOOTH",
"397 296 OFFCURVE",
"411 341 OFFCURVE",
"423 384 CURVE",
"425 384 LINE",
"420 335 OFFCURVE",
"414 276 OFFCURVE",
"415 187 CURVE SMOOTH",
"416 14 LINE SMOOTH",
"416 5 OFFCURVE",
"421 0 OFFCURVE",
"428 0 CURVE SMOOTH",
"567 0 LINE SMOOTH",
"575 0 OFFCURVE",
"580 6 OFFCURVE",
"580 13 CURVE SMOOTH",
"571 641 LINE SMOOTH",
"571 650 OFFCURVE",
"566 655 OFFCURVE",
"559 655 CURVE SMOOTH",
"400 655 LINE SMOOTH",
"393 655 OFFCURVE",
"388 653 OFFCURVE",
"386 645 CURVE SMOOTH",
"302 357 LINE",
"217 645 LINE SMOOTH",
"215 653 OFFCURVE",
"210 655 OFFCURVE",
"203 655 CURVE SMOOTH",
"44 655 LINE SMOOTH",
"37 655 OFFCURVE",
"32 650 OFFCURVE",
"32 641 CURVE SMOOTH",
"23 13 LINE SMOOTH",
"23 6 OFFCURVE",
"28 0 OFFCURVE",
"36 0 CURVE SMOOTH"
);
}
);
width = 603;
},
{
anchors = (
{
name = bottom;
position = "{235, 0}";
},
{
name = top;
position = "{235, 655}";
}
);
layerId = "7BE597F2-1213-4429-94A3-E96FC63EF83E";
paths = (
{
closed = 1;
nodes = (
"72 0 LINE SMOOTH",
"74 0 OFFCURVE",
"75 1 OFFCURVE",
"75 3 CURVE SMOOTH",
"82 515 LINE SMOOTH",
"83 553 OFFCURVE",
"82 593 OFFCURVE",
"83 631 CURVE",
"84 631 LINE",
"95 595 OFFCURVE",
"107 556 OFFCURVE",
"118 520 CURVE SMOOTH",
"235 131 LINE SMOOTH",
"236 128 OFFCURVE",
"236 128 OFFCURVE",
"238 128 CURVE SMOOTH",
"240 128 LINE SMOOTH",
"242 128 OFFCURVE",
"242 128 OFFCURVE",
"243 131 CURVE SMOOTH",
"359 514 LINE SMOOTH",
"370 552 OFFCURVE",
"383 593 OFFCURVE",
"394 631 CURVE",
"395 631 LINE",
"396 591 OFFCURVE",
"395 548 OFFCURVE",
"396 508 CURVE SMOOTH",
"403 3 LINE SMOOTH",
"403 1 OFFCURVE",
"404 0 OFFCURVE",
"406 0 CURVE SMOOTH",
"416 0 LINE SMOOTH",
"418 0 OFFCURVE",
"419 1 OFFCURVE",
"419 3 CURVE SMOOTH",
"409 652 LINE SMOOTH",
"409 654 OFFCURVE",
"408 655 OFFCURVE",
"406 655 CURVE SMOOTH",
"389 655 LINE SMOOTH",
"387 655 OFFCURVE",
"386 655 OFFCURVE",
"385 652 CURVE SMOOTH",
"239 171 LINE",
"94 653 LINE SMOOTH",
"93 655 OFFCURVE",
"92 655 OFFCURVE",
"91 655 CURVE SMOOTH",
"72 655 LINE SMOOTH",
"70 655 OFFCURVE",
"69 654 OFFCURVE",
"69 652 CURVE SMOOTH",
"59 3 LINE SMOOTH",
"59 1 OFFCURVE",
"60 0 OFFCURVE",
"62 0 CURVE SMOOTH"
);
}
);
width = 478;
},
{
anchors = (
{
name = bottom;
position = "{242, 0}";
},
{
name = top;
position = "{242, 655}";
}
);
layerId = "061E0761-0390-47CB-9723-8373CF82D209";
paths = (
{
closed = 1;
nodes = (
"101 0 LINE SMOOTH",
"106 0 OFFCURVE",
"108 3 OFFCURVE",
"108 9 CURVE SMOOTH",
"113 430 LINE SMOOTH",
"113 469 OFFCURVE",
"113 517 OFFCURVE",
"111 560 CURVE",
"113 560 LINE",
"121 519 OFFCURVE",
"130 478 OFFCURVE",
"141 438 CURVE SMOOTH",
"232 99 LINE SMOOTH",
"233 94 OFFCURVE",
"236 92 OFFCURVE",
"240 92 CURVE SMOOTH",
"244 92 LINE SMOOTH",
"248 92 OFFCURVE",
"252 94 OFFCURVE",
"253 99 CURVE SMOOTH",
"342 437 LINE SMOOTH",
"353 477 OFFCURVE",
"364 519 OFFCURVE",
"372 560 CURVE",
"373 560 LINE",
"372 517 OFFCURVE",
"372 468 OFFCURVE",
"372 429 CURVE SMOOTH",
"376 9 LINE SMOOTH",
"376 3 OFFCURVE",
"379 0 OFFCURVE",
"384 0 CURVE SMOOTH",
"434 0 LINE SMOOTH",
"438 0 OFFCURVE",
"441 3 OFFCURVE",
"441 9 CURVE SMOOTH",
"432 646 LINE SMOOTH",
"432 652 OFFCURVE",
"430 655 OFFCURVE",
"425 655 CURVE SMOOTH",
"347 655 LINE SMOOTH",
"342 655 OFFCURVE",
"339 653 OFFCURVE",
"338 648 CURVE SMOOTH",
"242 257 LINE",
"147 648 LINE SMOOTH",
"146 653 OFFCURVE",
"143 655 OFFCURVE",
"138 655 CURVE SMOOTH",
"60 655 LINE SMOOTH",
"55 655 OFFCURVE",
"52 652 OFFCURVE",
"52 646 CURVE SMOOTH",
"44 9 LINE SMOOTH",
"44 3 OFFCURVE",
"47 0 OFFCURVE",
"50 0 CURVE SMOOTH"
);
}
);
width = 485;
}
);
leftKerningGroup = M;
rightKerningGroup = M;
unicode = 004D;
},
{
glyphname = N;
lastChange = "2022-10-25 01:47:17 +0000";
layers = (
{
anchors = (
{
name = bottom;
position = "{248, 0}";
},
{
name = top;
position = "{248, 655}";
}
);
layerId = "9DFF46AD-73DE-422E-A6A3-16745129C94E";
paths = (
{
closed = 1;
nodes = (
"172 0 LINE SMOOTH",
"180 0 OFFCURVE",
"185 6 OFFCURVE",
"185 14 CURVE SMOOTH",
"185 179 LINE SMOOTH",
"185 237 OFFCURVE",
"178 354 OFFCURVE",
"172 412 CURVE",
"174 412 LINE",
"182 366 OFFCURVE",
"193 306 OFFCURVE",
"207 256 CURVE SMOOTH",
"276 10 LINE SMOOTH",
"278 3 OFFCURVE",
"282 0 OFFCURVE",
"289 0 CURVE SMOOTH",
"454 0 LINE SMOOTH",
"462 0 OFFCURVE",
"466 6 OFFCURVE",
"466 14 CURVE SMOOTH",
"466 641 LINE SMOOTH",
"466 649 OFFCURVE",
"462 655 OFFCURVE",
"453 655 CURVE SMOOTH",
"324 655 LINE SMOOTH",
"316 655 OFFCURVE",
"311 649 OFFCURVE",
"311 641 CURVE SMOOTH",
"311 467 LINE SMOOTH",
"311 413 OFFCURVE",
"318 290 OFFCURVE",
"324 236 CURVE",
"322 236 LINE",
"313 280 OFFCURVE",
"297 353 OFFCURVE",
"285 399 CURVE SMOOTH",
"221 645 LINE SMOOTH",
"219 652 OFFCURVE",
"215 655 OFFCURVE",
"208 655 CURVE SMOOTH",
"42 655 LINE SMOOTH",
"35 655 OFFCURVE",
"30 649 OFFCURVE",
"30 641 CURVE SMOOTH",
"30 14 LINE SMOOTH",
"30 6 OFFCURVE",
"35 0 OFFCURVE",
"43 0 CURVE SMOOTH"
);
}
);
width = 496;
},
{
anchors = (
{
name = bottom;
position = "{204, 0}";
},
{
name = top;
position = "{204, 655}";
}
);
guideLines = (
{
position = "{282, 270}";
},
{
position = "{190, 372}";
}
);
layerId = "7BE597F2-1213-4429-94A3-E96FC63EF83E";
paths = (
{
closed = 1;
nodes = (
"79 0 LINE SMOOTH",
"81 0 OFFCURVE",
"82 1 OFFCURVE",
"82 3 CURVE SMOOTH",
"82 373 LINE SMOOTH",
"82 460 OFFCURVE",
"82 547 OFFCURVE",
"82 634 CURVE",
"83 634 LINE",
"115 547 OFFCURVE",
"147 459 OFFCURVE",
"179 372 CURVE SMOOTH",
"315 2 LINE SMOOTH",
"316 0 OFFCURVE",
"317 0 OFFCURVE",
"319 0 CURVE SMOOTH",
"339 0 LINE SMOOTH",
"341 0 OFFCURVE",
"342 1 OFFCURVE",
"342 3 CURVE SMOOTH",
"342 652 LINE SMOOTH",
"342 654 OFFCURVE",
"341 655 OFFCURVE",
"339 655 CURVE SMOOTH",
"329 655 LINE SMOOTH",
"327 655 OFFCURVE",
"326 654 OFFCURVE",
"326 652 CURVE SMOOTH",
"326 267 LINE SMOOTH",
"326 185 OFFCURVE",
"326 103 OFFCURVE",
"326 21 CURVE",
"325 21 LINE",
"295 104 OFFCURVE",
"265 186 OFFCURVE",
"234 269 CURVE SMOOTH",
"93 653 LINE SMOOTH",
"92 655 OFFCURVE",
"91 655 OFFCURVE",
"89 655 CURVE SMOOTH",
"69 655 LINE SMOOTH",
"67 655 OFFCURVE",
"66 654 OFFCURVE",
"66 652 CURVE SMOOTH",
"66 3 LINE SMOOTH",
"66 1 OFFCURVE",
"67 0 OFFCURVE",
"69 0 CURVE SMOOTH"
);
}
);
width = 408;
},
{
anchors = (
{
name = bottom;
position = "{206, 0}";
},
{
name = top;
position = "{206, 655}";
}
);
layerId = "061E0761-0390-47CB-9723-8373CF82D209";
paths = (
{
closed = 1;
nodes = (
"109 0 LINE SMOOTH",
"113 0 OFFCURVE",
"115 3 OFFCURVE",
"115 9 CURVE SMOOTH",
"115 372 LINE SMOOTH",
"115 430 OFFCURVE",
"114 514 OFFCURVE",
"112 572 CURVE",
"114 572 LINE",
"126 514 OFFCURVE",
"140 447 OFFCURVE",
"160 377 CURVE SMOOTH",
"265 5 LINE SMOOTH",
"266 2 OFFCURVE",
"269 0 OFFCURVE",
"272 0 CURVE SMOOTH",
"354 0 LINE SMOOTH",
"358 0 OFFCURVE",
"361 3 OFFCURVE",
"361 9 CURVE SMOOTH",
"361 647 LINE SMOOTH",
"361 652 OFFCURVE",
"358 655 OFFCURVE",
"354 655 CURVE SMOOTH",
"305 655 LINE SMOOTH",
"300 655 OFFCURVE",
"298 652 OFFCURVE",
"298 647 CURVE SMOOTH",
"298 269 LINE SMOOTH",
"298 216 OFFCURVE",
"300 136 OFFCURVE",
"303 83 CURVE",
"301 83 LINE",
"290 134 OFFCURVE",
"272 213 OFFCURVE",
"257 265 CURVE SMOOTH",
"149 649 LINE SMOOTH",
"148 653 OFFCURVE",
"145 655 OFFCURVE",
"141 655 CURVE SMOOTH",
"59 655 LINE SMOOTH",
"55 655 OFFCURVE",
"52 652 OFFCURVE",
"52 646 CURVE SMOOTH",
"52 9 LINE SMOOTH",
"52 3 OFFCURVE",
"55 0 OFFCURVE",
"58 0 CURVE SMOOTH"
);
}
);
width = 412;
}
);
leftKerningGroup = H;
leftMetricsKey = H;
rightKerningGroup = H;
rightMetricsKey = H;
unicode = 004E;
},
{
glyphname = Eng;
lastChange = "2022-10-25 01:47:17 +0000";
layers = (
{
layerId = "9DFF46AD-73DE-422E-A6A3-16745129C94E";
paths = (
{
closed = 1;
nodes = (
"348 -189 OFFCURVE",
"353 -191 OFFCURVE",
"357 -188 CURVE SMOOTH",
"445 -122 OFFCURVE",
"466 -55 OFFCURVE",
"466 87 CURVE SMOOTH",
"466 641 LINE SMOOTH",
"466 649 OFFCURVE",
"462 655 OFFCURVE",
"453 655 CURVE SMOOTH",
"324 655 LINE SMOOTH",
"316 655 OFFCURVE",
"311 649 OFFCURVE",
"311 641 CURVE SMOOTH",
"311 467 LINE SMOOTH",
"311 413 OFFCURVE",
"318 290 OFFCURVE",
"324 236 CURVE",
"322 236 LINE",
"313 280 OFFCURVE",
"297 353 OFFCURVE",
"285 399 CURVE SMOOTH",
"221 645 LINE SMOOTH",
"219 652 OFFCURVE",
"215 655 OFFCURVE",
"208 655 CURVE SMOOTH",
"42 655 LINE SMOOTH",
"35 655 OFFCURVE",
"30 649 OFFCURVE",
"30 641 CURVE SMOOTH",
"30 14 LINE SMOOTH",
"30 6 OFFCURVE",
"35 0 OFFCURVE",
"43 0 CURVE SMOOTH",
"172 0 LINE SMOOTH",
"180 0 OFFCURVE",
"185 6 OFFCURVE",
"185 14 CURVE SMOOTH",
"185 179 LINE SMOOTH",
"185 237 OFFCURVE",
"178 354 OFFCURVE",
"172 412 CURVE",
"174 412 LINE",
"182 366 OFFCURVE",
"193 306 OFFCURVE",
"207 256 CURVE SMOOTH",
"276 10 LINE SMOOTH",
"278 3 OFFCURVE",
"282 0 OFFCURVE",
"289 0 CURVE SMOOTH",
"302 0 LINE",
"297 -34 OFFCURVE",
"284 -57 OFFCURVE",
"264 -77 CURVE SMOOTH",
"258 -83 OFFCURVE",
"260 -89 OFFCURVE",
"265 -95 CURVE SMOOTH",
"344 -184 LINE"
);
}
);
width = 496;
},
{
layerId = "7BE597F2-1213-4429-94A3-E96FC63EF83E";
paths = (
{
closed = 1;
nodes = (
"282 -169 OFFCURVE",
"283 -169 OFFCURVE",
"284 -168 CURVE SMOOTH",
"334 -118 OFFCURVE",
"341 -69 OFFCURVE",
"342 2 CURVE SMOOTH",
"342 652 LINE SMOOTH",
"342 654 OFFCURVE",
"341 655 OFFCURVE",
"339 655 CURVE SMOOTH",
"329 655 LINE SMOOTH",
"327 655 OFFCURVE",
"326 654 OFFCURVE",
"326 652 CURVE SMOOTH",
"326 267 LINE SMOOTH",
"326 185 OFFCURVE",
"326 103 OFFCURVE",
"326 21 CURVE",
"325 21 LINE",
"295 104 OFFCURVE",
"265 186 OFFCURVE",
"234 269 CURVE SMOOTH",
"93 653 LINE",
"92 655 OFFCURVE",
"91 655 OFFCURVE",
"89 655 CURVE SMOOTH",
"69 655 LINE SMOOTH",
"67 655 OFFCURVE",
"66 654 OFFCURVE",
"66 652 CURVE SMOOTH",
"66 3 LINE SMOOTH",
"66 1 OFFCURVE",
"67 0 OFFCURVE",
"69 0 CURVE SMOOTH",
"79 0 LINE SMOOTH",
"81 0 OFFCURVE",
"82 1 OFFCURVE",
"82 3 CURVE SMOOTH",
"82 373 LINE SMOOTH",
"82 460 OFFCURVE",
"82 547 OFFCURVE",
"82 634 CURVE",
"83 634 LINE",
"115 547 OFFCURVE",
"147 459 OFFCURVE",
"179 372 CURVE SMOOTH",
"315 2 LINE",
"316 0 OFFCURVE",
"317 0 OFFCURVE",
"319 0 CURVE SMOOTH",
"326 0 LINE",
"324 -72 OFFCURVE",
"314 -114 OFFCURVE",
"273 -155 CURVE SMOOTH",
"272 -156 OFFCURVE",
"272 -158 OFFCURVE",
"273 -159 CURVE SMOOTH",
"281 -168 LINE SMOOTH"
);
}
);
width = 408;
},
{
layerId = "061E0761-0390-47CB-9723-8373CF82D209";
paths = (
{
closed = 1;
nodes = (
"281 -188 OFFCURVE",
"286 -187 OFFCURVE",
"289 -185 CURVE SMOOTH",
"343 -147 OFFCURVE",
"359 -79 OFFCURVE",
"361 27 CURVE SMOOTH",
"361 647 LINE SMOOTH",
"361 652 OFFCURVE",
"358 655 OFFCURVE",
"354 655 CURVE SMOOTH",
"305 655 LINE SMOOTH",
"300 655 OFFCURVE",
"298 652 OFFCURVE",
"298 647 CURVE SMOOTH",
"298 269 LINE SMOOTH",
"298 216 OFFCURVE",
"300 136 OFFCURVE",
"303 83 CURVE",
"301 83 LINE",
"290 134 OFFCURVE",
"272 213 OFFCURVE",
"257 265 CURVE SMOOTH",
"149 649 LINE",
"148 653 OFFCURVE",
"145 655 OFFCURVE",
"141 655 CURVE SMOOTH",
"59 655 LINE SMOOTH",
"55 655 OFFCURVE",
"52 652 OFFCURVE",
"52 646 CURVE SMOOTH",
"52 9 LINE SMOOTH",
"52 3 OFFCURVE",
"55 0 OFFCURVE",
"58 0 CURVE SMOOTH",
"109 0 LINE SMOOTH",
"113 0 OFFCURVE",
"115 3 OFFCURVE",
"115 9 CURVE SMOOTH",
"115 372 LINE SMOOTH",
"115 430 OFFCURVE",
"114 514 OFFCURVE",
"112 572 CURVE",
"114 572 LINE",
"126 514 OFFCURVE",
"140 447 OFFCURVE",
"160 377 CURVE SMOOTH",
"265 5 LINE SMOOTH",
"266 2 OFFCURVE",
"269 0 OFFCURVE",
"272 0 CURVE SMOOTH",
"294 0 LINE",
"292 -65 OFFCURVE",
"280 -107 OFFCURVE",
"250 -131 CURVE SMOOTH",
"246 -134 OFFCURVE",
"246 -139 OFFCURVE",
"250 -143 CURVE SMOOTH",
"279 -184 LINE SMOOTH"
);
}
);
width = 412;
}
);
leftKerningGroup = H;
leftMetricsKey = H;
rightKerningGroup = H;
rightMetricsKey = H;
unicode = 014A;
},
{
glyphname = O;
lastChange = "2022-10-25 01:43:39 +0000";
layers = (
{
anchors = (
{
name = bottom;
position = "{244, 527}";
},
{
name = center;
position = "{244, -199}";
},
{
name = ogonek;
position = "{436, 10}";
},
{
name = top;
position = "{244, 655}";
},
{
name = topleft;
position = "{5, 655}";
},
{
name = topright;
position = "{470, 655}";
}
);
layerId = "9DFF46AD-73DE-422E-A6A3-16745129C94E";
paths = (
{
closed = 1;
nodes = (
"389 -6 OFFCURVE",
"466 78 OFFCURVE",
"466 235 CURVE SMOOTH",
"466 419 LINE SMOOTH",
"466 577 OFFCURVE",
"389 661 OFFCURVE",
"244 661 CURVE SMOOTH",
"99 661 OFFCURVE",
"22 577 OFFCURVE",
"22 419 CURVE SMOOTH",
"22 235 LINE SMOOTH",
"22 78 OFFCURVE",
"99 -6 OFFCURVE",
"244 -6 CURVE SMOOTH"
);
},
{
closed = 1;
nodes = (
"203 142 OFFCURVE",
"188 167 OFFCURVE",
"188 240 CURVE SMOOTH",
"188 414 LINE SMOOTH",
"188 488 OFFCURVE",
"203 513 OFFCURVE",
"244 513 CURVE SMOOTH",
"285 513 OFFCURVE",
"300 488 OFFCURVE",
"300 414 CURVE SMOOTH",
"300 240 LINE SMOOTH",
"300 167 OFFCURVE",
"285 142 OFFCURVE",
"244 142 CURVE SMOOTH"
);
}
);
width = 488;
},
{
anchors = (
{
name = bottom;
position = "{196, 0}";
},
{
name = center;
position = "{196, 328}";
},
{
name = ogonek;
position = "{353, 10}";
},
{
name = top;
position = "{196, 655}";
},
{
name = topleft;
position = "{20, 655}";
},
{
name = topright;
position = "{372, 655}";
}
);
guideLines = (
{
angle = 90;
position = "{554, 390}";
},
{
angle = 270;
position = "{98, 328}";
}
);
layerId = "7BE597F2-1213-4429-94A3-E96FC63EF83E";
paths = (
{
closed = 1;
nodes = (
"287 -6 OFFCURVE",
"337 53 OFFCURVE",
"337 171 CURVE SMOOTH",
"337 484 LINE SMOOTH",
"337 602 OFFCURVE",
"287 661 OFFCURVE",
"196 661 CURVE SMOOTH",
"105 661 OFFCURVE",
"55 602 OFFCURVE",
"55 484 CURVE SMOOTH",
"55 171 LINE SMOOTH",
"55 53 OFFCURVE",
"105 -6 OFFCURVE",
"196 -6 CURVE SMOOTH"
);
},
{
closed = 1;
nodes = (
"115 10 OFFCURVE",
"71 63 OFFCURVE",
"71 172 CURVE SMOOTH",
"71 483 LINE SMOOTH",
"71 592 OFFCURVE",
"115 645 OFFCURVE",
"196 645 CURVE SMOOTH",
"277 645 OFFCURVE",
"321 592 OFFCURVE",
"321 483 CURVE SMOOTH",
"321 172 LINE SMOOTH",
"321 63 OFFCURVE",
"277 10 OFFCURVE",
"196 10 CURVE SMOOTH"
);
}
);
width = 392;
},
{
anchors = (
{
name = bottom;
position = "{199, -23}";
},
{
name = center;
position = "{199, 351}";
},
{
name = ogonek;
position = "{355, 10}";
},
{
name = top;
position = "{199, 655}";
},
{
name = topleft;
position = "{32, 655}";
},
{
name = topright;
position = "{381, 655}";
}
);
layerId = "061E0761-0390-47CB-9723-8373CF82D209";
paths = (
{
closed = 1;
nodes = (
"299 -6 OFFCURVE",
"356 55 OFFCURVE",
"356 179 CURVE SMOOTH",
"356 474 LINE SMOOTH",
"356 600 OFFCURVE",
"299 661 OFFCURVE",
"199 661 CURVE SMOOTH",
"99 661 OFFCURVE",
"43 600 OFFCURVE",
"43 474 CURVE SMOOTH",
"43 179 LINE SMOOTH",
"43 55 OFFCURVE",
"99 -6 OFFCURVE",
"199 -6 CURVE SMOOTH"
);
},
{
closed = 1;
nodes = (
"140 57 OFFCURVE",
"108 96 OFFCURVE",
"108 184 CURVE SMOOTH",
"108 470 LINE SMOOTH",
"108 559 OFFCURVE",
"140 598 OFFCURVE",
"199 598 CURVE SMOOTH",
"259 598 OFFCURVE",
"291 559 OFFCURVE",
"291 470 CURVE SMOOTH",
"291 184 LINE SMOOTH",
"291 96 OFFCURVE",
"259 57 OFFCURVE",
"199 57 CURVE SMOOTH"
);
}
);
width = 399;
}
);
leftKerningGroup = O;
rightKerningGroup = O;
unicode = 004F;
},
{
glyphname = Oslash;
lastChange = "2022-10-25 01:43:39 +0000";
layers = (
{
anchors = (
{
name = top;
position = "{239, 655}";
}
);
components = (
{
name = O;
}
);
layerId = "9DFF46AD-73DE-422E-A6A3-16745129C94E";
paths = (
{
closed = 1;
nodes = (
"164 -50 LINE SMOOTH",
"170 -50 OFFCURVE",
"174 -49 OFFCURVE",
"177 -41 CURVE SMOOTH",
"207 43 LINE",
"215 113 LINE",
"338 465 LINE",
"391 567 LINE",
"434 689 LINE SMOOTH",
"437 699 OFFCURVE",
"435 705 OFFCURVE",
"426 705 CURVE SMOOTH",
"327 705 LINE SMOOTH",
"320 705 OFFCURVE",
"316 703 OFFCURVE",
"313 695 CURVE SMOOTH",
"287 620 LINE",
"278 548 LINE",
"161 218 LINE",
"99 92 LINE",
"55 -33 LINE SMOOTH",
"51 -44 OFFCURVE",
"56 -50 OFFCURVE",
"65 -50 CURVE SMOOTH"
);
}
);
width = 488;
},
{
anchors = (
{
name = top;
position = "{196, 655}";
}
);
components = (
{
name = O;
}
);
layerId = "7BE597F2-1213-4429-94A3-E96FC63EF83E";
paths = (
{
closed = 1;
nodes = (
"57 -48 LINE SMOOTH",
"58 -48 OFFCURVE",
"59 -48 OFFCURVE",
"60 -46 CURVE SMOOTH",
"95 43 LINE",
"98 51 LINE",
"305 593 LINE",
"307 599 LINE",
"346 699 LINE SMOOTH",
"347 702 OFFCURVE",
"347 703 OFFCURVE",
"345 703 CURVE SMOOTH",
"334 703 LINE SMOOTH",
"332 703 OFFCURVE",
"332 703 OFFCURVE",
"331 701 CURVE SMOOTH",
"295 609 LINE",
"293 603 LINE",
"87 66 LINE",
"84 59 LINE",
"45 -44 LINE SMOOTH",
"44 -47 OFFCURVE",
"45 -48 OFFCURVE",
"47 -48 CURVE SMOOTH"
);
}
);
width = 392;
},
{
anchors = (
{
name = top;
position = "{199, 655}";
}
);
components = (
{
alignment = -1;
name = O;
}
);
layerId = "061E0761-0390-47CB-9723-8373CF82D209";
paths = (
{
closed = 1;
nodes = (
"88 -50 LINE SMOOTH",
"91 -50 OFFCURVE",
"94 -48 OFFCURVE",
"95 -44 CURVE SMOOTH",
"122 29 LINE",
"133 63 LINE",
"299 524 LINE",
"321 583 LINE",
"362 696 LINE SMOOTH",
"364 702 OFFCURVE",
"362 705 OFFCURVE",
"357 705 CURVE SMOOTH",
"312 705 LINE SMOOTH",
"307 705 OFFCURVE",
"305 704 OFFCURVE",
"304 699 CURVE SMOOTH",
"277 624 LINE",
"266 591 LINE",
"98 127 LINE",
"79 76 LINE",
"37 -42 LINE SMOOTH",
"35 -47 OFFCURVE",
"36 -50 OFFCURVE",
"40 -50 CURVE SMOOTH"
);
}
);
width = 399;
}
);
leftKerningGroup = O;
rightKerningGroup = O;
unicode = 00D8;
},
{
glyphname = OE;
lastChange = "2022-10-25 01:43:39 +0000";
layers = (
{
layerId = "9DFF46AD-73DE-422E-A6A3-16745129C94E";
paths = (
{
closed = 1;
nodes = (
"267 -6 OFFCURVE",
"289 -4 OFFCURVE",
"309 0 CURVE",
"621 0 LINE SMOOTH",
"627 0 OFFCURVE",
"632 6 OFFCURVE",
"632 14 CURVE SMOOTH",
"632 132 LINE SMOOTH",
"632 140 OFFCURVE",
"627 146 OFFCURVE",
"621 146 CURVE SMOOTH",
"445 146 LINE",
"445 260 LINE",
"604 260 LINE SMOOTH",
"610 260 OFFCURVE",
"615 266 OFFCURVE",
"615 274 CURVE SMOOTH",
"615 385 LINE SMOOTH",
"615 393 OFFCURVE",
"610 399 OFFCURVE",
"604 399 CURVE SMOOTH",
"445 399 LINE",
"445 509 LINE",
"621 509 LINE SMOOTH",
"627 509 OFFCURVE",
"632 515 OFFCURVE",
"632 523 CURVE SMOOTH",
"632 641 LINE SMOOTH",
"632 649 OFFCURVE",
"627 655 OFFCURVE",
"621 655 CURVE SMOOTH",
"309 655 LINE",
"289 659 OFFCURVE",
"267 661 OFFCURVE",
"244 661 CURVE SMOOTH",
"99 661 OFFCURVE",
"22 577 OFFCURVE",
"22 419 CURVE SMOOTH",
"22 235 LINE SMOOTH",
"22 78 OFFCURVE",
"99 -6 OFFCURVE",
"244 -6 CURVE SMOOTH"
);
},
{
closed = 1;
nodes = (
"203 142 OFFCURVE",
"188 167 OFFCURVE",
"188 240 CURVE SMOOTH",
"188 414 LINE SMOOTH",
"188 488 OFFCURVE",
"203 513 OFFCURVE",
"244 513 CURVE SMOOTH",
"259 513 OFFCURVE",
"271 510 OFFCURVE",
"279 502 CURVE",
"279 153 LINE",
"270 145 OFFCURVE",
"259 142 OFFCURVE",
"244 142 CURVE SMOOTH"
);
}
);
width = 657;
},
{
layerId = "7BE597F2-1213-4429-94A3-E96FC63EF83E";
paths = (
{
closed = 1;
nodes = (
"225 -6 OFFCURVE",
"241 -4 OFFCURVE",
"262 0 CURVE",
"473 0 LINE SMOOTH",
"474 0 OFFCURVE",
"475 1 OFFCURVE",
"475 3 CURVE SMOOTH",
"475 13 LINE SMOOTH",
"475 15 OFFCURVE",
"474 16 OFFCURVE",
"473 16 CURVE SMOOTH",
"278 16 LINE",
"278 328 LINE",
"459 328 LINE SMOOTH",
"461 328 OFFCURVE",
"462 329 OFFCURVE",
"462 331 CURVE SMOOTH",
"462 341 LINE SMOOTH",
"462 343 OFFCURVE",
"461 344 OFFCURVE",
"459 344 CURVE SMOOTH",
"278 344 LINE",
"278 639 LINE",
"473 639 LINE SMOOTH",
"474 639 OFFCURVE",
"475 640 OFFCURVE",
"475 642 CURVE SMOOTH",
"475 652 LINE SMOOTH",
"475 654 OFFCURVE",
"474 655 OFFCURVE",
"473 655 CURVE SMOOTH",
"262 655 LINE",
"241 659 OFFCURVE",
"225 661 OFFCURVE",
"196 661 CURVE SMOOTH",
"105 661 OFFCURVE",
"55 602 OFFCURVE",
"55 484 CURVE SMOOTH",
"55 171 LINE SMOOTH",
"55 53 OFFCURVE",
"105 -6 OFFCURVE",
"196 -6 CURVE SMOOTH"
);
},
{
closed = 1;
nodes = (
"115 10 OFFCURVE",
"71 63 OFFCURVE",
"71 172 CURVE SMOOTH",
"71 483 LINE SMOOTH",
"71 592 OFFCURVE",
"115 645 OFFCURVE",
"196 645 CURVE SMOOTH",
"223 645 OFFCURVE",
"243 642 OFFCURVE",
"262 639 CURVE",
"262 16 LINE",
"243 13 OFFCURVE",
"223 10 OFFCURVE",
"196 10 CURVE SMOOTH"
);
}
);
width = 522;
},
{
layerId = "061E0761-0390-47CB-9723-8373CF82D209";
paths = (
{
closed = 1;
nodes = (
"221 -6 OFFCURVE",
"242 -3 OFFCURVE",
"258 0 CURVE",
"488 0 LINE SMOOTH",
"492 0 OFFCURVE",
"495 3 OFFCURVE",
"495 9 CURVE SMOOTH",
"495 54 LINE SMOOTH",
"495 59 OFFCURVE",
"492 63 OFFCURVE",
"488 63 CURVE SMOOTH",
"320 63 LINE",
"320 304 LINE",
"474 304 LINE SMOOTH",
"478 304 OFFCURVE",
"481 307 OFFCURVE",
"481 313 CURVE SMOOTH",
"481 355 LINE SMOOTH",
"481 360 OFFCURVE",
"478 364 OFFCURVE",
"474 364 CURVE SMOOTH",
"320 364 LINE",
"320 592 LINE",
"488 592 LINE SMOOTH",
"492 592 OFFCURVE",
"495 596 OFFCURVE",
"495 601 CURVE SMOOTH",
"495 646 LINE SMOOTH",
"495 652 OFFCURVE",
"492 655 OFFCURVE",
"488 655 CURVE SMOOTH",
"258 655 LINE",
"242 658 OFFCURVE",
"221 661 OFFCURVE",
"199 661 CURVE SMOOTH",
"99 661 OFFCURVE",
"43 600 OFFCURVE",
"43 474 CURVE SMOOTH",
"43 179 LINE SMOOTH",
"43 55 OFFCURVE",
"99 -6 OFFCURVE",
"199 -6 CURVE SMOOTH"
);
},
{
closed = 1;
nodes = (
"140 57 OFFCURVE",
"108 96 OFFCURVE",
"108 184 CURVE SMOOTH",
"108 470 LINE SMOOTH",
"108 559 OFFCURVE",
"140 598 OFFCURVE",
"199 598 CURVE SMOOTH",
"222 598 OFFCURVE",
"237 596 OFFCURVE",
"255 593 CURVE",
"255 64 LINE",
"240 60 OFFCURVE",
"222 57 OFFCURVE",
"199 57 CURVE SMOOTH"
);
}
);
width = 536;
}
);
leftKerningGroup = O;
leftMetricsKey = O;
rightKerningGroup = E;
rightMetricsKey = E;
unicode = 0152;
},
{
glyphname = P;
lastChange = "2022-10-25 01:43:39 +0000";
layers = (
{
anchors = (
{
name = bottom;
position = "{210, 0}";
},
{
name = top;
position = "{210, 655}";
}
);
layerId = "9DFF46AD-73DE-422E-A6A3-16745129C94E";
paths = (
{
closed = 1;
nodes = (
"184 0 LINE SMOOTH",
"191 0 OFFCURVE",
"196 6 OFFCURVE",
"196 14 CURVE SMOOTH",
"196 206 LINE",
"208 206 LINE SMOOTH",
"344 206 OFFCURVE",
"418 284 OFFCURVE",
"418 429 CURVE SMOOTH",
"418 582 OFFCURVE",
"350 655 OFFCURVE",
"206 655 CURVE SMOOTH",
"42 655 LINE SMOOTH",
"35 655 OFFCURVE",
"30 649 OFFCURVE",
"30 641 CURVE SMOOTH",
"30 14 LINE SMOOTH",
"30 6 OFFCURVE",
"35 0 OFFCURVE",
"42 0 CURVE SMOOTH"
);
},
{
closed = 1;
nodes = (
"196 509 LINE",
"206 509 LINE SMOOTH",
"239 509 OFFCURVE",
"252 485 OFFCURVE",
"252 429 CURVE SMOOTH",
"252 378 OFFCURVE",
"237 352 OFFCURVE",
"206 352 CURVE SMOOTH",
"196 352 LINE"
);
}
);
width = 438;
},
{
anchors = (
{
name = bottom;
position = "{169, 0}";
},
{
name = top;
position = "{169, 655}";
}
);
layerId = "7BE597F2-1213-4429-94A3-E96FC63EF83E";
paths = (
{
closed = 1;
nodes = (
"79 0 LINE SMOOTH",
"81 0 OFFCURVE",
"82 1 OFFCURVE",
"82 3 CURVE SMOOTH",
"82 277 LINE",
"144 277 LINE SMOOTH",
"258 277 OFFCURVE",
"298 341 OFFCURVE",
"298 465 CURVE SMOOTH",
"298 601 OFFCURVE",
"242 655 OFFCURVE",
"143 655 CURVE SMOOTH",
"69 655 LINE SMOOTH",
"67 655 OFFCURVE",
"66 654 OFFCURVE",
"66 652 CURVE SMOOTH",
"66 3 LINE SMOOTH",
"66 1 OFFCURVE",
"67 0 OFFCURVE",
"69 0 CURVE SMOOTH"
);
},
{
closed = 1;
nodes = (
"82 639 LINE",
"145 639 LINE SMOOTH",
"233 639 OFFCURVE",
"282 588 OFFCURVE",
"282 465 CURVE SMOOTH",
"282 354 OFFCURVE",
"250 293 OFFCURVE",
"143 293 CURVE SMOOTH",
"82 293 LINE"
);
}
);
width = 330;
},
{
anchors = (
{
name = bottom;
position = "{172, 0}";
},
{
name = top;
position = "{172, 655}";
}
);
layerId = "061E0761-0390-47CB-9723-8373CF82D209";
paths = (
{
closed = 1;
nodes = (
"110 0 LINE SMOOTH",
"114 0 OFFCURVE",
"117 3 OFFCURVE",
"117 9 CURVE SMOOTH",
"117 254 LINE",
"161 254 LINE SMOOTH",
"265 254 OFFCURVE",
"319 324 OFFCURVE",
"319 454 CURVE SMOOTH",
"319 592 OFFCURVE",
"268 655 OFFCURVE",
"155 655 CURVE SMOOTH",
"59 655 LINE SMOOTH",
"55 655 OFFCURVE",
"52 652 OFFCURVE",
"52 646 CURVE SMOOTH",
"52 9 LINE SMOOTH",
"52 3 OFFCURVE",
"55 0 OFFCURVE",
"59 0 CURVE SMOOTH"
);
},
{
closed = 1;
nodes = (
"117 593 LINE",
"159 593 LINE SMOOTH",
"223 593 OFFCURVE",
"254 553 OFFCURVE",
"254 452 CURVE SMOOTH",
"254 359 OFFCURVE",
"224 316 OFFCURVE",
"155 316 CURVE SMOOTH",
"117 316 LINE"
);
}
);
width = 343;
}
);
leftKerningGroup = H;
leftMetricsKey = H;
rightKerningGroup = P;
unicode = 0050;
},
{
glyphname = Thorn;
lastChange = "2022-10-25 01:43:39 +0000";
layers = (
{
layerId = "9DFF46AD-73DE-422E-A6A3-16745129C94E";
paths = (
{
closed = 1;
nodes = (
"184 0 LINE SMOOTH",
"191 0 OFFCURVE",
"196 6 OFFCURVE",
"196 14 CURVE SMOOTH",
"196 114 LINE",
"208 114 LINE SMOOTH",
"344 114 OFFCURVE",
"418 192 OFFCURVE",
"418 337 CURVE SMOOTH",
"418 490 OFFCURVE",
"350 563 OFFCURVE",
"206 563 CURVE SMOOTH",
"196 563 LINE",
"196 641 LINE SMOOTH",
"196 649 OFFCURVE",
"191 655 OFFCURVE",
"184 655 CURVE SMOOTH",
"42 655 LINE SMOOTH",
"35 655 OFFCURVE",
"30 649 OFFCURVE",
"30 641 CURVE SMOOTH",
"30 14 LINE SMOOTH",
"30 6 OFFCURVE",
"35 0 OFFCURVE",
"42 0 CURVE SMOOTH"
);
},
{
closed = 1;
nodes = (
"196 417 LINE",
"206 417 LINE SMOOTH",
"239 417 OFFCURVE",
"252 393 OFFCURVE",
"252 337 CURVE SMOOTH",
"252 286 OFFCURVE",
"237 260 OFFCURVE",
"206 260 CURVE SMOOTH",
"196 260 LINE"
);
}
);
width = 438;
},
{
layerId = "7BE597F2-1213-4429-94A3-E96FC63EF83E";
paths = (
{
closed = 1;
nodes = (
"79 0 LINE SMOOTH",
"81 0 OFFCURVE",
"82 1 OFFCURVE",
"82 3 CURVE SMOOTH",
"82 150 LINE",
"144 150 LINE SMOOTH",
"258 150 OFFCURVE",
"298 214 OFFCURVE",
"298 338 CURVE SMOOTH",
"298 474 OFFCURVE",
"242 528 OFFCURVE",
"143 528 CURVE SMOOTH",
"82 528 LINE",
"82 652 LINE SMOOTH",
"82 654 OFFCURVE",
"81 655 OFFCURVE",
"79 655 CURVE SMOOTH",
"69 655 LINE SMOOTH",
"67 655 OFFCURVE",
"66 654 OFFCURVE",
"66 652 CURVE SMOOTH",
"66 3 LINE SMOOTH",
"66 1 OFFCURVE",
"67 0 OFFCURVE",
"69 0 CURVE SMOOTH"
);
},
{
closed = 1;
nodes = (
"82 512 LINE",
"145 512 LINE SMOOTH",
"233 512 OFFCURVE",
"282 461 OFFCURVE",
"282 338 CURVE SMOOTH",
"282 227 OFFCURVE",
"250 166 OFFCURVE",
"143 166 CURVE SMOOTH",
"82 166 LINE"
);
}
);
width = 330;
},
{
layerId = "061E0761-0390-47CB-9723-8373CF82D209";
paths = (
{
closed = 1;
nodes = (
"110 0 LINE SMOOTH",
"114 0 OFFCURVE",
"117 3 OFFCURVE",
"117 9 CURVE SMOOTH",
"117 139 LINE",
"161 139 LINE SMOOTH",
"265 139 OFFCURVE",
"319 209 OFFCURVE",
"319 340 CURVE SMOOTH",
"319 477 OFFCURVE",
"268 540 OFFCURVE",
"155 540 CURVE SMOOTH",
"117 540 LINE",
"117 646 LINE SMOOTH",
"117 652 OFFCURVE",
"114 655 OFFCURVE",
"110 655 CURVE SMOOTH",
"59 655 LINE SMOOTH",
"55 655 OFFCURVE",
"52 652 OFFCURVE",
"52 646 CURVE SMOOTH",
"52 9 LINE SMOOTH",
"52 3 OFFCURVE",
"55 0 OFFCURVE",
"59 0 CURVE SMOOTH"
);
},
{
closed = 1;
nodes = (
"117 479 LINE",
"159 479 LINE SMOOTH",
"223 479 OFFCURVE",
"254 439 OFFCURVE",
"254 337 CURVE SMOOTH",
"254 244 OFFCURVE",
"224 202 OFFCURVE",
"155 202 CURVE SMOOTH",
"117 202 LINE"
);
}
);
width = 343;
}
);
leftKerningGroup = H;
leftMetricsKey = H;
rightKerningGroup = Thorn;
rightMetricsKey = P;
unicode = 00DE;
},
{
glyphname = Q;
lastChange = "2022-10-25 01:43:39 +0000";
layers = (
{
anchors = (
{
name = bottom;
position = "{238, 0}";
},
{
name = top;
position = "{238, 655}";
}
);
components = (
{
name = O;
}
);
layerId = "9DFF46AD-73DE-422E-A6A3-16745129C94E";
paths = (
{
closed = 1;
nodes = (
"381 -184 OFFCURVE",
"403 -178 OFFCURVE",
"415 -171 CURVE SMOOTH",
"422 -167 OFFCURVE",
"423 -161 OFFCURVE",
"423 -153 CURVE SMOOTH",
"423 -70 LINE SMOOTH",
"423 -61 OFFCURVE",
"419 -55 OFFCURVE",
"410 -58 CURVE SMOOTH",
"402 -61 OFFCURVE",
"393 -64 OFFCURVE",
"379 -64 CURVE SMOOTH",
"357 -64 OFFCURVE",
"346 -47 OFFCURVE",
"344 42 CURVE SMOOTH",
"344 52 OFFCURVE",
"338 57 OFFCURVE",
"332 57 CURVE SMOOTH",
"225 56 LINE SMOOTH",
"218 56 OFFCURVE",
"213 51 OFFCURVE",
"213 42 CURVE SMOOTH",
"213 -113 OFFCURVE",
"252 -184 OFFCURVE",
"346 -184 CURVE SMOOTH"
);
}
);
width = 488;
},
{
anchors = (
{
name = bottom;
position = "{191, 0}";
},
{
name = top;
position = "{191, 655}";
}
);
components = (
{
name = O;
}
);
layerId = "7BE597F2-1213-4429-94A3-E96FC63EF83E";
paths = (
{
closed = 1;
nodes = (
"277 -172 OFFCURVE",
"285 -170 OFFCURVE",
"291 -167 CURVE SMOOTH",
"293 -166 OFFCURVE",
"294 -165 OFFCURVE",
"294 -163 CURVE SMOOTH",
"294 -152 LINE SMOOTH",
"294 -150 OFFCURVE",
"293 -149 OFFCURVE",
"291 -150 CURVE SMOOTH",
"285 -154 OFFCURVE",
"278 -156 OFFCURVE",
"267 -156 CURVE SMOOTH",
"235 -156 OFFCURVE",
"214 -92 OFFCURVE",
"220 -3 CURVE SMOOTH",
"220 -1 OFFCURVE",
"220 0 OFFCURVE",
"218 0 CURVE SMOOTH",
"207 0 LINE SMOOTH",
"206 0 OFFCURVE",
"205 -1 OFFCURVE",
"205 -3 CURVE SMOOTH",
"201 -104 OFFCURVE",
"220 -172 OFFCURVE",
"267 -172 CURVE SMOOTH"
);
}
);
width = 392;
},
{
anchors = (
{
name = bottom;
position = "{194, 0}";
},
{
name = top;
position = "{194, 655}";
}
);
components = (
{
alignment = -1;
name = O;
}
);
layerId = "061E0761-0390-47CB-9723-8373CF82D209";
paths = (
{
closed = 1;
nodes = (
"289 -180 OFFCURVE",
"299 -177 OFFCURVE",
"306 -174 CURVE SMOOTH",
"312 -172 OFFCURVE",
"313 -168 OFFCURVE",
"313 -163 CURVE SMOOTH",
"313 -120 LINE SMOOTH",
"313 -114 OFFCURVE",
"311 -112 OFFCURVE",
"307 -113 CURVE SMOOTH",
"300 -114 OFFCURVE",
"294 -117 OFFCURVE",
"286 -117 CURVE SMOOTH",
"261 -117 OFFCURVE",
"246 -90 OFFCURVE",
"248 23 CURVE SMOOTH",
"248 29 OFFCURVE",
"247 32 OFFCURVE",
"243 32 CURVE SMOOTH",
"192 29 LINE SMOOTH",
"189 29 OFFCURVE",
"183 26 OFFCURVE",
"183 21 CURVE SMOOTH",
"181 -134 OFFCURVE",
"218 -180 OFFCURVE",
"274 -180 CURVE SMOOTH"
);
}
);
width = 399;
}
);
leftKerningGroup = O;
leftMetricsKey = O;
rightKerningGroup = O;
rightMetricsKey = O;
unicode = 0051;
},
{
glyphname = R;
lastChange = "2022-10-25 01:43:39 +0000";
layers = (
{
anchors = (
{
name = bottom;
position = "{245, 0}";
},
{
name = top;
position = "{208, 655}";
}
);
layerId = "9DFF46AD-73DE-422E-A6A3-16745129C94E";
paths = (
{
closed = 1;
nodes = (
"184 0 LINE SMOOTH",
"191 0 OFFCURVE",
"196 6 OFFCURVE",
"196 14 CURVE SMOOTH",
"196 239 LINE",
"206 239 LINE",
"285 9 LINE SMOOTH",
"287 3 OFFCURVE",
"292 0 OFFCURVE",
"300 0 CURVE SMOOTH",
"455 0 LINE SMOOTH",
"464 0 OFFCURVE",
"467 6 OFFCURVE",
"463 17 CURVE SMOOTH",
"359 268 LINE",
"360 270 LINE",
"413 299 OFFCURVE",
"436 357 OFFCURVE",
"436 450 CURVE SMOOTH",
"436 595 OFFCURVE",
"368 655 OFFCURVE",
"218 655 CURVE SMOOTH",
"42 655 LINE SMOOTH",
"35 655 OFFCURVE",
"30 649 OFFCURVE",
"30 641 CURVE SMOOTH",
"30 14 LINE SMOOTH",
"30 6 OFFCURVE",
"35 0 OFFCURVE",
"42 0 CURVE SMOOTH"
);
},
{
closed = 1;
nodes = (
"196 509 LINE",
"218 509 LINE SMOOTH",
"254 509 OFFCURVE",
"270 487 OFFCURVE",
"270 443 CURVE SMOOTH",
"270 396 OFFCURVE",
"254 374 OFFCURVE",
"218 374 CURVE SMOOTH",
"196 374 LINE"
);
}
);
width = 470;
},
{
anchors = (
{
name = bottom;
position = "{185, 0}";
},
{
name = top;
position = "{164, 655}";
}
);
layerId = "7BE597F2-1213-4429-94A3-E96FC63EF83E";
paths = (
{
closed = 1;
nodes = (
"79 0 LINE SMOOTH",
"81 0 OFFCURVE",
"82 1 OFFCURVE",
"82 3 CURVE SMOOTH",
"82 303 LINE",
"194 303 LINE",
"307 2 LINE SMOOTH",
"308 0 OFFCURVE",
"309 0 OFFCURVE",
"310 0 CURVE SMOOTH",
"322 0 LINE SMOOTH",
"324 0 OFFCURVE",
"325 2 OFFCURVE",
"324 4 CURVE SMOOTH",
"211 307 LINE",
"211 308 LINE",
"271 322 OFFCURVE",
"307 384 OFFCURVE",
"307 479 CURVE SMOOTH",
"307 604 OFFCURVE",
"258 655 OFFCURVE",
"165 655 CURVE SMOOTH",
"69 655 LINE SMOOTH",
"67 655 OFFCURVE",
"66 654 OFFCURVE",
"66 652 CURVE SMOOTH",
"66 3 LINE SMOOTH",
"66 1 OFFCURVE",
"67 0 OFFCURVE",
"69 0 CURVE SMOOTH"
);
},
{
closed = 1;
nodes = (
"82 639 LINE",
"165 639 LINE SMOOTH",
"247 639 OFFCURVE",
"291 591 OFFCURVE",
"291 479 CURVE SMOOTH",
"291 379 OFFCURVE",
"254 319 OFFCURVE",
"174 319 CURVE SMOOTH",
"82 319 LINE"
);
}
);
width = 356;
},
{
anchors = (
{
name = bottom;
position = "{192, 0}";
},
{
name = top;
position = "{168, 655}";
}
);
layerId = "061E0761-0390-47CB-9723-8373CF82D209";
paths = (
{
closed = 1;
nodes = (
"110 0 LINE SMOOTH",
"114 0 OFFCURVE",
"117 3 OFFCURVE",
"117 9 CURVE SMOOTH",
"117 285 LINE",
"184 285 LINE",
"281 6 LINE SMOOTH",
"283 2 OFFCURVE",
"286 0 OFFCURVE",
"289 0 CURVE SMOOTH",
"344 0 LINE SMOOTH",
"351 0 OFFCURVE",
"352 4 OFFCURVE",
"351 11 CURVE SMOOTH",
"248 299 LINE",
"248 300 LINE",
"298 320 OFFCURVE",
"329 377 OFFCURVE",
"329 477 CURVE SMOOTH",
"329 597 OFFCURVE",
"279 655 OFFCURVE",
"169 655 CURVE SMOOTH",
"59 655 LINE SMOOTH",
"55 655 OFFCURVE",
"52 652 OFFCURVE",
"52 646 CURVE SMOOTH",
"52 9 LINE SMOOTH",
"52 3 OFFCURVE",
"55 0 OFFCURVE",
"59 0 CURVE SMOOTH"
);
},
{
closed = 1;
nodes = (
"117 592 LINE",
"168 592 LINE SMOOTH",
"233 592 OFFCURVE",
"264 559 OFFCURVE",
"264 472 CURVE SMOOTH",
"264 386 OFFCURVE",
"237 345 OFFCURVE",
"171 345 CURVE SMOOTH",
"117 345 LINE"
);
}
);
width = 372;
}
);
leftKerningGroup = H;
leftMetricsKey = H;
rightKerningGroup = R;
unicode = 0052;
},
{
glyphname = S;
lastChange = "2022-10-25 01:43:39 +0000";
layers = (
{
anchors = (
{
name = bottom;
position = "{216, 0}";
},
{
name = top;
position = "{206, 655}";
}
);
layerId = "9DFF46AD-73DE-422E-A6A3-16745129C94E";
paths = (
{
closed = 1;
nodes = (
"345 -6 OFFCURVE",
"403 56 OFFCURVE",
"404 173 CURVE SMOOTH",
"405 263 OFFCURVE",
"380 304 OFFCURVE",
"305 361 CURVE SMOOTH",
"218 427 LINE SMOOTH",
"199 441 OFFCURVE",
"183 457 OFFCURVE",
"183 486 CURVE SMOOTH",
"183 511 OFFCURVE",
"192 521 OFFCURVE",
"209 521 CURVE SMOOTH",
"230 521 OFFCURVE",
"234 490 OFFCURVE",
"231 463 CURVE SMOOTH",
"230 452 OFFCURVE",
"235 446 OFFCURVE",
"242 446 CURVE SMOOTH",
"383 446 LINE SMOOTH",
"390 446 OFFCURVE",
"395 452 OFFCURVE",
"396 463 CURVE SMOOTH",
"406 591 OFFCURVE",
"341 661 OFFCURVE",
"202 661 CURVE SMOOTH",
"77 661 OFFCURVE",
"18 600 OFFCURVE",
"17 490 CURVE SMOOTH",
"16 405 OFFCURVE",
"48 357 OFFCURVE",
"118 304 CURVE SMOOTH",
"206 237 LINE SMOOTH",
"227 221 OFFCURVE",
"238 198 OFFCURVE",
"238 175 CURVE SMOOTH",
"238 146 OFFCURVE",
"229 134 OFFCURVE",
"208 134 CURVE SMOOTH",
"185 134 OFFCURVE",
"177 163 OFFCURVE",
"180 200 CURVE SMOOTH",
"181 210 OFFCURVE",
"177 214 OFFCURVE",
"170 214 CURVE SMOOTH",
"31 214 LINE SMOOTH",
"25 214 OFFCURVE",
"20 210 OFFCURVE",
"19 199 CURVE SMOOTH",
"7 66 OFFCURVE",
"65 -6 OFFCURVE",
"206 -6 CURVE SMOOTH"
);
}
);
width = 423;
},
{
anchors = (
{
name = bottom;
position = "{163, 0}";
},
{
name = top;
position = "{167, 655}";
}
);
layerId = "7BE597F2-1213-4429-94A3-E96FC63EF83E";
paths = (
{
closed = 1;
nodes = (
"251 -6 OFFCURVE",
"292 41 OFFCURVE",
"292 142 CURVE SMOOTH",
"292 231 OFFCURVE",
"271 273 OFFCURVE",
"202 325 CURVE SMOOTH",
"133 377 LINE SMOOTH",
"79 417 OFFCURVE",
"61 457 OFFCURVE",
"61 527 CURVE SMOOTH",
"61 602 OFFCURVE",
"99 645 OFFCURVE",
"164 645 CURVE SMOOTH",
"237 645 OFFCURVE",
"274 592 OFFCURVE",
"270 492 CURVE SMOOTH",
"270 490 OFFCURVE",
"270 489 OFFCURVE",
"272 489 CURVE SMOOTH",
"284 489 LINE SMOOTH",
"285 489 OFFCURVE",
"286 490 OFFCURVE",
"286 492 CURVE SMOOTH",
"291 603 OFFCURVE",
"249 661 OFFCURVE",
"164 661 CURVE SMOOTH",
"90 661 OFFCURVE",
"45 611 OFFCURVE",
"45 527 CURVE SMOOTH",
"45 450 OFFCURVE",
"66 407 OFFCURVE",
"125 363 CURVE SMOOTH",
"193 312 LINE SMOOTH",
"257 265 OFFCURVE",
"276 224 OFFCURVE",
"276 142 CURVE SMOOTH",
"276 50 OFFCURVE",
"242 10 OFFCURVE",
"163 10 CURVE SMOOTH",
"83 10 OFFCURVE",
"48 60 OFFCURVE",
"53 167 CURVE SMOOTH",
"53 169 OFFCURVE",
"52 170 OFFCURVE",
"50 170 CURVE SMOOTH",
"40 170 LINE SMOOTH",
"38 170 OFFCURVE",
"37 169 OFFCURVE",
"37 167 CURVE SMOOTH",
"33 49 OFFCURVE",
"73 -6 OFFCURVE",
"163 -6 CURVE SMOOTH"
);
}
);
width = 334;
},
{
anchors = (
{
name = bottom;
position = "{171, 0}";
},
{
name = top;
position = "{172, 655}";
}
);
layerId = "061E0761-0390-47CB-9723-8373CF82D209";
paths = (
{
closed = 1;
nodes = (
"267 -6 OFFCURVE",
"313 55 OFFCURVE",
"313 157 CURVE SMOOTH",
"313 241 OFFCURVE",
"290 289 OFFCURVE",
"233 333 CURVE SMOOTH",
"155 394 LINE SMOOTH",
"116 425 OFFCURVE",
"98 459 OFFCURVE",
"98 513 CURVE SMOOTH",
"99 570 OFFCURVE",
"126 598 OFFCURVE",
"169 598 CURVE SMOOTH",
"220 598 OFFCURVE",
"247 556 OFFCURVE",
"239 482 CURVE SMOOTH",
"238 474 OFFCURVE",
"241 471 OFFCURVE",
"245 471 CURVE SMOOTH",
"296 471 LINE SMOOTH",
"301 471 OFFCURVE",
"303 474 OFFCURVE",
"303 482 CURVE SMOOTH",
"314 593 OFFCURVE",
"266 661 OFFCURVE",
"168 661 CURVE SMOOTH",
"84 661 OFFCURVE",
"34 606 OFFCURVE",
"33 511 CURVE SMOOTH",
"33 435 OFFCURVE",
"58 384 OFFCURVE",
"113 341 CURVE SMOOTH",
"194 277 LINE SMOOTH",
"234 247 OFFCURVE",
"248 212 OFFCURVE",
"248 154 CURVE SMOOTH",
"248 87 OFFCURVE",
"222 57 OFFCURVE",
"170 57 CURVE SMOOTH",
"113 57 OFFCURVE",
"84 96 OFFCURVE",
"93 178 CURVE SMOOTH",
"94 185 OFFCURVE",
"91 188 OFFCURVE",
"86 188 CURVE SMOOTH",
"36 188 LINE SMOOTH",
"31 188 OFFCURVE",
"30 186 OFFCURVE",
"29 178 CURVE SMOOTH",
"20 72 OFFCURVE",
"59 -6 OFFCURVE",
"167 -6 CURVE SMOOTH"
);
}
);
width = 341;
}
);
leftKerningGroup = S;
rightKerningGroup = S;
unicode = 0053;
},
{
glyphname = Germandbls;
lastChange = "2022-10-25 01:43:39 +0000";
layers = (
{
layerId = "9DFF46AD-73DE-422E-A6A3-16745129C94E";
paths = (
{
closed = 1;
nodes = (
"484 -6 OFFCURVE",
"539 59 OFFCURVE",
"540 196 CURVE SMOOTH",
"541 295 OFFCURVE",
"503 352 OFFCURVE",
"421 377 CURVE",
"498 630 LINE SMOOTH",
"502 644 OFFCURVE",
"497 655 OFFCURVE",
"486 655 CURVE SMOOTH",
"43 655 LINE SMOOTH",
"35 655 OFFCURVE",
"30 649 OFFCURVE",
"30 641 CURVE SMOOTH",
"30 14 LINE SMOOTH",
"30 6 OFFCURVE",
"35 0 OFFCURVE",
"43 0 CURVE SMOOTH",
"183 0 LINE SMOOTH",
"191 0 OFFCURVE",
"196 6 OFFCURVE",
"196 14 CURVE SMOOTH",
"196 509 LINE",
"301 509 LINE",
"259 355 LINE SMOOTH",
"257 348 OFFCURVE",
"256 341 OFFCURVE",
"256 333 CURVE SMOOTH",
"256 285 LINE SMOOTH",
"256 276 OFFCURVE",
"260 272 OFFCURVE",
"269 272 CURVE SMOOTH",
"303 272 LINE SMOOTH",
"356 272 OFFCURVE",
"374 253 OFFCURVE",
"374 199 CURVE SMOOTH",
"374 147 OFFCURVE",
"371 134 OFFCURVE",
"358 134 CURVE SMOOTH",
"346 134 OFFCURVE",
"343 143 OFFCURVE",
"345 167 CURVE SMOOTH",
"346 175 OFFCURVE",
"343 180 OFFCURVE",
"335 180 CURVE SMOOTH",
"233 182 LINE SMOOTH",
"226 182 OFFCURVE",
"221 177 OFFCURVE",
"220 167 CURVE SMOOTH",
"210 48 OFFCURVE",
"256 -6 OFFCURVE",
"368 -6 CURVE SMOOTH"
);
}
);
width = 552;
},
{
layerId = "7BE597F2-1213-4429-94A3-E96FC63EF83E";
paths = (
{
closed = 1;
nodes = (
"321 -6 OFFCURVE",
"358 65 OFFCURVE",
"358 187 CURVE SMOOTH",
"358 323 OFFCURVE",
"314 375 OFFCURVE",
"214 375 CURVE",
"316 648 LINE SMOOTH",
"318 652 OFFCURVE",
"317 655 OFFCURVE",
"314 655 CURVE SMOOTH",
"68 655 LINE SMOOTH",
"67 655 OFFCURVE",
"66 654 OFFCURVE",
"66 652 CURVE SMOOTH",
"66 3 LINE SMOOTH",
"66 1 OFFCURVE",
"67 0 OFFCURVE",
"68 0 CURVE SMOOTH",
"80 0 LINE SMOOTH",
"82 0 OFFCURVE",
"82 1 OFFCURVE",
"82 3 CURVE SMOOTH",
"82 639 LINE",
"295 639 LINE",
"195 369 LINE SMOOTH",
"194 367 OFFCURVE",
"194 366 OFFCURVE",
"194 364 CURVE SMOOTH",
"194 362 LINE SMOOTH",
"194 360 OFFCURVE",
"195 359 OFFCURVE",
"197 359 CURVE SMOOTH",
"217 359 LINE SMOOTH",
"305 359 OFFCURVE",
"342 308 OFFCURVE",
"342 187 CURVE SMOOTH",
"342 76 OFFCURVE",
"312 10 OFFCURVE",
"248 10 CURVE SMOOTH",
"193 10 OFFCURVE",
"165 48 OFFCURVE",
"165 122 CURVE SMOOTH",
"165 124 OFFCURVE",
"164 125 OFFCURVE",
"163 125 CURVE SMOOTH",
"152 125 LINE SMOOTH",
"150 125 OFFCURVE",
"149 124 OFFCURVE",
"149 122 CURVE SMOOTH",
"149 39 OFFCURVE",
"182 -6 OFFCURVE",
"248 -6 CURVE SMOOTH"
);
}
);
width = 396;
},
{
layerId = "061E0761-0390-47CB-9723-8373CF82D209";
paths = (
{
closed = 1;
nodes = (
"344 -6 OFFCURVE",
"381 57 OFFCURVE",
"381 195 CURVE SMOOTH",
"381 321 OFFCURVE",
"344 382 OFFCURVE",
"267 389 CURVE",
"351 634 LINE SMOOTH",
"355 645 OFFCURVE",
"354 655 OFFCURVE",
"346 655 CURVE SMOOTH",
"58 655 LINE SMOOTH",
"55 655 OFFCURVE",
"52 652 OFFCURVE",
"52 646 CURVE SMOOTH",
"52 9 LINE SMOOTH",
"52 3 OFFCURVE",
"55 0 OFFCURVE",
"58 0 CURVE SMOOTH",
"111 0 LINE SMOOTH",
"114 0 OFFCURVE",
"117 3 OFFCURVE",
"117 9 CURVE SMOOTH",
"117 592 LINE",
"265 592 LINE",
"199 385 LINE SMOOTH",
"197 379 OFFCURVE",
"196 377 OFFCURVE",
"196 372 CURVE SMOOTH",
"196 341 LINE SMOOTH",
"196 336 OFFCURVE",
"198 334 OFFCURVE",
"203 334 CURVE SMOOTH",
"226 334 LINE SMOOTH",
"290 334 OFFCURVE",
"316 293 OFFCURVE",
"316 194 CURVE SMOOTH",
"316 93 OFFCURVE",
"301 57 OFFCURVE",
"260 57 CURVE SMOOTH",
"228 57 OFFCURVE",
"213 80 OFFCURVE",
"215 127 CURVE SMOOTH",
"215 135 OFFCURVE",
"213 137 OFFCURVE",
"208 137 CURVE SMOOTH",
"159 137 LINE SMOOTH",
"154 137 OFFCURVE",
"152 135 OFFCURVE",
"151 127 CURVE SMOOTH",
"147 41 OFFCURVE",
"185 -6 OFFCURVE",
"260 -6 CURVE SMOOTH"
);
}
);
width = 404;
}
);
leftKerningGroup = H;
leftMetricsKey = H;
rightKerningGroup = S;
unicode = 1E9E;
},
{
glyphname = T;
lastChange = "2022-10-25 01:43:39 +0000";
layers = (
{
anchors = (
{
name = bottom;
position = "{211, 0}";
},
{
name = center;
position = "{214, 328}";
},
{
name = top;
position = "{214, 655}";
}
);
layerId = "9DFF46AD-73DE-422E-A6A3-16745129C94E";
paths = (
{
closed = 1;
nodes = (
"282 0 LINE SMOOTH",
"290 0 OFFCURVE",
"294 6 OFFCURVE",
"294 14 CURVE SMOOTH",
"294 509 LINE",
"397 509 LINE SMOOTH",
"404 509 OFFCURVE",
"409 515 OFFCURVE",
"409 523 CURVE SMOOTH",
"409 641 LINE SMOOTH",
"409 649 OFFCURVE",
"404 655 OFFCURVE",
"397 655 CURVE SMOOTH",
"24 655 LINE SMOOTH",
"17 655 OFFCURVE",
"12 649 OFFCURVE",
"12 641 CURVE SMOOTH",
"12 523 LINE SMOOTH",
"12 515 OFFCURVE",
"17 509 OFFCURVE",
"24 509 CURVE SMOOTH",
"128 509 LINE",
"128 14 LINE SMOOTH",
"128 6 OFFCURVE",
"132 0 OFFCURVE",
"140 0 CURVE SMOOTH"
);
}
);
width = 421;
},
{
anchors = (
{
name = bottom;
position = "{161, 0}";
},
{
name = center;
position = "{160, 328}";
},
{
name = top;
position = "{160, 655}";
}
);
layerId = "7BE597F2-1213-4429-94A3-E96FC63EF83E";
paths = (
{
closed = 1;
nodes = (
"165 0 LINE SMOOTH",
"167 0 OFFCURVE",
"168 1 OFFCURVE",
"168 3 CURVE SMOOTH",
"168 639 LINE",
"293 639 LINE SMOOTH",
"295 639 OFFCURVE",
"296 640 OFFCURVE",
"296 642 CURVE SMOOTH",
"296 652 LINE SMOOTH",
"296 654 OFFCURVE",
"295 655 OFFCURVE",
"293 655 CURVE SMOOTH",
"27 655 LINE SMOOTH",
"25 655 OFFCURVE",
"24 654 OFFCURVE",
"24 652 CURVE SMOOTH",
"24 642 LINE SMOOTH",
"24 640 OFFCURVE",
"25 639 OFFCURVE",
"27 639 CURVE SMOOTH",
"152 639 LINE",
"152 3 LINE SMOOTH",
"152 1 OFFCURVE",
"153 0 OFFCURVE",
"155 0 CURVE SMOOTH"
);
}
);
width = 320;
},
{
anchors = (
{
name = bottom;
position = "{163, 0}";
},
{
name = center;
position = "{164, 328}";
},
{
name = top;
position = "{164, 655}";
}
);
layerId = "061E0761-0390-47CB-9723-8373CF82D209";
paths = (
{
closed = 1;
nodes = (
"187 0 LINE SMOOTH",
"192 0 OFFCURVE",
"195 3 OFFCURVE",
"195 9 CURVE SMOOTH",
"195 592 LINE",
"300 592 LINE SMOOTH",
"305 592 OFFCURVE",
"307 596 OFFCURVE",
"307 601 CURVE SMOOTH",
"307 646 LINE SMOOTH",
"307 652 OFFCURVE",
"305 655 OFFCURVE",
"300 655 CURVE SMOOTH",
"25 655 LINE SMOOTH",
"20 655 OFFCURVE",
"17 652 OFFCURVE",
"17 646 CURVE SMOOTH",
"17 601 LINE SMOOTH",
"17 596 OFFCURVE",
"20 592 OFFCURVE",
"25 592 CURVE SMOOTH",
"130 592 LINE",
"130 9 LINE SMOOTH",
"130 3 OFFCURVE",
"132 0 OFFCURVE",
"137 0 CURVE SMOOTH"
);
}
);
width = 324;
}
);
leftKerningGroup = T;
rightKerningGroup = T;
unicode = 0054;
},
{
glyphname = Tbar;
lastChange = "2022-10-25 01:43:39 +0000";
layers = (
{
components = (
{
name = T;
}
);
layerId = "9DFF46AD-73DE-422E-A6A3-16745129C94E";
paths = (
{
closed = 1;
nodes = (
"123 258 LINE",
"289 258 LINE",
"336 258 LINE SMOOTH",
"343 258 OFFCURVE",
"348 264 OFFCURVE",
"348 272 CURVE SMOOTH",
"348 364 LINE SMOOTH",
"348 372 OFFCURVE",
"344 377 OFFCURVE",
"336 377 CURVE SMOOTH",
"76 377 LINE SMOOTH",
"68 377 OFFCURVE",
"64 372 OFFCURVE",
"64 364 CURVE SMOOTH",
"64 272 LINE SMOOTH",
"64 264 OFFCURVE",
"69 258 OFFCURVE",
"76 258 CURVE SMOOTH"
);
}
);
width = 421;
},
{
components = (
{
name = T;
}
);
layerId = "7BE597F2-1213-4429-94A3-E96FC63EF83E";
paths = (
{
closed = 1;
nodes = (
"152 328 LINE",
"168 328 LINE",
"250 328 LINE SMOOTH",
"252 328 OFFCURVE",
"253 329 OFFCURVE",
"253 331 CURVE SMOOTH",
"253 341 LINE SMOOTH",
"253 343 OFFCURVE",
"252 344 OFFCURVE",
"250 344 CURVE SMOOTH",
"70 344 LINE SMOOTH",
"68 344 OFFCURVE",
"67 343 OFFCURVE",
"67 341 CURVE SMOOTH",
"67 331 LINE SMOOTH",
"67 329 OFFCURVE",
"68 328 OFFCURVE",
"70 328 CURVE SMOOTH"
);
}
);
width = 320;
},
{
components = (
{
alignment = -1;
name = T;
}
);
layerId = "061E0761-0390-47CB-9723-8373CF82D209";
paths = (
{
closed = 1;
nodes = (
"130 309 LINE",
"195 309 LINE",
"252 309 LINE SMOOTH",
"256 309 OFFCURVE",
"259 312 OFFCURVE",
"259 318 CURVE SMOOTH",
"259 355 LINE SMOOTH",
"259 360 OFFCURVE",
"256 364 OFFCURVE",
"252 364 CURVE SMOOTH",
"72 364 LINE SMOOTH",
"68 364 OFFCURVE",
"65 360 OFFCURVE",
"65 355 CURVE SMOOTH",
"65 318 LINE SMOOTH",
"65 312 OFFCURVE",
"68 309 OFFCURVE",
"72 309 CURVE SMOOTH"
);
}
);
width = 324;
}
);
leftKerningGroup = T;
leftMetricsKey = "=T";
rightKerningGroup = T;
rightMetricsKey = "=T";
unicode = 0166;
},
{
glyphname = U;
lastChange = "2022-10-25 01:43:39 +0000";
layers = (
{
anchors = (
{
name = bottom;
position = "{243, 0}";
},
{
name = ogonek;
position = "{345, 10}";
},
{
name = top;
position = "{243, 655}";
},
{
name = topleft;
position = "{56, 655}";
},
{
name = topright;
position = "{464, 655}";
}
);
layerId = "9DFF46AD-73DE-422E-A6A3-16745129C94E";
paths = (
{
closed = 1;
nodes = (
"387 -6 OFFCURVE",
"460 73 OFFCURVE",
"460 235 CURVE SMOOTH",
"460 641 LINE SMOOTH",
"460 649 OFFCURVE",
"455 655 OFFCURVE",
"448 655 CURVE SMOOTH",
"305 655 LINE SMOOTH",
"299 655 OFFCURVE",
"294 649 OFFCURVE",
"294 641 CURVE SMOOTH",
"294 240 LINE SMOOTH",
"294 162 OFFCURVE",
"279 142 OFFCURVE",
"244 142 CURVE SMOOTH",
"209 142 OFFCURVE",
"194 162 OFFCURVE",
"194 240 CURVE SMOOTH",
"194 641 LINE SMOOTH",
"194 649 OFFCURVE",
"189 655 OFFCURVE",
"183 655 CURVE SMOOTH",
"40 655 LINE SMOOTH",
"33 655 OFFCURVE",
"28 649 OFFCURVE",
"28 641 CURVE SMOOTH",
"28 235 LINE SMOOTH",
"28 73 OFFCURVE",
"101 -6 OFFCURVE",
"244 -6 CURVE SMOOTH"
);
}
);
width = 488;
},
{
anchors = (
{
name = bottom;
position = "{197, 0}";
},
{
name = ogonek;
position = "{250, 10}";
},
{
name = top;
position = "{197, 655}";
},
{
name = topleft;
position = "{47, 655}";
},
{
name = topright;
position = "{378, 655}";
}
);
layerId = "7BE597F2-1213-4429-94A3-E96FC63EF83E";
paths = (
{
closed = 1;
nodes = (
"291 -6 OFFCURVE",
"332 59 OFFCURVE",
"332 195 CURVE SMOOTH",
"332 652 LINE SMOOTH",
"332 654 OFFCURVE",
"331 655 OFFCURVE",
"329 655 CURVE SMOOTH",
"319 655 LINE SMOOTH",
"317 655 OFFCURVE",
"316 654 OFFCURVE",
"316 652 CURVE SMOOTH",
"316 195 LINE SMOOTH",
"316 70 OFFCURVE",
"280 10 OFFCURVE",
"197 10 CURVE SMOOTH",
"114 10 OFFCURVE",
"78 70 OFFCURVE",
"78 195 CURVE SMOOTH",
"78 652 LINE SMOOTH",
"78 654 OFFCURVE",
"77 655 OFFCURVE",
"75 655 CURVE SMOOTH",
"65 655 LINE SMOOTH",
"63 655 OFFCURVE",
"62 654 OFFCURVE",
"62 652 CURVE SMOOTH",
"62 195 LINE SMOOTH",
"62 59 OFFCURVE",
"103 -6 OFFCURVE",
"197 -6 CURVE SMOOTH"
);
}
);
width = 394;
},
{
anchors = (
{
name = bottom;
position = "{200, 0}";
},
{
name = ogonek;
position = "{263, 10}";
},
{
name = top;
position = "{200, 655}";
},
{
name = topleft;
position = "{49, 655}";
},
{
name = topright;
position = "{383, 655}";
}
);
layerId = "061E0761-0390-47CB-9723-8373CF82D209";
paths = (
{
closed = 1;
nodes = (
"303 -6 OFFCURVE",
"353 61 OFFCURVE",
"353 199 CURVE SMOOTH",
"353 647 LINE SMOOTH",
"353 652 OFFCURVE",
"350 655 OFFCURVE",
"346 655 CURVE SMOOTH",
"295 655 LINE SMOOTH",
"290 655 OFFCURVE",
"288 652 OFFCURVE",
"288 647 CURVE SMOOTH",
"288 200 LINE SMOOTH",
"288 100 OFFCURVE",
"262 57 OFFCURVE",
"200 57 CURVE SMOOTH",
"139 57 OFFCURVE",
"113 101 OFFCURVE",
"113 200 CURVE SMOOTH",
"113 647 LINE SMOOTH",
"113 652 OFFCURVE",
"110 655 OFFCURVE",
"106 655 CURVE SMOOTH",
"55 655 LINE SMOOTH",
"50 655 OFFCURVE",
"48 652 OFFCURVE",
"48 647 CURVE SMOOTH",
"48 199 LINE SMOOTH",
"48 61 OFFCURVE",
"95 -6 OFFCURVE",
"200 -6 CURVE SMOOTH"
);
}
);
width = 401;
}
);
leftKerningGroup = U;
rightKerningGroup = U;
unicode = 0055;
},
{
glyphname = V;
lastChange = "2022-10-25 01:43:39 +0000";
layers = (
{
anchors = (
{
name = bottom;
position = "{242, 0}";
},
{
name = top;
position = "{242, 655}";
}
);
layerId = "9DFF46AD-73DE-422E-A6A3-16745129C94E";
paths = (
{
closed = 1;
nodes = (
"338 0 LINE SMOOTH",
"345 0 OFFCURVE",
"349 3 OFFCURVE",
"351 11 CURVE SMOOTH",
"481 640 LINE SMOOTH",
"483 649 OFFCURVE",
"480 655 OFFCURVE",
"471 655 CURVE SMOOTH",
"315 655 LINE SMOOTH",
"307 655 OFFCURVE",
"302 651 OFFCURVE",
"301 643 CURVE SMOOTH",
"259 296 LINE SMOOTH",
"254 251 OFFCURVE",
"249 205 OFFCURVE",
"246 150 CURVE",
"244 150 LINE",
"240 205 OFFCURVE",
"235 251 OFFCURVE",
"229 296 CURVE SMOOTH",
"184 644 LINE SMOOTH",
"183 650 OFFCURVE",
"178 655 OFFCURVE",
"170 655 CURVE SMOOTH",
"14 655 LINE SMOOTH",
"5 655 OFFCURVE",
"2 649 OFFCURVE",
"4 639 CURVE SMOOTH",
"137 12 LINE SMOOTH",
"139 3 OFFCURVE",
"144 0 OFFCURVE",
"150 0 CURVE SMOOTH"
);
}
);
width = 485;
},
{
anchors = (
{
name = bottom;
position = "{171, 0}";
},
{
name = top;
position = "{171, 655}";
}
);
layerId = "7BE597F2-1213-4429-94A3-E96FC63EF83E";
paths = (
{
closed = 1;
nodes = (
"182 0 LINE SMOOTH",
"184 0 OFFCURVE",
"185 1 OFFCURVE",
"186 4 CURVE SMOOTH",
"327 651 LINE SMOOTH",
"328 655 OFFCURVE",
"326 655 OFFCURVE",
"324 655 CURVE SMOOTH",
"315 655 LINE SMOOTH",
"313 655 OFFCURVE",
"312 655 OFFCURVE",
"311 652 CURVE SMOOTH",
"203 162 LINE SMOOTH",
"192 114 OFFCURVE",
"183 66 OFFCURVE",
"173 18 CURVE",
"172 18 LINE",
"162 66 OFFCURVE",
"153 113 OFFCURVE",
"142 161 CURVE SMOOTH",
"32 652 LINE SMOOTH",
"31 655 OFFCURVE",
"30 655 OFFCURVE",
"28 655 CURVE SMOOTH",
"19 655 LINE SMOOTH",
"17 655 OFFCURVE",
"15 655 OFFCURVE",
"16 652 CURVE SMOOTH",
"160 4 LINE SMOOTH",
"161 1 OFFCURVE",
"162 0 OFFCURVE",
"164 0 CURVE SMOOTH"
);
}
);
width = 343;
},
{
anchors = (
{
name = bottom;
position = "{183, 0}";
},
{
name = top;
position = "{183, 655}";
}
);
layerId = "061E0761-0390-47CB-9723-8373CF82D209";
paths = (
{
closed = 1;
nodes = (
"221 0 LINE SMOOTH",
"225 0 OFFCURVE",
"227 3 OFFCURVE",
"228 7 CURVE SMOOTH",
"354 645 LINE SMOOTH",
"355 653 OFFCURVE",
"353 655 OFFCURVE",
"348 655 CURVE SMOOTH",
"293 655 LINE SMOOTH",
"290 655 OFFCURVE",
"287 653 OFFCURVE",
"286 648 CURVE SMOOTH",
"206 218 LINE SMOOTH",
"198 171 OFFCURVE",
"190 124 OFFCURVE",
"183 77 CURVE",
"181 77 LINE",
"174 124 OFFCURVE",
"167 171 OFFCURVE",
"159 218 CURVE SMOOTH",
"79 649 LINE SMOOTH",
"78 653 OFFCURVE",
"76 655 OFFCURVE",
"71 655 CURVE SMOOTH",
"17 655 LINE SMOOTH",
"12 655 OFFCURVE",
"10 652 OFFCURVE",
"11 645 CURVE SMOOTH",
"137 6 LINE SMOOTH",
"138 3 OFFCURVE",
"140 0 OFFCURVE",
"144 0 CURVE SMOOTH"
);
}
);
width = 365;
}
);
leftKerningGroup = V;
rightKerningGroup = V;
unicode = 0056;
},
{
glyphname = W;
lastChange = "2022-10-25 01:43:39 +0000";
layers = (
{
anchors = (
{
name = bottom;
position = "{335, 0}";
},
{
name = top;
position = "{335, 655}";
}
);
layerId = "9DFF46AD-73DE-422E-A6A3-16745129C94E";
paths = (
{
closed = 1;
nodes = (
"271 0 LINE SMOOTH",
"277 0 OFFCURVE",
"284 3 OFFCURVE",
"285 11 CURVE SMOOTH",
"314 184 LINE SMOOTH",
"322 229 OFFCURVE",
"328 273 OFFCURVE",
"335 318 CURVE",
"337 318 LINE",
"343 273 OFFCURVE",
"349 229 OFFCURVE",
"356 184 CURVE SMOOTH",
"381 11 LINE SMOOTH",
"382 5 OFFCURVE",
"388 0 OFFCURVE",
"396 0 CURVE SMOOTH",
"547 0 LINE SMOOTH",
"554 0 OFFCURVE",
"558 5 OFFCURVE",
"559 12 CURVE SMOOTH",
"667 639 LINE SMOOTH",
"669 649 OFFCURVE",
"665 655 OFFCURVE",
"657 655 CURVE SMOOTH",
"517 655 LINE SMOOTH",
"510 655 OFFCURVE",
"505 651 OFFCURVE",
"504 643 CURVE SMOOTH",
"484 493 LINE SMOOTH",
"469 379 OFFCURVE",
"468 302 OFFCURVE",
"466 172 CURVE",
"464 172 LINE",
"461 222 OFFCURVE",
"455 271 OFFCURVE",
"448 321 CURVE SMOOTH",
"404 627 LINE SMOOTH",
"403 634 OFFCURVE",
"399 638 OFFCURVE",
"392 638 CURVE SMOOTH",
"257 638 LINE SMOOTH",
"249 638 OFFCURVE",
"244 631 OFFCURVE",
"247 619 CURVE SMOOTH",
"270 515 LINE",
"230 314 LINE SMOOTH",
"221 267 OFFCURVE",
"214 219 OFFCURVE",
"210 172 CURVE",
"208 172 LINE",
"207 300 OFFCURVE",
"204 377 OFFCURVE",
"190 485 CURVE SMOOTH",
"169 644 LINE SMOOTH",
"168 651 OFFCURVE",
"162 655 OFFCURVE",
"155 655 CURVE SMOOTH",
"14 655 LINE SMOOTH",
"6 655 OFFCURVE",
"1 649 OFFCURVE",
"3 639 CURVE SMOOTH",
"108 11 LINE SMOOTH",
"109 4 OFFCURVE",
"114 0 OFFCURVE",
"121 0 CURVE SMOOTH"
);
}
);
width = 671;
},
{
anchors = (
{
name = bottom;
position = "{259, 0}";
},
{
name = top;
position = "{250, 655}";
}
);
layerId = "7BE597F2-1213-4429-94A3-E96FC63EF83E";
paths = (
{
closed = 1;
nodes = (
"161 0 LINE SMOOTH",
"163 0 OFFCURVE",
"164 0 OFFCURVE",
"165 4 CURVE SMOOTH",
"228 340 LINE SMOOTH",
"236 384 OFFCURVE",
"245 429 OFFCURVE",
"253 473 CURVE",
"254 473 LINE",
"262 428 OFFCURVE",
"269 383 OFFCURVE",
"277 338 CURVE SMOOTH",
"335 4 LINE SMOOTH",
"336 0 OFFCURVE",
"337 0 OFFCURVE",
"340 0 CURVE SMOOTH",
"356 0 LINE SMOOTH",
"358 0 OFFCURVE",
"359 0 OFFCURVE",
"360 4 CURVE SMOOTH",
"481 652 LINE SMOOTH",
"482 655 OFFCURVE",
"480 655 OFFCURVE",
"478 655 CURVE SMOOTH",
"469 655 LINE SMOOTH",
"468 655 OFFCURVE",
"466 655 OFFCURVE",
"465 652 CURVE SMOOTH",
"372 146 LINE SMOOTH",
"364 103 OFFCURVE",
"356 60 OFFCURVE",
"348 17 CURVE",
"347 17 LINE",
"340 59 OFFCURVE",
"332 102 OFFCURVE",
"325 144 CURVE SMOOTH",
"239 642 LINE SMOOTH",
"238 645 OFFCURVE",
"237 645 OFFCURVE",
"235 645 CURVE SMOOTH",
"226 645 LINE SMOOTH",
"224 645 OFFCURVE",
"222 645 OFFCURVE",
"223 641 CURVE SMOOTH",
"246 509 LINE",
"176 139 LINE SMOOTH",
"168 98 OFFCURVE",
"161 58 OFFCURVE",
"153 17 CURVE",
"152 17 LINE",
"144 58 OFFCURVE",
"137 98 OFFCURVE",
"129 139 CURVE SMOOTH",
"34 652 LINE SMOOTH",
"33 655 OFFCURVE",
"32 655 OFFCURVE",
"30 655 CURVE SMOOTH",
"20 655 LINE SMOOTH",
"19 655 OFFCURVE",
"17 655 OFFCURVE",
"18 652 CURVE SMOOTH",
"140 3 LINE SMOOTH",
"141 0 OFFCURVE",
"143 0 OFFCURVE",
"144 0 CURVE SMOOTH"
);
}
);
width = 499;
},
{
anchors = (
{
name = bottom;
position = "{264, 0}";
},
{
name = top;
position = "{263, 655}";
}
);
layerId = "061E0761-0390-47CB-9723-8373CF82D209";
paths = (
{
closed = 1;
nodes = (
"192 0 LINE SMOOTH",
"195 0 OFFCURVE",
"198 2 OFFCURVE",
"199 7 CURVE SMOOTH",
"247 273 LINE SMOOTH",
"254 313 OFFCURVE",
"261 352 OFFCURVE",
"266 392 CURVE",
"268 392 LINE",
"272 352 OFFCURVE",
"277 312 OFFCURVE",
"284 272 CURVE SMOOTH",
"325 7 LINE SMOOTH",
"326 2 OFFCURVE",
"329 0 OFFCURVE",
"333 0 CURVE SMOOTH",
"400 0 LINE SMOOTH",
"404 0 OFFCURVE",
"406 2 OFFCURVE",
"407 7 CURVE SMOOTH",
"512 645 LINE SMOOTH",
"513 652 OFFCURVE",
"511 655 OFFCURVE",
"506 655 CURVE SMOOTH",
"452 655 LINE SMOOTH",
"449 655 OFFCURVE",
"446 653 OFFCURVE",
"445 648 CURVE SMOOTH",
"384 246 LINE SMOOTH",
"375 185 OFFCURVE",
"370 125 OFFCURVE",
"366 80 CURVE",
"364 80 LINE",
"360 125 OFFCURVE",
"354 169 OFFCURVE",
"347 214 CURVE SMOOTH",
"281 637 LINE SMOOTH",
"280 643 OFFCURVE",
"277 645 OFFCURVE",
"272 645 CURVE SMOOTH",
"220 645 LINE SMOOTH",
"216 645 OFFCURVE",
"213 643 OFFCURVE",
"214 636 CURVE SMOOTH",
"235 508 LINE",
"184 213 LINE SMOOTH",
"176 169 OFFCURVE",
"169 124 OFFCURVE",
"163 80 CURVE",
"161 80 LINE",
"157 124 OFFCURVE",
"151 194 OFFCURVE",
"143 246 CURVE SMOOTH",
"80 648 LINE SMOOTH",
"79 653 OFFCURVE",
"76 655 OFFCURVE",
"72 655 CURVE SMOOTH",
"19 655 LINE SMOOTH",
"15 655 OFFCURVE",
"13 652 OFFCURVE",
"14 645 CURVE SMOOTH",
"121 7 LINE SMOOTH",
"122 2 OFFCURVE",
"124 0 OFFCURVE",
"127 0 CURVE SMOOTH"
);
}
);
width = 526;
}
);
leftKerningGroup = W;
rightKerningGroup = W;
unicode = 0057;
},
{
glyphname = X;
lastChange = "2022-10-25 01:43:39 +0000";
layers = (
{
anchors = (
{
name = bottom;
position = "{234, 0}";
},
{
name = top;
position = "{234, 655}";
}
);
layerId = "9DFF46AD-73DE-422E-A6A3-16745129C94E";
paths = (
{
closed = 1;
nodes = (
"172 0 LINE SMOOTH",
"179 0 OFFCURVE",
"184 2 OFFCURVE",
"186 9 CURVE SMOOTH",
"213 113 LINE SMOOTH",
"221 143 OFFCURVE",
"227 174 OFFCURVE",
"233 204 CURVE",
"235 204 LINE",
"241 174 OFFCURVE",
"248 144 OFFCURVE",
"255 114 CURVE SMOOTH",
"280 9 LINE SMOOTH",
"282 2 OFFCURVE",
"286 0 OFFCURVE",
"293 0 CURVE SMOOTH",
"458 0 LINE SMOOTH",
"468 0 OFFCURVE",
"471 7 OFFCURVE",
"467 17 CURVE SMOOTH",
"327 335 LINE",
"459 638 LINE SMOOTH",
"463 648 OFFCURVE",
"461 655 OFFCURVE",
"452 655 CURVE SMOOTH",
"285 655 LINE SMOOTH",
"280 655 OFFCURVE",
"275 653 OFFCURVE",
"274 646 CURVE SMOOTH",
"257 558 LINE SMOOTH",
"251 527 OFFCURVE",
"243 496 OFFCURVE",
"238 465 CURVE",
"236 465 LINE",
"230 496 OFFCURVE",
"223 527 OFFCURVE",
"216 558 CURVE SMOOTH",
"195 646 LINE SMOOTH",
"193 653 OFFCURVE",
"189 655 OFFCURVE",
"183 655 CURVE SMOOTH",
"18 655 LINE SMOOTH",
"8 655 OFFCURVE",
"6 648 OFFCURVE",
"10 638 CURVE SMOOTH",
"143 335 LINE",
"2 17 LINE SMOOTH",
"-3 6 OFFCURVE",
"1 0 OFFCURVE",
"11 0 CURVE SMOOTH"
);
}
);
width = 469;
},
{
anchors = (
{
name = bottom;
position = "{161, 0}";
},
{
name = top;
position = "{161, 655}";
}
);
layerId = "7BE597F2-1213-4429-94A3-E96FC63EF83E";
paths = (
{
closed = 1;
nodes = (
"22 0 LINE SMOOTH",
"25 0 OFFCURVE",
"26 2 OFFCURVE",
"27 4 CURVE SMOOTH",
"115 213 LINE SMOOTH",
"130 248 OFFCURVE",
"146 285 OFFCURVE",
"161 321 CURVE",
"162 321 LINE",
"178 283 OFFCURVE",
"193 247 OFFCURVE",
"209 210 CURVE SMOOTH",
"297 3 LINE SMOOTH",
"298 1 OFFCURVE",
"299 0 OFFCURVE",
"301 0 CURVE SMOOTH",
"312 0 LINE SMOOTH",
"314 0 OFFCURVE",
"315 1 OFFCURVE",
"314 3 CURVE SMOOTH",
"173 337 LINE",
"306 651 LINE SMOOTH",
"307 653 OFFCURVE",
"307 655 OFFCURVE",
"305 655 CURVE SMOOTH",
"292 655 LINE SMOOTH",
"291 655 OFFCURVE",
"290 655 OFFCURVE",
"289 653 CURVE SMOOTH",
"202 447 LINE SMOOTH",
"189 415 OFFCURVE",
"175 383 OFFCURVE",
"162 351 CURVE",
"161 351 LINE",
"148 383 OFFCURVE",
"134 414 OFFCURVE",
"121 446 CURVE SMOOTH",
"33 653 LINE SMOOTH",
"32 655 OFFCURVE",
"31 655 OFFCURVE",
"29 655 CURVE SMOOTH",
"18 655 LINE SMOOTH",
"16 655 OFFCURVE",
"15 653 OFFCURVE",
"16 651 CURVE SMOOTH",
"151 336 LINE",
"9 4 LINE SMOOTH",
"8 2 OFFCURVE",
"8 0 OFFCURVE",
"10 0 CURVE SMOOTH"
);
}
);
width = 322;
},
{
anchors = (
{
name = bottom;
position = "{170, 0}";
},
{
name = top;
position = "{170, 655}";
}
);
layerId = "061E0761-0390-47CB-9723-8373CF82D209";
paths = (
{
closed = 1;
nodes = (
"67 0 LINE SMOOTH",
"71 0 OFFCURVE",
"73 3 OFFCURVE",
"74 6 CURVE SMOOTH",
"132 167 LINE SMOOTH",
"145 205 OFFCURVE",
"158 243 OFFCURVE",
"169 281 CURVE",
"170 281 LINE",
"181 243 OFFCURVE",
"194 205 OFFCURVE",
"207 167 CURVE SMOOTH",
"265 5 LINE SMOOTH",
"266 2 OFFCURVE",
"268 0 OFFCURVE",
"272 0 CURVE SMOOTH",
"334 0 LINE SMOOTH",
"339 0 OFFCURVE",
"341 4 OFFCURVE",
"338 10 CURVE SMOOTH",
"212 336 LINE",
"331 644 LINE SMOOTH",
"334 651 OFFCURVE",
"333 655 OFFCURVE",
"327 655 CURVE SMOOTH",
"268 655 LINE SMOOTH",
"265 655 OFFCURVE",
"262 653 OFFCURVE",
"261 650 CURVE SMOOTH",
"209 502 LINE SMOOTH",
"196 465 OFFCURVE",
"183 429 OFFCURVE",
"172 392 CURVE",
"171 392 LINE",
"160 428 OFFCURVE",
"147 465 OFFCURVE",
"135 501 CURVE SMOOTH",
"83 651 LINE SMOOTH",
"82 653 OFFCURVE",
"79 655 OFFCURVE",
"76 655 CURVE SMOOTH",
"14 655 LINE SMOOTH",
"9 655 OFFCURVE",
"8 651 OFFCURVE",
"10 644 CURVE SMOOTH",
"130 338 LINE",
"2 11 LINE SMOOTH",
"0 4 OFFCURVE",
"1 0 OFFCURVE",
"7 0 CURVE SMOOTH"
);
}
);
width = 340;
}
);
leftKerningGroup = X;
rightKerningGroup = X;
unicode = 0058;
},
{
glyphname = Y;
lastChange = "2022-10-25 01:43:39 +0000";
layers = (
{
anchors = (
{
name = bottom;
position = "{234, 0}";
},
{
name = top;
position = "{234, 655}";
},
{
name = topleft;
position = "{7, 655}";
}
);
layerId = "9DFF46AD-73DE-422E-A6A3-16745129C94E";
paths = (
{
closed = 1;
nodes = (
"306 0 LINE SMOOTH",
"312 0 OFFCURVE",
"317 6 OFFCURVE",
"317 14 CURVE SMOOTH",
"317 227 LINE",
"466 638 LINE SMOOTH",
"470 648 OFFCURVE",
"466 655 OFFCURVE",
"457 655 CURVE SMOOTH",
"301 655 LINE SMOOTH",
"295 655 OFFCURVE",
"290 652 OFFCURVE",
"289 645 CURVE SMOOTH",
"257 490 LINE SMOOTH",
"249 451 OFFCURVE",
"242 413 OFFCURVE",
"236 374 CURVE",
"234 374 LINE",
"228 413 OFFCURVE",
"221 452 OFFCURVE",
"213 491 CURVE SMOOTH",
"181 645 LINE SMOOTH",
"180 652 OFFCURVE",
"175 655 OFFCURVE",
"168 655 CURVE SMOOTH",
"11 655 LINE SMOOTH",
"2 655 OFFCURVE",
"-2 648 OFFCURVE",
"2 638 CURVE SMOOTH",
"151 227 LINE",
"151 14 LINE SMOOTH",
"151 6 OFFCURVE",
"156 0 OFFCURVE",
"163 0 CURVE SMOOTH"
);
}
);
width = 468;
},
{
anchors = (
{
name = bottom;
position = "{159, 0}";
},
{
name = top;
position = "{159, 655}";
},
{
name = topleft;
position = "{17, 655}";
}
);
layerId = "7BE597F2-1213-4429-94A3-E96FC63EF83E";
paths = (
{
closed = 1;
nodes = (
"165 0 LINE SMOOTH",
"166 0 OFFCURVE",
"167 1 OFFCURVE",
"167 3 CURVE SMOOTH",
"167 225 LINE",
"302 651 LINE SMOOTH",
"303 654 OFFCURVE",
"302 655 OFFCURVE",
"300 655 CURVE SMOOTH",
"290 655 LINE SMOOTH",
"288 655 OFFCURVE",
"287 655 OFFCURVE",
"286 653 CURVE SMOOTH",
"193 355 LINE SMOOTH",
"182 319 OFFCURVE",
"171 283 OFFCURVE",
"160 247 CURVE",
"159 247 LINE",
"148 283 OFFCURVE",
"136 319 OFFCURVE",
"125 355 CURVE SMOOTH",
"32 652 LINE SMOOTH",
"31 655 OFFCURVE",
"30 655 OFFCURVE",
"28 655 CURVE SMOOTH",
"17 655 LINE SMOOTH",
"15 655 OFFCURVE",
"14 654 OFFCURVE",
"15 651 CURVE SMOOTH",
"151 225 LINE",
"151 3 LINE SMOOTH",
"151 1 OFFCURVE",
"152 0 OFFCURVE",
"153 0 CURVE SMOOTH"
);
}
);
width = 317;
},
{
anchors = (
{
name = bottom;
position = "{171, 0}";
},
{
name = top;
position = "{171, 655}";
},
{
name = topleft;
position = "{14, 655}";
}
);
layerId = "061E0761-0390-47CB-9723-8373CF82D209";
paths = (
{
closed = 1;
nodes = (
"198 0 LINE SMOOTH",
"203 0 OFFCURVE",
"204 3 OFFCURVE",
"204 9 CURVE SMOOTH",
"204 225 LINE",
"334 644 LINE SMOOTH",
"335 651 OFFCURVE",
"334 655 OFFCURVE",
"328 655 CURVE SMOOTH",
"271 655 LINE SMOOTH",
"268 655 OFFCURVE",
"265 653 OFFCURVE",
"264 649 CURVE SMOOTH",
"203 424 LINE SMOOTH",
"193 385 OFFCURVE",
"182 346 OFFCURVE",
"172 307 CURVE",
"171 307 LINE",
"162 345 OFFCURVE",
"151 385 OFFCURVE",
"141 423 CURVE SMOOTH",
"80 649 LINE SMOOTH",
"79 653 OFFCURVE",
"77 655 OFFCURVE",
"73 655 CURVE SMOOTH",
"14 655 LINE SMOOTH",
"9 655 OFFCURVE",
"7 651 OFFCURVE",
"9 644 CURVE SMOOTH",
"139 224 LINE",
"139 9 LINE SMOOTH",
"139 3 OFFCURVE",
"142 0 OFFCURVE",
"146 0 CURVE SMOOTH"
);
}
);
width = 343;
}
);
leftKerningGroup = Y;
rightKerningGroup = Y;
unicode = 0059;
},
{
glyphname = Z;
lastChange = "2022-10-25 01:43:39 +0000";
layers = (
{
anchors = (
{
name = bottom;
position = "{207, 0}";
},
{
name = top;
position = "{220, 655}";
}
);
layerId = "9DFF46AD-73DE-422E-A6A3-16745129C94E";
paths = (
{
closed = 1;
nodes = (
"383 0 LINE SMOOTH",
"390 0 OFFCURVE",
"395 6 OFFCURVE",
"395 14 CURVE SMOOTH",
"395 132 LINE SMOOTH",
"395 140 OFFCURVE",
"390 146 OFFCURVE",
"383 146 CURVE SMOOTH",
"293 146 LINE SMOOTH",
"269 146 OFFCURVE",
"236 145 OFFCURVE",
"212 144 CURVE",
"212 146 LINE",
"228 175 OFFCURVE",
"248 217 OFFCURVE",
"264 256 CURVE SMOOTH",
"409 618 LINE SMOOTH",
"411 623 OFFCURVE",
"412 629 OFFCURVE",
"412 635 CURVE SMOOTH",
"412 641 LINE SMOOTH",
"412 649 OFFCURVE",
"408 655 OFFCURVE",
"400 655 CURVE SMOOTH",
"34 655 LINE SMOOTH",
"27 655 OFFCURVE",
"22 649 OFFCURVE",
"22 641 CURVE SMOOTH",
"22 523 LINE SMOOTH",
"22 515 OFFCURVE",
"27 509 OFFCURVE",
"34 509 CURVE SMOOTH",
"115 509 LINE SMOOTH",
"141 509 OFFCURVE",
"175 510 OFFCURVE",
"201 511 CURVE",
"201 509 LINE",
"186 480 OFFCURVE",
"164 434 OFFCURVE",
"148 394 CURVE SMOOTH",
"8 37 LINE SMOOTH",
"6 32 OFFCURVE",
"5 26 OFFCURVE",
"5 20 CURVE SMOOTH",
"5 14 LINE SMOOTH",
"5 6 OFFCURVE",
"10 0 OFFCURVE",
"17 0 CURVE SMOOTH"
);
}
);
width = 420;
},
{
anchors = (
{
name = bottom;
position = "{150, 0}";
},
{
name = top;
position = "{164, 655}";
}
);
layerId = "7BE597F2-1213-4429-94A3-E96FC63EF83E";
paths = (
{
closed = 1;
nodes = (
"273 0 LINE SMOOTH",
"275 0 OFFCURVE",
"276 1 OFFCURVE",
"276 3 CURVE SMOOTH",
"276 13 LINE SMOOTH",
"276 15 OFFCURVE",
"275 16 OFFCURVE",
"273 16 CURVE SMOOTH",
"96 16 LINE SMOOTH",
"75 16 OFFCURVE",
"52 16 OFFCURVE",
"30 16 CURVE",
"30 17 LINE",
"44 51 OFFCURVE",
"59 88 OFFCURVE",
"73 123 CURVE SMOOTH",
"286 642 LINE SMOOTH",
"287 645 OFFCURVE",
"288 647 OFFCURVE",
"288 649 CURVE SMOOTH",
"288 651 LINE SMOOTH",
"288 653 OFFCURVE",
"287 655 OFFCURVE",
"284 655 CURVE SMOOTH",
"33 655 LINE SMOOTH",
"31 655 OFFCURVE",
"30 654 OFFCURVE",
"30 652 CURVE SMOOTH",
"30 642 LINE SMOOTH",
"30 640 OFFCURVE",
"31 639 OFFCURVE",
"33 639 CURVE SMOOTH",
"196 639 LINE SMOOTH",
"218 639 OFFCURVE",
"246 639 OFFCURVE",
"268 639 CURVE",
"268 638 LINE",
"255 607 OFFCURVE",
"243 577 OFFCURVE",
"230 545 CURVE SMOOTH",
"11 12 LINE SMOOTH",
"10 9 OFFCURVE",
"10 8 OFFCURVE",
"10 6 CURVE SMOOTH",
"10 4 LINE SMOOTH",
"10 1 OFFCURVE",
"11 0 OFFCURVE",
"14 0 CURVE SMOOTH"
);
}
);
width = 301;
},
{
anchors = (
{
name = bottom;
position = "{165, 0}";
},
{
name = top;
position = "{171, 655}";
}
);
layerId = "061E0761-0390-47CB-9723-8373CF82D209";
paths = (
{
closed = 1;
nodes = (
"297 0 LINE SMOOTH",
"302 0 OFFCURVE",
"304 3 OFFCURVE",
"304 9 CURVE SMOOTH",
"304 54 LINE SMOOTH",
"304 59 OFFCURVE",
"302 63 OFFCURVE",
"297 63 CURVE SMOOTH",
"171 63 LINE SMOOTH",
"146 63 OFFCURVE",
"128 63 OFFCURVE",
"97 62 CURVE",
"97 64 LINE",
"109 93 OFFCURVE",
"120 121 OFFCURVE",
"131 150 CURVE SMOOTH",
"318 634 LINE SMOOTH",
"319 638 OFFCURVE",
"320 642 OFFCURVE",
"320 646 CURVE SMOOTH",
"320 648 LINE SMOOTH",
"320 652 OFFCURVE",
"318 655 OFFCURVE",
"313 655 CURVE SMOOTH",
"36 655 LINE SMOOTH",
"32 655 OFFCURVE",
"29 652 OFFCURVE",
"29 646 CURVE SMOOTH",
"29 601 LINE SMOOTH",
"29 596 OFFCURVE",
"32 592 OFFCURVE",
"36 592 CURVE SMOOTH",
"156 592 LINE SMOOTH",
"181 592 OFFCURVE",
"205 592 OFFCURVE",
"231 593 CURVE",
"231 591 LINE",
"218 556 OFFCURVE",
"204 523 OFFCURVE",
"191 488 CURVE SMOOTH",
"13 21 LINE SMOOTH",
"11 17 OFFCURVE",
"10 14 OFFCURVE",
"10 10 CURVE SMOOTH",
"10 7 LINE SMOOTH",
"10 3 OFFCURVE",
"13 0 OFFCURVE",
"16 0 CURVE SMOOTH"
);
}
);
width = 332;
}
);
leftKerningGroup = Z;
rightKerningGroup = Z;
unicode = 005A;
},
{
glyphname = a;
lastChange = "2022-10-25 01:43:39 +0000";
layers = (
{
anchors = (
{
name = bottom;
position = "{205, 0}";
},
{
name = ogonek;
position = "{367, 10}";
},
{
name = top;
position = "{200, 500}";
}
);
layerId = "9DFF46AD-73DE-422E-A6A3-16745129C94E";
paths = (
{
closed = 1;
nodes = (
"362 0 LINE SMOOTH",
"370.167 0 OFFCURVE",
"373.98 5.2 OFFCURVE",
"373 15 CURVE SMOOTH",
"370.75 39.75 OFFCURVE",
"370 69 OFFCURVE",
"370 132 CURVE SMOOTH",
"370 353 LINE SMOOTH",
"370 458.006 OFFCURVE",
"315.732 506 OFFCURVE",
"197 506 CURVE SMOOTH",
"80.81 506 OFFCURVE",
"22.354 448.945 OFFCURVE",
"30 343 CURVE SMOOTH",
"30.956 333.435 OFFCURVE",
"35.667 328 OFFCURVE",
"43 328 CURVE SMOOTH",
"159 328 LINE SMOOTH",
"167.714 328 OFFCURVE",
"173.034 333.729 OFFCURVE",
"172 342 CURVE SMOOTH",
"167.606 374.953 OFFCURVE",
"173.562 390 OFFCURVE",
"191 390 CURVE SMOOTH",
"206.328 390 OFFCURVE",
"210 383.816 OFFCURVE",
"210 358 CURVE SMOOTH",
"210 115 LINE",
"228 93 LINE",
"229.045 65.842 OFFCURVE",
"232.123 30.223 OFFCURVE",
"235 12 CURVE SMOOTH",
"236.828 2.862 OFFCURVE",
"240.167 0 OFFCURVE",
"249 0 CURVE SMOOTH"
);
},
{
closed = 1;
nodes = (
"162.071 -6 OFFCURVE",
"197.005 15.737 OFFCURVE",
"245 78 CURVE",
"231 153 LINE",
"214.595 124.565 OFFCURVE",
"199.738 111 OFFCURVE",
"185 111 CURVE SMOOTH",
"169 111 OFFCURVE",
"162 124.848 OFFCURVE",
"162 156 CURVE SMOOTH",
"162 189 OFFCURVE",
"172 207 OFFCURVE",
"197 211 CURVE SMOOTH",
"218 214 LINE",
"219 297 LINE",
"156 288 LINE SMOOTH",
"52 273 OFFCURVE",
"12 226 OFFCURVE",
"12 130 CURVE SMOOTH",
"12 44.48 OFFCURVE",
"48.375 -6 OFFCURVE",
"110 -6 CURVE SMOOTH"
);
}
);
width = 394;
},
{
anchors = (
{
name = bottom;
position = "{145, 0}";
},
{
name = ogonek;
position = "{244, 10}";
},
{
name = top;
position = "{149, 478}";
}
);
layerId = "7BE597F2-1213-4429-94A3-E96FC63EF83E";
paths = (
{
closed = 1;
nodes = (
"237 0 LINE SMOOTH",
"239 0 OFFCURVE",
"240 1 OFFCURVE",
"240 3 CURVE SMOOTH",
"238 36 OFFCURVE",
"237 74 OFFCURVE",
"237 110 CURVE SMOOTH",
"237 363 LINE SMOOTH",
"237 450 OFFCURVE",
"212 485 OFFCURVE",
"148 484 CURVE SMOOTH",
"85 483 OFFCURVE",
"50 440 OFFCURVE",
"57 366 CURVE SMOOTH",
"57 364 OFFCURVE",
"58 363 OFFCURVE",
"60 363 CURVE SMOOTH",
"70 363 LINE SMOOTH",
"72 363 OFFCURVE",
"73 364 OFFCURVE",
"73 366 CURVE SMOOTH",
"67 432 OFFCURVE",
"93 468 OFFCURVE",
"148 468 CURVE SMOOTH",
"203 468 OFFCURVE",
"221 440 OFFCURVE",
"221 362 CURVE SMOOTH",
"221 93 LINE",
"221 92 LINE SMOOTH",
"221 76 OFFCURVE",
"222 41 OFFCURVE",
"225 3 CURVE SMOOTH",
"225 1 OFFCURVE",
"226 0 OFFCURVE",
"228 0 CURVE SMOOTH"
);
},
{
closed = 1;
nodes = (
"149 -6 OFFCURVE",
"176 11 OFFCURVE",
"225 76 CURVE",
"225 99 LINE",
"173 27 OFFCURVE",
"144 10 OFFCURVE",
"114 10 CURVE SMOOTH",
"76 10 OFFCURVE",
"56 48 OFFCURVE",
"56 110 CURVE SMOOTH",
"56 184 OFFCURVE",
"82 234 OFFCURVE",
"151 243 CURVE SMOOTH",
"224 253 LINE",
"224 269 LINE",
"151 259 LINE SMOOTH",
"72 248 OFFCURVE",
"40 193 OFFCURVE",
"40 110 CURVE SMOOTH",
"40 41 OFFCURVE",
"64 -6 OFFCURVE",
"113 -6 CURVE SMOOTH"
);
}
);
width = 297;
},
{
anchors = (
{
name = bottom;
position = "{160, 0}";
},
{
name = ogonek;
position = "{277, 10}";
},
{
name = top;
position = "{160, 486}";
}
);
layerId = "061E0761-0390-47CB-9723-8373CF82D209";
paths = (
{
closed = 1;
nodes = (
"268 0 LINE SMOOTH",
"272 0 OFFCURVE",
"274 3 OFFCURVE",
"273 10 CURVE SMOOTH",
"271 29 OFFCURVE",
"270 66 OFFCURVE",
"270 120 CURVE SMOOTH",
"270 360 LINE SMOOTH",
"270 458 OFFCURVE",
"239 492 OFFCURVE",
"158 492 CURVE SMOOTH",
"79 492 OFFCURVE",
"40 446 OFFCURVE",
"47 367 CURVE SMOOTH",
"48 358 OFFCURVE",
"51 355 OFFCURVE",
"58 355 CURVE SMOOTH",
"102 355 LINE SMOOTH",
"107 355 OFFCURVE",
"110 359 OFFCURVE",
"110 364 CURVE SMOOTH",
"106 410 OFFCURVE",
"120 430 OFFCURVE",
"157 430 CURVE SMOOTH",
"196 430 OFFCURVE",
"205 413 OFFCURVE",
"205 358 CURVE SMOOTH",
"205 106 LINE",
"209 101 LINE",
"209 76 OFFCURVE",
"212 33 OFFCURVE",
"215 9 CURVE SMOOTH",
"216 2 OFFCURVE",
"218 0 OFFCURVE",
"222 0 CURVE SMOOTH"
);
},
{
closed = 1;
nodes = (
"154 -6 OFFCURVE",
"178 14 OFFCURVE",
"218 63 CURVE",
"215 121 LINE",
"177 72 OFFCURVE",
"158 57 OFFCURVE",
"135 57 CURVE SMOOTH",
"112 57 OFFCURVE",
"98 84 OFFCURVE",
"98 128 CURVE SMOOTH",
"98 189 OFFCURVE",
"121 222 OFFCURVE",
"168 228 CURVE SMOOTH",
"213 234 LINE",
"213 287 LINE",
"161 281 LINE SMOOTH",
"70 271 OFFCURVE",
"33 213 OFFCURVE",
"33 123 CURVE SMOOTH",
"33 41 OFFCURVE",
"63 -6 OFFCURVE",
"115 -6 CURVE SMOOTH"
);
}
);
width = 316;
}
);
leftKerningGroup = a;
rightKerningGroup = a;
rightMetricsKey = u;
unicode = 0061;
},
{
glyphname = ae;
lastChange = "2022-10-25 01:47:17 +0000";
layers = (
{
layerId = "9DFF46AD-73DE-422E-A6A3-16745129C94E";
paths = (
{
closed = 1;
nodes = (
"158.275 -6 OFFCURVE",
"192.243 13.294 OFFCURVE",
"235 65 CURVE",
"261.75 17.445 OFFCURVE",
"314.254 -6 OFFCURVE",
"394 -6 CURVE SMOOTH",
"516.17 -6 OFFCURVE",
"571 43.254 OFFCURVE",
"571 153 CURVE SMOOTH",
"571 162 OFFCURVE",
"567 166 OFFCURVE",
"558 166 CURVE SMOOTH",
"431 166 LINE SMOOTH",
"423.833 166 OFFCURVE",
"420 161.818 OFFCURVE",
"420 154 CURVE SMOOTH",
"420 124.019 OFFCURVE",
"413.012 113 OFFCURVE",
"394 113 CURVE SMOOTH",
"376.077 113 OFFCURVE",
"370 122.875 OFFCURVE",
"370 152 CURVE SMOOTH",
"370 212 LINE",
"565 212 LINE SMOOTH",
"573.7 212 OFFCURVE",
"579 217.679 OFFCURVE",
"579 227 CURVE SMOOTH",
"579 313 LINE SMOOTH",
"579 433.973 OFFCURVE",
"516.676 506 OFFCURVE",
"412 506 CURVE SMOOTH",
"364.5 506 OFFCURVE",
"329.913 493.848 OFFCURVE",
"301 467 CURVE",
"275.816 494.05 OFFCURVE",
"240.885 506 OFFCURVE",
"187 506 CURVE SMOOTH",
"78.951 506 OFFCURVE",
"22.149 447.027 OFFCURVE",
"30 343 CURVE SMOOTH",
"30.956 333.435 OFFCURVE",
"35.667 328 OFFCURVE",
"43 328 CURVE SMOOTH",
"159 328 LINE SMOOTH",
"167.714 328 OFFCURVE",
"173.034 333.729 OFFCURVE",
"172 342 CURVE SMOOTH",
"168.007 374.94 OFFCURVE",
"173.969 390 OFFCURVE",
"191 390 CURVE SMOOTH",
"207.438 390 OFFCURVE",
"213 381.909 OFFCURVE",
"213 358 CURVE SMOOTH",
"213 296 LINE",
"156 288 LINE SMOOTH",
"53.632 273.235 OFFCURVE",
"12 227.556 OFFCURVE",
"12 130 CURVE SMOOTH",
"12 43.98 OFFCURVE",
"48.015 -6 OFFCURVE",
"110 -6 CURVE SMOOTH"
);
},
{
closed = 1;
nodes = (
"169.078 111 OFFCURVE",
"162 124.848 OFFCURVE",
"162 156 CURVE SMOOTH",
"162 190.143 OFFCURVE",
"172.81 207.13 OFFCURVE",
"197 211 CURVE SMOOTH",
"213 213 LINE",
"213 167 LINE SMOOTH",
"213 156.75 OFFCURVE",
"213.633 145.033 OFFCURVE",
"215 130 CURVE",
"205.25 117.325 OFFCURVE",
"195.263 111 OFFCURVE",
"185 111 CURVE SMOOTH"
);
},
{
closed = 1;
nodes = (
"370 351 LINE SMOOTH",
"370 375.961 OFFCURVE",
"377.972 387 OFFCURVE",
"396 387 CURVE SMOOTH",
"414.028 387 OFFCURVE",
"422 375.961 OFFCURVE",
"422 351 CURVE SMOOTH",
"422 300 LINE",
"370 300 LINE"
);
}
);
width = 600;
},
{
layerId = "7BE597F2-1213-4429-94A3-E96FC63EF83E";
paths = (
{
closed = 1;
nodes = (
"148 -6 OFFCURVE",
"180 15 OFFCURVE",
"228 78 CURVE",
"241 21 OFFCURVE",
"277 -6 OFFCURVE",
"330 -6 CURVE SMOOTH",
"393 -6 OFFCURVE",
"425 35 OFFCURVE",
"425 119 CURVE SMOOTH",
"425 121 OFFCURVE",
"424 122 OFFCURVE",
"423 122 CURVE SMOOTH",
"411 122 LINE SMOOTH",
"410 122 OFFCURVE",
"409 121 OFFCURVE",
"409 119 CURVE SMOOTH",
"409 47 OFFCURVE",
"385 10 OFFCURVE",
"330 10 CURVE SMOOTH",
"269 10 OFFCURVE",
"237 55 OFFCURVE",
"237 141 CURVE SMOOTH",
"237 248 LINE",
"427 248 LINE SMOOTH",
"430 248 OFFCURVE",
"431 249 OFFCURVE",
"431 252 CURVE SMOOTH",
"431 342 LINE SMOOTH",
"431 437 OFFCURVE",
"390 484 OFFCURVE",
"328 484 CURVE SMOOTH",
"284 484 OFFCURVE",
"248 461 OFFCURVE",
"232 409 CURVE",
"227 462 OFFCURVE",
"197 485 OFFCURVE",
"148 484 CURVE SMOOTH",
"85 483 OFFCURVE",
"56 440 OFFCURVE",
"57 366 CURVE SMOOTH",
"57 364 OFFCURVE",
"58 363 OFFCURVE",
"60 363 CURVE SMOOTH",
"70 363 LINE SMOOTH",
"72 363 OFFCURVE",
"73 364 OFFCURVE",
"73 366 CURVE SMOOTH",
"73 432 OFFCURVE",
"93 468 OFFCURVE",
"148 468 CURVE SMOOTH",
"203 468 OFFCURVE",
"221 435 OFFCURVE",
"221 362 CURVE SMOOTH",
"221 264 LINE",
"151 254 LINE SMOOTH",
"73 243 OFFCURVE",
"40 193 OFFCURVE",
"40 110 CURVE SMOOTH",
"40 41 OFFCURVE",
"64 -6 OFFCURVE",
"113 -6 CURVE SMOOTH"
);
},
{
closed = 1;
nodes = (
"76 10 OFFCURVE",
"56 48 OFFCURVE",
"56 110 CURVE SMOOTH",
"56 184 OFFCURVE",
"83 228 OFFCURVE",
"151 238 CURVE SMOOTH",
"221 248 LINE",
"221 140 LINE SMOOTH",
"221 125 OFFCURVE",
"222 110 OFFCURVE",
"224 97 CURVE",
"173 27 OFFCURVE",
"144 10 OFFCURVE",
"114 10 CURVE SMOOTH"
);
},
{
closed = 1;
nodes = (
"237 341 LINE SMOOTH",
"237 424 OFFCURVE",
"273 468 OFFCURVE",
"327 468 CURVE SMOOTH",
"380 468 OFFCURVE",
"415 422 OFFCURVE",
"415 341 CURVE SMOOTH",
"415 264 LINE",
"237 264 LINE"
);
}
);
width = 476;
},
{
layerId = "061E0761-0390-47CB-9723-8373CF82D209";
paths = (
{
closed = 1;
nodes = (
"157 -6 OFFCURVE",
"184 20 OFFCURVE",
"221 66 CURVE",
"240 18 OFFCURVE",
"277 -6 OFFCURVE",
"332 -6 CURVE SMOOTH",
"405 -6 OFFCURVE",
"446 41 OFFCURVE",
"446 125 CURVE SMOOTH",
"446 129 OFFCURVE",
"443 133 OFFCURVE",
"439 133 CURVE SMOOTH",
"390 133 LINE SMOOTH",
"386 133 OFFCURVE",
"384 128 OFFCURVE",
"384 123 CURVE SMOOTH",
"384 79 OFFCURVE",
"368 57 OFFCURVE",
"332 57 CURVE SMOOTH",
"290 57 OFFCURVE",
"270 89 OFFCURVE",
"270 167 CURVE SMOOTH",
"270 228 LINE",
"444 228 LINE SMOOTH",
"448 228 OFFCURVE",
"451 231 OFFCURVE",
"451 236 CURVE SMOOTH",
"451 335 LINE SMOOTH",
"451 439 OFFCURVE",
"407 492 OFFCURVE",
"330 492 CURVE SMOOTH",
"295 492 OFFCURVE",
"265 478 OFFCURVE",
"244 448 CURVE",
"225 479 OFFCURVE",
"203 492 OFFCURVE",
"158 492 CURVE SMOOTH",
"79 492 OFFCURVE",
"40 446 OFFCURVE",
"47 367 CURVE SMOOTH",
"48 358 OFFCURVE",
"51 355 OFFCURVE",
"58 355 CURVE SMOOTH",
"102 355 LINE SMOOTH",
"107 355 OFFCURVE",
"110 359 OFFCURVE",
"110 364 CURVE SMOOTH",
"110 410 OFFCURVE",
"120 430 OFFCURVE",
"157 430 CURVE SMOOTH",
"196 430 OFFCURVE",
"205 412 OFFCURVE",
"205 358 CURVE SMOOTH",
"205 290 LINE",
"161 283 LINE SMOOTH",
"70 270 OFFCURVE",
"33 213 OFFCURVE",
"33 123 CURVE SMOOTH",
"33 41 OFFCURVE",
"63 -6 OFFCURVE",
"115 -6 CURVE SMOOTH"
);
},
{
closed = 1;
nodes = (
"112 57 OFFCURVE",
"98 84 OFFCURVE",
"98 128 CURVE SMOOTH",
"98 189 OFFCURVE",
"121 221 OFFCURVE",
"168 227 CURVE SMOOTH",
"205 232 LINE",
"205 159 LINE SMOOTH",
"205 142 OFFCURVE",
"207 127 OFFCURVE",
"209 114 CURVE",
"175 70 OFFCURVE",
"156 57 OFFCURVE",
"135 57 CURVE SMOOTH"
);
},
{
closed = 1;
nodes = (
"270 334 LINE SMOOTH",
"270 401 OFFCURVE",
"289 430 OFFCURVE",
"329 430 CURVE SMOOTH",
"368 430 OFFCURVE",
"386 402 OFFCURVE",
"386 334 CURVE SMOOTH",
"386 289 LINE",
"270 289 LINE"
);
}
);
width = 486;
}
);
leftKerningGroup = a;
leftMetricsKey = a;
rightKerningGroup = e;
rightMetricsKey = e;
unicode = 00E6;
},
{
glyphname = b;
lastChange = "2022-10-25 01:43:39 +0000";
layers = (
{
layerId = "9DFF46AD-73DE-422E-A6A3-16745129C94E";
paths = (
{
closed = 1;
nodes = (
"328.893 -6 OFFCURVE",
"383 44.5 OFFCURVE",
"383 148 CURVE SMOOTH",
"383 383 LINE SMOOTH",
"383 469.521 OFFCURVE",
"354.825 506 OFFCURVE",
"288 506 CURVE SMOOTH",
"253.158 506 OFFCURVE",
"222.661 491.514 OFFCURVE",
"168 449 CURVE",
"175 355 LINE",
"181 359 OFFCURVE",
"194 369 OFFCURVE",
"208 369 CURVE SMOOTH",
"218.375 369 OFFCURVE",
"223 362.833 OFFCURVE",
"223 349 CURVE SMOOTH",
"223 150 LINE SMOOTH",
"223 132 OFFCURVE",
"215.857 122 OFFCURVE",
"203 122 CURVE SMOOTH",
"195.667 122 OFFCURVE",
"188.783 123.087 OFFCURVE",
"184 125 CURVE",
"184 669 LINE SMOOTH",
"184 677.083 OFFCURVE",
"178.929 683 OFFCURVE",
"172 683 CURVE SMOOTH",
"36 683 LINE SMOOTH",
"29.071 683 OFFCURVE",
"24 677.083 OFFCURVE",
"24 669 CURVE SMOOTH",
"24 13 LINE",
"81 8 OFFCURVE",
"141 -6 OFFCURVE",
"218 -6 CURVE SMOOTH"
);
}
);
width = 406;
},
{
layerId = "7BE597F2-1213-4429-94A3-E96FC63EF83E";
paths = (
{
closed = 1;
nodes = (
"240 -6 OFFCURVE",
"283 33 OFFCURVE",
"283 141 CURVE SMOOTH",
"283 357 LINE SMOOTH",
"283 447 OFFCURVE",
"254 484 OFFCURVE",
"204 484 CURVE SMOOTH",
"155 484 OFFCURVE",
"113 446 OFFCURVE",
"72 397 CURVE",
"72 376 LINE",
"112 425 OFFCURVE",
"155 468 OFFCURVE",
"203 468 CURVE SMOOTH",
"246 468 OFFCURVE",
"267 432 OFFCURVE",
"267 354 CURVE SMOOTH",
"267 140 LINE SMOOTH",
"267 46 OFFCURVE",
"231 10 OFFCURVE",
"175 10 CURVE SMOOTH",
"139 10 OFFCURVE",
"108 21 OFFCURVE",
"76 28 CURVE",
"76 680 LINE SMOOTH",
"76 682 OFFCURVE",
"75 683 OFFCURVE",
"73 683 CURVE SMOOTH",
"63 683 LINE SMOOTH",
"61 683 OFFCURVE",
"60 682 OFFCURVE",
"60 680 CURVE SMOOTH",
"60 16 LINE",
"100 7 OFFCURVE",
"137 -6 OFFCURVE",
"175 -6 CURVE SMOOTH"
);
}
);
width = 332;
},
{
layerId = "061E0761-0390-47CB-9723-8373CF82D209";
paths = (
{
closed = 1;
nodes = (
"260 -6 OFFCURVE",
"298 40 OFFCURVE",
"298 163 CURVE SMOOTH",
"298 370 LINE SMOOTH",
"298 454 OFFCURVE",
"271 492 OFFCURVE",
"213 492 CURVE SMOOTH",
"172 492 OFFCURVE",
"130 465 OFFCURVE",
"94 418 CURVE",
"99 359 LINE",
"129 403 OFFCURVE",
"162 430 OFFCURVE",
"191 430 CURVE SMOOTH",
"220 430 OFFCURVE",
"233 411 OFFCURVE",
"233 366 CURVE SMOOTH",
"233 166 LINE SMOOTH",
"233 83 OFFCURVE",
"214 57 OFFCURVE",
"169 57 CURVE SMOOTH",
"150 57 OFFCURVE",
"129 62 OFFCURVE",
"111 65 CURVE",
"111 674 LINE SMOOTH",
"111 680 OFFCURVE",
"108 683 OFFCURVE",
"104 683 CURVE SMOOTH",
"53 683 LINE SMOOTH",
"49 683 OFFCURVE",
"46 680 OFFCURVE",
"46 674 CURVE SMOOTH",
"46 13 LINE",
"93 7 OFFCURVE",
"130 -6 OFFCURVE",
"175 -6 CURVE SMOOTH"
);
}
);
width = 338;
}
);
leftKerningGroup = h;
leftMetricsKey = h;
rightKerningGroup = o;
rightMetricsKey = "=o+2";
unicode = 0062;
},
{
glyphname = c;
lastChange = "2022-10-25 01:43:39 +0000";
layers = (
{
anchors = (
{
name = bottom;
position = "{205, 0}";
},
{
name = ogonek;
position = "{277, 10}";
},
{
name = top;
position = "{198, 500}";
}
);
layerId = "9DFF46AD-73DE-422E-A6A3-16745129C94E";
paths = (
{
closed = 1;
nodes = (
"322.68 -6 OFFCURVE",
"377.189 58.892 OFFCURVE",
"373 194 CURVE SMOOTH",
"373 202.308 OFFCURVE",
"367.714 208 OFFCURVE",
"360 208 CURVE SMOOTH",
"242 208 LINE SMOOTH",
"235.571 208 OFFCURVE",
"230 202 OFFCURVE",
"230 194 CURVE SMOOTH",
"231 147 OFFCURVE",
"225.627 131 OFFCURVE",
"205 131 CURVE SMOOTH",
"185.806 131 OFFCURVE",
"180 142.38 OFFCURVE",
"180 180 CURVE SMOOTH",
"180 326 LINE SMOOTH",
"180 357.211 OFFCURVE",
"187.128 369 OFFCURVE",
"206 369 CURVE SMOOTH",
"227.403 369 OFFCURVE",
"232.161 356.708 OFFCURVE",
"230 307 CURVE SMOOTH",
"230 299.731 OFFCURVE",
"236.25 293 OFFCURVE",
"243 293 CURVE SMOOTH",
"359 293 LINE SMOOTH",
"366.823 293 OFFCURVE",
"371.974 299.734 OFFCURVE",
"373 310 CURVE SMOOTH",
"385.962 424.663 OFFCURVE",
"317 506 OFFCURVE",
"203 506 CURVE SMOOTH",
"86 506 OFFCURVE",
"21 443.805 OFFCURVE",
"21 328 CURVE SMOOTH",
"21 180 LINE SMOOTH",
"21 56.837 OFFCURVE",
"84.18 -6 OFFCURVE",
"204 -6 CURVE SMOOTH"
);
}
);
width = 395;
},
{
anchors = (
{
name = bottom;
position = "{156, 0}";
},
{
name = ogonek;
position = "{205, 10}";
},
{
name = top;
position = "{155, 478}";
}
);
layerId = "7BE597F2-1213-4429-94A3-E96FC63EF83E";
paths = (
{
closed = 1;
nodes = (
"234 -5 OFFCURVE",
"264 46 OFFCURVE",
"262 139 CURVE SMOOTH",
"262 141 OFFCURVE",
"261 142 OFFCURVE",
"259 142 CURVE SMOOTH",
"249 142 LINE SMOOTH",
"247 142 OFFCURVE",
"246 141 OFFCURVE",
"246 139 CURVE SMOOTH",
"249 54 OFFCURVE",
"222 10 OFFCURVE",
"160 10 CURVE SMOOTH",
"95 10 OFFCURVE",
"63 49 OFFCURVE",
"63 134 CURVE SMOOTH",
"63 345 LINE SMOOTH",
"63 429 OFFCURVE",
"95 468 OFFCURVE",
"159 468 CURVE SMOOTH",
"219 468 OFFCURVE",
"249 421 OFFCURVE",
"246 348 CURVE SMOOTH",
"246 346 OFFCURVE",
"247 345 OFFCURVE",
"249 345 CURVE SMOOTH",
"259 345 LINE SMOOTH",
"261 345 OFFCURVE",
"262 346 OFFCURVE",
"262 349 CURVE SMOOTH",
"267 431 OFFCURVE",
"229 484 OFFCURVE",
"159 484 CURVE SMOOTH",
"86 484 OFFCURVE",
"47 441 OFFCURVE",
"47 346 CURVE SMOOTH",
"47 133 LINE SMOOTH",
"47 37 OFFCURVE",
"86 -7 OFFCURVE",
"160 -6 CURVE SMOOTH"
);
}
);
width = 307;
},
{
anchors = (
{
name = bottom;
position = "{173, 0}";
},
{
name = ogonek;
position = "{207, 10}";
},
{
name = top;
position = "{168, 486}";
}
);
layerId = "061E0761-0390-47CB-9723-8373CF82D209";
paths = (
{
closed = 1;
nodes = (
"250 -6 OFFCURVE",
"289 43 OFFCURVE",
"289 141 CURVE SMOOTH",
"289 147 OFFCURVE",
"286 150 OFFCURVE",
"281 150 CURVE SMOOTH",
"234 150 LINE SMOOTH",
"228 150 OFFCURVE",
"226 147 OFFCURVE",
"226 139 CURVE SMOOTH",
"228 83 OFFCURVE",
"210 57 OFFCURVE",
"169 57 CURVE SMOOTH",
"122 57 OFFCURVE",
"103 87 OFFCURVE",
"103 160 CURVE SMOOTH",
"103 326 LINE SMOOTH",
"103 402 OFFCURVE",
"122 430 OFFCURVE",
"169 430 CURVE SMOOTH",
"210 430 OFFCURVE",
"231 398 OFFCURVE",
"228 346 CURVE SMOOTH",
"227 340 OFFCURVE",
"229 337 OFFCURVE",
"234 337 CURVE SMOOTH",
"281 337 LINE SMOOTH",
"287 337 OFFCURVE",
"289 339 OFFCURVE",
"289 349 CURVE SMOOTH",
"295 439 OFFCURVE",
"251 492 OFFCURVE",
"169 492 CURVE SMOOTH",
"80 492 OFFCURVE",
"38 439 OFFCURVE",
"38 328 CURVE SMOOTH",
"38 159 LINE SMOOTH",
"38 47 OFFCURVE",
"80 -6 OFFCURVE",
"169 -6 CURVE SMOOTH"
);
}
);
width = 326;
}
);
leftKerningGroup = o;
leftMetricsKey = o;
rightKerningGroup = c;
unicode = 0063;
},
{
glyphname = d;
lastChange = "2022-10-25 01:43:39 +0000";
layers = (
{
anchors = (
{
name = bottom;
position = "{203, 0}";
},
{
name = center;
position = "{203, 250}";
},
{
name = top;
position = "{203, 500}";
},
{
name = topright;
position = "{386, 500}";
}
);
layerId = "9DFF46AD-73DE-422E-A6A3-16745129C94E";
paths = (
{
closed = 1;
nodes = (
"173.286 -6 OFFCURVE",
"228 34 OFFCURVE",
"254 84 CURVE",
"228 146 LINE",
"219.057 135.566 OFFCURVE",
"210.533 131 OFFCURVE",
"199 131 CURVE SMOOTH",
"187.475 131 OFFCURVE",
"183 136.265 OFFCURVE",
"183 151 CURVE SMOOTH",
"183 352 LINE SMOOTH",
"183 369.395 OFFCURVE",
"189.288 378 OFFCURVE",
"202 378 CURVE SMOOTH",
"211.214 378 OFFCURVE",
"221.115 375.961 OFFCURVE",
"236 371 CURVE",
"236 480 LINE",
"205 497 OFFCURVE",
"166.654 506 OFFCURVE",
"130 506 CURVE SMOOTH",
"57.322 506 OFFCURVE",
"23 459.168 OFFCURVE",
"23 360 CURVE SMOOTH",
"23 124 LINE SMOOTH",
"23 31 OFFCURVE",
"51.157 -6 OFFCURVE",
"119 -6 CURVE SMOOTH"
);
},
{
closed = 1;
nodes = (
"374 0 LINE SMOOTH",
"382 0 OFFCURVE",
"386 5 OFFCURVE",
"385 15 CURVE SMOOTH",
"382 48 OFFCURVE",
"382 90 OFFCURVE",
"382 132 CURVE SMOOTH",
"382 669 LINE SMOOTH",
"382 677 OFFCURVE",
"377 683 OFFCURVE",
"370 683 CURVE SMOOTH",
"235 683 LINE SMOOTH",
"227 683 OFFCURVE",
"222 677 OFFCURVE",
"222 669 CURVE SMOOTH",
"222 122 LINE",
"240 93 LINE",
"241 67 OFFCURVE",
"243 31 OFFCURVE",
"247 12 CURVE SMOOTH",
"249 2 OFFCURVE",
"252 0 OFFCURVE",
"261 0 CURVE SMOOTH"
);
}
);
width = 406;
},
{
anchors = (
{
name = bottom;
position = "{165, 0}";
},
{
name = center;
position = "{165, 239}";
},
{
name = top;
position = "{165, 478}";
},
{
name = topright;
position = "{313, 478}";
}
);
layerId = "7BE597F2-1213-4429-94A3-E96FC63EF83E";
paths = (
{
closed = 1;
nodes = (
"178 -6 OFFCURVE",
"217 31 OFFCURVE",
"258 81 CURVE",
"258 103 LINE",
"218 52 OFFCURVE",
"176 10 OFFCURVE",
"132 10 CURVE SMOOTH",
"89 10 OFFCURVE",
"65 36 OFFCURVE",
"65 118 CURVE SMOOTH",
"65 339 LINE SMOOTH",
"65 436 OFFCURVE",
"103 468 OFFCURVE",
"155 468 CURVE SMOOTH",
"188 468 OFFCURVE",
"224 453 OFFCURVE",
"261 423 CURVE",
"261 442 LINE",
"226 469 OFFCURVE",
"190 484 OFFCURVE",
"154 484 CURVE SMOOTH",
"92 484 OFFCURVE",
"49 445 OFFCURVE",
"49 340 CURVE SMOOTH",
"49 115 LINE SMOOTH",
"49 23 OFFCURVE",
"79 -6 OFFCURVE",
"130 -6 CURVE SMOOTH"
);
},
{
closed = 1;
nodes = (
"270 0 LINE SMOOTH",
"272 0 OFFCURVE",
"273 1 OFFCURVE",
"273 3 CURVE SMOOTH",
"271 37 OFFCURVE",
"270 75 OFFCURVE",
"270 110 CURVE SMOOTH",
"270 680 LINE SMOOTH",
"270 682 OFFCURVE",
"269 683 OFFCURVE",
"267 683 CURVE SMOOTH",
"257 683 LINE SMOOTH",
"255 683 OFFCURVE",
"254 682 OFFCURVE",
"254 680 CURVE SMOOTH",
"254 95 LINE",
"254 92 LINE",
"254 72 OFFCURVE",
"256 35 OFFCURVE",
"258 3 CURVE SMOOTH",
"258 1 OFFCURVE",
"259 0 OFFCURVE",
"261 0 CURVE SMOOTH"
);
}
);
width = 330;
},
{
anchors = (
{
name = bottom;
position = "{169, 0}";
},
{
name = center;
position = "{169, 243}";
},
{
name = top;
position = "{169, 486}";
},
{
name = topright;
position = "{319, 486}";
}
);
layerId = "061E0761-0390-47CB-9723-8373CF82D209";
paths = (
{
closed = 1;
nodes = (
"171 -6 OFFCURVE",
"204 19 OFFCURVE",
"241 67 CURVE",
"238 126 LINE",
"204 79 OFFCURVE",
"176 57 OFFCURVE",
"148 57 CURVE SMOOTH",
"119 57 OFFCURVE",
"105 74 OFFCURVE",
"105 122 CURVE SMOOTH",
"105 339 LINE SMOOTH",
"105 403 OFFCURVE",
"125 430 OFFCURVE",
"163 430 CURVE SMOOTH",
"183 430 OFFCURVE",
"207 422 OFFCURVE",
"238 405 CURVE",
"238 467 LINE",
"215 480 OFFCURVE",
"186 492 OFFCURVE",
"148 492 CURVE SMOOTH",
"80 492 OFFCURVE",
"40 443 OFFCURVE",
"40 348 CURVE SMOOTH",
"40 122 LINE SMOOTH",
"40 35 OFFCURVE",
"70 -6 OFFCURVE",
"127 -6 CURVE SMOOTH"
);
},
{
closed = 1;
nodes = (
"289 0 LINE SMOOTH",
"294 0 OFFCURVE",
"296 3 OFFCURVE",
"295 11 CURVE SMOOTH",
"293 30 OFFCURVE",
"292 64 OFFCURVE",
"292 120 CURVE SMOOTH",
"292 674 LINE SMOOTH",
"292 680 OFFCURVE",
"290 683 OFFCURVE",
"285 683 CURVE SMOOTH",
"235 683 LINE SMOOTH",
"230 683 OFFCURVE",
"227 680 OFFCURVE",
"227 674 CURVE SMOOTH",
"227 107 LINE",
"232 101 LINE",
"232 82 OFFCURVE",
"234 37 OFFCURVE",
"237 9 CURVE SMOOTH",
"238 3 OFFCURVE",
"240 0 OFFCURVE",
"245 0 CURVE SMOOTH"
);
}
);
width = 338;
}
);
leftKerningGroup = o;
leftMetricsKey = "=o+2";
rightKerningGroup = d;
rightMetricsKey = u;
unicode = 0064;
},
{
glyphname = eth;
lastChange = "2022-10-25 01:43:39 +0000";
layers = (
{
layerId = "9DFF46AD-73DE-422E-A6A3-16745129C94E";
paths = (
{
closed = 1;
nodes = (
"317 -6 OFFCURVE",
"385 59 OFFCURVE",
"385 172 CURVE SMOOTH",
"385 383 LINE SMOOTH",
"385 542 OFFCURVE",
"325 654 OFFCURVE",
"185 688 CURVE SMOOTH",
"176 690 OFFCURVE",
"171 690 OFFCURVE",
"165 682 CURVE SMOOTH",
"108 603 LINE SMOOTH",
"103 596 OFFCURVE",
"105 588 OFFCURVE",
"111 586 CURVE SMOOTH",
"230 552 OFFCURVE",
"233 472 OFFCURVE",
"226 340 CURVE",
"226 173 LINE SMOOTH",
"226 142 OFFCURVE",
"221 131 OFFCURVE",
"203 131 CURVE SMOOTH",
"185 131 OFFCURVE",
"180 142 OFFCURVE",
"180 173 CURVE SMOOTH",
"180 287 LINE SMOOTH",
"180 318 OFFCURVE",
"187 330 OFFCURVE",
"203 330 CURVE SMOOTH",
"218 330 OFFCURVE",
"227 324 OFFCURVE",
"240 312 CURVE",
"240 422 LINE",
"213 448 OFFCURVE",
"181 460 OFFCURVE",
"143 460 CURVE SMOOTH",
"60 460 OFFCURVE",
"21 402 OFFCURVE",
"21 296 CURVE SMOOTH",
"21 172 LINE SMOOTH",
"21 59 OFFCURVE",
"89 -6 OFFCURVE",
"203 -6 CURVE SMOOTH"
);
},
{
closed = 1;
nodes = (
"339 637 LINE SMOOTH",
"342 640 OFFCURVE",
"343 641 OFFCURVE",
"340 646 CURVE SMOOTH",
"317 682 LINE SMOOTH",
"314 687 OFFCURVE",
"311 687 OFFCURVE",
"307 683 CURVE SMOOTH",
"124 537 LINE SMOOTH",
"120 533 OFFCURVE",
"119 531 OFFCURVE",
"122 526 CURVE SMOOTH",
"146 491 LINE SMOOTH",
"149 487 OFFCURVE",
"151 487 OFFCURVE",
"155 490 CURVE SMOOTH"
);
}
);
width = 406;
},
{
layerId = "7BE597F2-1213-4429-94A3-E96FC63EF83E";
paths = (
{
closed = 1;
nodes = (
"234 -6 OFFCURVE",
"273 42 OFFCURVE",
"273 133 CURVE SMOOTH",
"273 363 LINE SMOOTH",
"273 519 OFFCURVE",
"238 632 OFFCURVE",
"130 688 CURVE SMOOTH",
"128 689 OFFCURVE",
"127 689 OFFCURVE",
"126 687 CURVE SMOOTH",
"120 678 LINE SMOOTH",
"119 677 OFFCURVE",
"119 675 OFFCURVE",
"121 674 CURVE SMOOTH",
"217 625 OFFCURVE",
"257 523 OFFCURVE",
"257 363 CURVE SMOOTH",
"257 134 LINE SMOOTH",
"257 52 OFFCURVE",
"224 10 OFFCURVE",
"160 10 CURVE SMOOTH",
"96 10 OFFCURVE",
"63 52 OFFCURVE",
"63 134 CURVE SMOOTH",
"63 310 LINE SMOOTH",
"63 385 OFFCURVE",
"88 419 OFFCURVE",
"138 419 CURVE SMOOTH",
"185 419 OFFCURVE",
"228 373 OFFCURVE",
"261 330 CURVE",
"260 355 LINE",
"232 391 OFFCURVE",
"190 435 OFFCURVE",
"138 435 CURVE SMOOTH",
"81 435 OFFCURVE",
"47 395 OFFCURVE",
"47 313 CURVE SMOOTH",
"47 133 LINE SMOOTH",
"47 42 OFFCURVE",
"86 -6 OFFCURVE",
"160 -6 CURVE SMOOTH"
);
},
{
closed = 1;
nodes = (
"271 650 LINE SMOOTH",
"272 651 OFFCURVE",
"272 652 OFFCURVE",
"271 654 CURVE SMOOTH",
"265 664 LINE SMOOTH",
"264 665 OFFCURVE",
"263 665 OFFCURVE",
"262 664 CURVE SMOOTH",
"110 547 LINE SMOOTH",
"109 546 OFFCURVE",
"108 545 OFFCURVE",
"109 543 CURVE SMOOTH",
"114 534 LINE SMOOTH",
"115 532 OFFCURVE",
"117 532 OFFCURVE",
"118 533 CURVE SMOOTH"
);
}
);
width = 320;
},
{
layerId = "061E0761-0390-47CB-9723-8373CF82D209";
paths = (
{
closed = 1;
nodes = (
"258 -6 OFFCURVE",
"300 46 OFFCURVE",
"300 155 CURVE SMOOTH",
"300 365 LINE SMOOTH",
"300 535 OFFCURVE",
"246 644 OFFCURVE",
"145 688 CURVE SMOOTH",
"138 691 OFFCURVE",
"135 690 OFFCURVE",
"131 684 CURVE SMOOTH",
"109 651 LINE SMOOTH",
"106 645 OFFCURVE",
"106 641 OFFCURVE",
"114 637 CURVE SMOOTH",
"204 596 OFFCURVE",
"238 510 OFFCURVE",
"235 365 CURVE",
"235 156 LINE SMOOTH",
"235 85 OFFCURVE",
"216 57 OFFCURVE",
"169 57 CURVE SMOOTH",
"123 57 OFFCURVE",
"103 85 OFFCURVE",
"103 156 CURVE SMOOTH",
"103 315 LINE SMOOTH",
"103 373 OFFCURVE",
"123 398 OFFCURVE",
"157 398 CURVE SMOOTH",
"192 398 OFFCURVE",
"223 367 OFFCURVE",
"244 334 CURVE",
"244 402 LINE",
"222 433 OFFCURVE",
"183 461 OFFCURVE",
"140 461 CURVE SMOOTH",
"79 461 OFFCURVE",
"38 416 OFFCURVE",
"38 319 CURVE SMOOTH",
"38 155 LINE SMOOTH",
"38 46 OFFCURVE",
"80 -6 OFFCURVE",
"169 -6 CURVE SMOOTH"
);
},
{
closed = 1;
nodes = (
"286 637 LINE SMOOTH",
"289 639 OFFCURVE",
"291 643 OFFCURVE",
"288 647 CURVE SMOOTH",
"269 676 LINE SMOOTH",
"266 681 OFFCURVE",
"265 681 OFFCURVE",
"260 678 CURVE SMOOTH",
"106 564 LINE SMOOTH",
"102 561 OFFCURVE",
"100 558 OFFCURVE",
"102 554 CURVE SMOOTH",
"123 522 LINE SMOOTH",
"126 518 OFFCURVE",
"129 519 OFFCURVE",
"132 521 CURVE SMOOTH"
);
}
);
width = 338;
}
);
leftKerningGroup = o;
leftMetricsKey = o;
rightKerningGroup = o;
rightMetricsKey = o;
unicode = 00F0;
},
{
glyphname = dcroat;
lastChange = "2022-10-25 01:43:39 +0000";
layers = (
{
components = (
{
name = d;
}
);
layerId = "9DFF46AD-73DE-422E-A6A3-16745129C94E";
paths = (
{
closed = 1;
nodes = (
"382 548 LINE",
"405 548 LINE SMOOTH",
"412 548 OFFCURVE",
"417 554 OFFCURVE",
"417 562 CURVE SMOOTH",
"417 632 LINE SMOOTH",
"417 640 OFFCURVE",
"413 645 OFFCURVE",
"405 645 CURVE SMOOTH",
"170 645 LINE SMOOTH",
"163 645 OFFCURVE",
"158 640 OFFCURVE",
"158 632 CURVE SMOOTH",
"158 562 LINE SMOOTH",
"158 554 OFFCURVE",
"163 548 OFFCURVE",
"170 548 CURVE SMOOTH"
);
}
);
width = 416;
},
{
components = (
{
name = d;
}
);
layerId = "7BE597F2-1213-4429-94A3-E96FC63EF83E";
paths = (
{
closed = 1;
nodes = (
"270 584 LINE",
"321 584 LINE SMOOTH",
"323 584 OFFCURVE",
"324 585 OFFCURVE",
"324 587 CURVE SMOOTH",
"324 597 LINE SMOOTH",
"324 599 OFFCURVE",
"323 600 OFFCURVE",
"321 600 CURVE SMOOTH",
"163 600 LINE SMOOTH",
"161 600 OFFCURVE",
"160 599 OFFCURVE",
"160 597 CURVE SMOOTH",
"160 587 LINE SMOOTH",
"160 585 OFFCURVE",
"161 584 OFFCURVE",
"163 584 CURVE SMOOTH"
);
}
);
width = 330;
},
{
components = (
{
alignment = -1;
name = d;
}
);
layerId = "061E0761-0390-47CB-9723-8373CF82D209";
paths = (
{
closed = 1;
nodes = (
"292 558 LINE",
"332 558 LINE SMOOTH",
"336 558 OFFCURVE",
"339 562 OFFCURVE",
"339 567 CURVE SMOOTH",
"339 609 LINE SMOOTH",
"339 614 OFFCURVE",
"336 617 OFFCURVE",
"332 617 CURVE SMOOTH",
"167 617 LINE SMOOTH",
"163 617 OFFCURVE",
"160 614 OFFCURVE",
"160 609 CURVE SMOOTH",
"160 567 LINE SMOOTH",
"160 562 OFFCURVE",
"163 558 OFFCURVE",
"167 558 CURVE SMOOTH"
);
}
);
width = 338;
}
);
leftKerningGroup = o;
leftMetricsKey = "=o+2";
rightKerningGroup = dcroat;
unicode = 0111;
},
{
glyphname = e;
lastChange = "2022-10-25 01:43:39 +0000";
layers = (
{
anchors = (
{
name = bottom;
position = "{207, 0}";
},
{
name = ogonek;
position = "{303, 10}";
},
{
name = top;
position = "{204, 500}";
}
);
layerId = "9DFF46AD-73DE-422E-A6A3-16745129C94E";
paths = (
{
closed = 1;
nodes = (
"324.613 -6 OFFCURVE",
"380.011 43.764 OFFCURVE",
"379 153 CURVE SMOOTH",
"379 162 OFFCURVE",
"375 166 OFFCURVE",
"366 166 CURVE SMOOTH",
"239 166 LINE SMOOTH",
"231.833 166 OFFCURVE",
"228 161.818 OFFCURVE",
"228 154 CURVE SMOOTH",
"228 124.231 OFFCURVE",
"220.878 113 OFFCURVE",
"202 113 CURVE SMOOTH",
"184.192 113 OFFCURVE",
"178 123.062 OFFCURVE",
"178 152 CURVE SMOOTH",
"178 212 LINE",
"373 212 LINE SMOOTH",
"381.7 212 OFFCURVE",
"387 217.679 OFFCURVE",
"387 227 CURVE SMOOTH",
"387 313 LINE SMOOTH",
"387 444.39 OFFCURVE",
"327.624 506 OFFCURVE",
"201 506 CURVE SMOOTH",
"87 506 OFFCURVE",
"21 439 OFFCURVE",
"21 323 CURVE SMOOTH",
"21 167 LINE SMOOTH",
"21 48 OFFCURVE",
"80.006 -6 OFFCURVE",
"202 -6 CURVE SMOOTH"
);
},
{
closed = 1;
nodes = (
"178 351 LINE SMOOTH",
"178 375.654 OFFCURVE",
"186.194 387 OFFCURVE",
"204 387 CURVE SMOOTH",
"221.806 387 OFFCURVE",
"230 375.654 OFFCURVE",
"230 351 CURVE SMOOTH",
"230 300 LINE",
"178 300 LINE"
);
}
);
width = 408;
},
{
anchors = (
{
name = bottom;
position = "{155, 0}";
},
{
name = ogonek;
position = "{202, 10}";
},
{
name = top;
position = "{155, 478}";
}
);
layerId = "7BE597F2-1213-4429-94A3-E96FC63EF83E";
paths = (
{
closed = 1;
nodes = (
"227 -6 OFFCURVE",
"259 35 OFFCURVE",
"259 119 CURVE SMOOTH",
"259 121 OFFCURVE",
"258 122 OFFCURVE",
"257 122 CURVE SMOOTH",
"245 122 LINE SMOOTH",
"244 122 OFFCURVE",
"243 121 OFFCURVE",
"243 119 CURVE SMOOTH",
"242 47 OFFCURVE",
"219 10 OFFCURVE",
"160 10 CURVE SMOOTH",
"95 10 OFFCURVE",
"63 55 OFFCURVE",
"63 141 CURVE SMOOTH",
"63 248 LINE",
"261 248 LINE SMOOTH",
"264 248 OFFCURVE",
"265 249 OFFCURVE",
"265 252 CURVE SMOOTH",
"265 342 LINE SMOOTH",
"265 437 OFFCURVE",
"222 484 OFFCURVE",
"156 484 CURVE SMOOTH",
"90 484 OFFCURVE",
"47 440 OFFCURVE",
"47 341 CURVE SMOOTH",
"47 140 LINE SMOOTH",
"47 41 OFFCURVE",
"86 -6 OFFCURVE",
"160 -6 CURVE SMOOTH"
);
},
{
closed = 1;
nodes = (
"63 341 LINE SMOOTH",
"63 424 OFFCURVE",
"98 468 OFFCURVE",
"156 468 CURVE SMOOTH",
"214 468 OFFCURVE",
"249 422 OFFCURVE",
"249 341 CURVE SMOOTH",
"249 264 LINE",
"63 264 LINE"
);
}
);
width = 310;
},
{
anchors = (
{
name = bottom;
position = "{167, 0}";
},
{
name = ogonek;
position = "{226, 11}";
},
{
name = top;
position = "{164, 486}";
}
);
layerId = "061E0761-0390-47CB-9723-8373CF82D209";
paths = (
{
closed = 1;
nodes = (
"246 -6 OFFCURVE",
"288 41 OFFCURVE",
"286 125 CURVE SMOOTH",
"286 130 OFFCURVE",
"284 133 OFFCURVE",
"279 133 CURVE SMOOTH",
"231 133 LINE SMOOTH",
"227 133 OFFCURVE",
"224 129 OFFCURVE",
"225 123 CURVE SMOOTH",
"227 79 OFFCURVE",
"209 57 OFFCURVE",
"169 57 CURVE SMOOTH",
"122 57 OFFCURVE",
"103 89 OFFCURVE",
"103 167 CURVE SMOOTH",
"103 228 LINE",
"285 228 LINE SMOOTH",
"289 228 OFFCURVE",
"292 231 OFFCURVE",
"292 236 CURVE SMOOTH",
"292 335 LINE SMOOTH",
"292 439 OFFCURVE",
"247 492 OFFCURVE",
"165 492 CURVE SMOOTH",
"81 492 OFFCURVE",
"38 443 OFFCURVE",
"38 333 CURVE SMOOTH",
"38 166 LINE SMOOTH",
"38 49 OFFCURVE",
"80 -6 OFFCURVE",
"169 -6 CURVE SMOOTH"
);
},
{
closed = 1;
nodes = (
"103 334 LINE SMOOTH",
"103 401 OFFCURVE",
"122 430 OFFCURVE",
"165 430 CURVE SMOOTH",
"209 430 OFFCURVE",
"227 402 OFFCURVE",
"227 334 CURVE SMOOTH",
"227 289 LINE",
"103 289 LINE"
);
}
);
width = 327;
}
);
leftKerningGroup = o;
leftMetricsKey = o;
rightKerningGroup = e;
unicode = 0065;
},
{
glyphname = f;
lastChange = "2022-10-25 01:43:39 +0000";
layers = (
{
anchors = (
{
name = bottom;
position = "{157, 0}";
},
{
name = top;
position = "{157, 497}";
}
);
layerId = "9DFF46AD-73DE-422E-A6A3-16745129C94E";
paths = (
{
closed = 1;
nodes = (
"214 0 LINE SMOOTH",
"221 0 OFFCURVE",
"227 6 OFFCURVE",
"227 14 CURVE SMOOTH",
"227 363 LINE",
"278 363 LINE SMOOTH",
"288 363 OFFCURVE",
"292 369 OFFCURVE",
"292 377 CURVE SMOOTH",
"292 486 LINE SMOOTH",
"292 494 OFFCURVE",
"288 500 OFFCURVE",
"278 500 CURVE SMOOTH",
"227 500 LINE",
"227 520 LINE SMOOTH",
"227 549 OFFCURVE",
"237 564 OFFCURVE",
"261 564 CURVE SMOOTH",
"279 564 OFFCURVE",
"296 560 OFFCURVE",
"310 556 CURVE SMOOTH",
"316 554 OFFCURVE",
"320 557 OFFCURVE",
"320 568 CURVE SMOOTH",
"320 665 LINE SMOOTH",
"320 672 OFFCURVE",
"319 675 OFFCURVE",
"314 677 CURVE SMOOTH",
"296 683 OFFCURVE",
"254 689 OFFCURVE",
"207 689 CURVE SMOOTH",
"111 689 OFFCURVE",
"67 634 OFFCURVE",
"67 527 CURVE SMOOTH",
"67 500 LINE",
"24 500 LINE SMOOTH",
"14 500 OFFCURVE",
"10 494 OFFCURVE",
"10 487 CURVE SMOOTH",
"10 377 LINE SMOOTH",
"10 369 OFFCURVE",
"14 363 OFFCURVE",
"24 363 CURVE SMOOTH",
"67 363 LINE",
"67 14 LINE SMOOTH",
"67 6 OFFCURVE",
"73 0 OFFCURVE",
"79 0 CURVE SMOOTH"
);
}
);
width = 307;
},
{
anchors = (
{
name = bottom;
position = "{110, 0}";
},
{
name = top;
position = "{110, 478}";
}
);
layerId = "7BE597F2-1213-4429-94A3-E96FC63EF83E";
paths = (
{
closed = 1;
nodes = (
"89 0 LINE SMOOTH",
"91 0 OFFCURVE",
"92 1 OFFCURVE",
"92 3 CURVE SMOOTH",
"92 462 LINE",
"198 462 LINE SMOOTH",
"200 462 OFFCURVE",
"201 463 OFFCURVE",
"201 465 CURVE SMOOTH",
"201 475 LINE SMOOTH",
"201 477 OFFCURVE",
"200 478 OFFCURVE",
"198 478 CURVE SMOOTH",
"92 478 LINE",
"92 565 LINE SMOOTH",
"92 641 OFFCURVE",
"108 673 OFFCURVE",
"160 673 CURVE SMOOTH",
"178 673 OFFCURVE",
"197 668 OFFCURVE",
"213 663 CURVE SMOOTH",
"215 662 OFFCURVE",
"216 663 OFFCURVE",
"216 665 CURVE SMOOTH",
"216 675 LINE SMOOTH",
"216 677 OFFCURVE",
"216 678 OFFCURVE",
"214 679 CURVE SMOOTH",
"201 684 OFFCURVE",
"181 689 OFFCURVE",
"160 689 CURVE SMOOTH",
"99 689 OFFCURVE",
"76 653 OFFCURVE",
"76 565 CURVE SMOOTH",
"76 478 LINE",
"26 478 LINE SMOOTH",
"24 478 OFFCURVE",
"23 477 OFFCURVE",
"23 475 CURVE SMOOTH",
"23 465 LINE SMOOTH",
"23 463 OFFCURVE",
"24 462 OFFCURVE",
"26 462 CURVE SMOOTH",
"76 462 LINE",
"76 3 LINE SMOOTH",
"76 1 OFFCURVE",
"77 0 OFFCURVE",
"79 0 CURVE SMOOTH"
);
}
);
width = 220;
},
{
anchors = (
{
name = bottom;
position = "{120, 0}";
},
{
name = top;
position = "{120, 486}";
}
);
layerId = "061E0761-0390-47CB-9723-8373CF82D209";
paths = (
{
closed = 1;
nodes = (
"126 0 LINE SMOOTH",
"131 0 OFFCURVE",
"134 3 OFFCURVE",
"134 9 CURVE SMOOTH",
"134 424 LINE",
"212 424 LINE SMOOTH",
"217 424 OFFCURVE",
"220 426 OFFCURVE",
"220 432 CURVE SMOOTH",
"220 477 LINE SMOOTH",
"220 483 OFFCURVE",
"217 486 OFFCURVE",
"212 486 CURVE SMOOTH",
"134 486 LINE",
"134 557 LINE SMOOTH",
"134 608 OFFCURVE",
"147 626 OFFCURVE",
"179 626 CURVE SMOOTH",
"198 626 OFFCURVE",
"214 621 OFFCURVE",
"227 616 CURVE SMOOTH",
"234 612 OFFCURVE",
"239 615 OFFCURVE",
"239 621 CURVE SMOOTH",
"239 663 LINE SMOOTH",
"239 670 OFFCURVE",
"238 672 OFFCURVE",
"231 677 CURVE SMOOTH",
"219 683 OFFCURVE",
"194 689 OFFCURVE",
"165 689 CURVE SMOOTH",
"100 689 OFFCURVE",
"69 646 OFFCURVE",
"69 558 CURVE SMOOTH",
"69 486 LINE",
"25 486 LINE SMOOTH",
"20 486 OFFCURVE",
"17 483 OFFCURVE",
"17 477 CURVE SMOOTH",
"17 432 LINE SMOOTH",
"17 426 OFFCURVE",
"20 424 OFFCURVE",
"25 424 CURVE SMOOTH",
"69 424 LINE",
"69 9 LINE SMOOTH",
"69 3 OFFCURVE",
"71 0 OFFCURVE",
"76 0 CURVE SMOOTH"
);
}
);
width = 240;
}
);
leftKerningGroup = f;
rightKerningGroup = f;
unicode = 0066;
},
{
glyphname = g;
lastChange = "2022-10-25 01:43:39 +0000";
layers = (
{
anchors = (
{
name = bottom;
position = "{197, 0}";
},
{
name = top;
position = "{197, 500}";
}
);
layerId = "9DFF46AD-73DE-422E-A6A3-16745129C94E";
paths = (
{
closed = 1;
nodes = (
"340 -191 OFFCURVE",
"402 -144 OFFCURVE",
"402 -38 CURVE SMOOTH",
"402 63 OFFCURVE",
"365 106 OFFCURVE",
"273 116 CURVE SMOOTH",
"185 126 LINE SMOOTH",
"160 129 OFFCURVE",
"155 134 OFFCURVE",
"155 144 CURVE SMOOTH",
"155 152 OFFCURVE",
"162 161 OFFCURVE",
"180 166 CURVE",
"97 201 LINE",
"48 180 OFFCURVE",
"23 147 OFFCURVE",
"23 102 CURVE SMOOTH",
"23 44 OFFCURVE",
"55 9 OFFCURVE",
"117 3 CURVE SMOOTH",
"213 -6 LINE SMOOTH",
"244 -9 OFFCURVE",
"252 -17 OFFCURVE",
"252 -39 CURVE SMOOTH",
"252 -63 OFFCURVE",
"239 -72 OFFCURVE",
"199 -71 CURVE SMOOTH",
"168 -70 OFFCURVE",
"155 -60 OFFCURVE",
"155 -40 CURVE SMOOTH",
"155 -22 OFFCURVE",
"163 -10 OFFCURVE",
"183 4 CURVE",
"74 31 LINE",
"21 5 OFFCURVE",
"-3 -30 OFFCURVE",
"-3 -82 CURVE SMOOTH",
"-3 -157 OFFCURVE",
"56 -191 OFFCURVE",
"190 -191 CURVE SMOOTH"
);
},
{
closed = 1;
nodes = (
"322 154 OFFCURVE",
"367 207 OFFCURVE",
"367 334 CURVE SMOOTH",
"367 453 OFFCURVE",
"322 506 OFFCURVE",
"200 506 CURVE SMOOTH",
"78 506 OFFCURVE",
"33 453 OFFCURVE",
"33 334 CURVE SMOOTH",
"33 207 OFFCURVE",
"78 154 OFFCURVE",
"200 154 CURVE SMOOTH"
);
},
{
closed = 1;
nodes = (
"183 271 OFFCURVE",
"179 280 OFFCURVE",
"179 329 CURVE SMOOTH",
"179 378 OFFCURVE",
"183 388 OFFCURVE",
"200 388 CURVE SMOOTH",
"218 388 OFFCURVE",
"221 379 OFFCURVE",
"221 329 CURVE SMOOTH",
"221 279 OFFCURVE",
"218 271 OFFCURVE",
"200 271 CURVE SMOOTH"
);
},
{
closed = 1;
nodes = (
"323 498 OFFCURVE",
"331 543 OFFCURVE",
"343 611 CURVE SMOOTH",
"345 622 OFFCURVE",
"342 626 OFFCURVE",
"332 626 CURVE SMOOTH",
"237 626 LINE SMOOTH",
"232 626 OFFCURVE",
"228 622 OFFCURVE",
"227 614 CURVE SMOOTH",
"223 580 OFFCURVE",
"221 535 OFFCURVE",
"223 493 CURVE",
"322 456 LINE"
);
}
);
width = 402;
},
{
anchors = (
{
name = bottom;
position = "{155, 0}";
},
{
name = top;
position = "{155, 478}";
}
);
layerId = "7BE597F2-1213-4429-94A3-E96FC63EF83E";
paths = (
{
closed = 1;
nodes = (
"243 -191 OFFCURVE",
"280 -154 OFFCURVE",
"280 -67 CURVE SMOOTH",
"280 7 OFFCURVE",
"255 41 OFFCURVE",
"196 50 CURVE SMOOTH",
"127 60 LINE SMOOTH",
"88 66 OFFCURVE",
"67 88 OFFCURVE",
"67 122 CURVE SMOOTH",
"67 155 OFFCURVE",
"86 175 OFFCURVE",
"125 194 CURVE",
"111 205 LINE",
"70 181 OFFCURVE",
"51 158 OFFCURVE",
"51 122 CURVE SMOOTH",
"51 82 OFFCURVE",
"75 52 OFFCURVE",
"117 46 CURVE SMOOTH",
"191 35 LINE SMOOTH",
"244 27 OFFCURVE",
"264 -1 OFFCURVE",
"264 -67 CURVE SMOOTH",
"264 -145 OFFCURVE",
"233 -175 OFFCURVE",
"156 -175 CURVE SMOOTH",
"78 -175 OFFCURVE",
"47 -146 OFFCURVE",
"47 -70 CURVE SMOOTH",
"47 -12 OFFCURVE",
"71 23 OFFCURVE",
"132 52 CURVE",
"109 56 LINE",
"56 31 OFFCURVE",
"31 -11 OFFCURVE",
"31 -70 CURVE SMOOTH",
"31 -156 OFFCURVE",
"68 -191 OFFCURVE",
"155 -191 CURVE SMOOTH"
);
},
{
closed = 1;
nodes = (
"237 180 OFFCURVE",
"263 229 OFFCURVE",
"263 332 CURVE SMOOTH",
"263 436 OFFCURVE",
"237 484 OFFCURVE",
"160 484 CURVE SMOOTH",
"83 484 OFFCURVE",
"57 436 OFFCURVE",
"57 332 CURVE SMOOTH",
"57 229 OFFCURVE",
"83 180 OFFCURVE",
"160 180 CURVE SMOOTH"
);
},
{
closed = 1;
nodes = (
"94 196 OFFCURVE",
"73 240 OFFCURVE",
"73 332 CURVE SMOOTH",
"73 425 OFFCURVE",
"94 468 OFFCURVE",
"160 468 CURVE SMOOTH",
"226 468 OFFCURVE",
"247 425 OFFCURVE",
"247 332 CURVE SMOOTH",
"247 240 OFFCURVE",
"226 196 OFFCURVE",
"160 196 CURVE SMOOTH"
);
},
{
closed = 1;
nodes = (
"223 515 OFFCURVE",
"230 571 OFFCURVE",
"238 604 CURVE SMOOTH",
"238 606 OFFCURVE",
"238 608 OFFCURVE",
"235 608 CURVE SMOOTH",
"226 608 LINE SMOOTH",
"224 608 OFFCURVE",
"223 607 OFFCURVE",
"222 604 CURVE SMOOTH",
"215 573 OFFCURVE",
"208 513 OFFCURVE",
"204 464 CURVE",
"219 464 LINE"
);
}
);
width = 308;
},
{
anchors = (
{
name = bottom;
position = "{164, 0}";
},
{
name = top;
position = "{164, 486}";
}
);
layerId = "061E0761-0390-47CB-9723-8373CF82D209";
paths = (
{
closed = 1;
nodes = (
"262 -191 OFFCURVE",
"306 -148 OFFCURVE",
"306 -57 CURVE SMOOTH",
"306 30 OFFCURVE",
"275 70 OFFCURVE",
"207 77 CURVE SMOOTH",
"140 85 LINE SMOOTH",
"113 88 OFFCURVE",
"102 102 OFFCURVE",
"102 124 CURVE SMOOTH",
"102 148 OFFCURVE",
"119 165 OFFCURVE",
"146 174 CURVE",
"106 202 LINE",
"82 188 OFFCURVE",
"42 161 OFFCURVE",
"42 109 CURVE SMOOTH",
"42 63 OFFCURVE",
"69 30 OFFCURVE",
"119 26 CURVE SMOOTH",
"185 20 LINE SMOOTH",
"226 16 OFFCURVE",
"242 -6 OFFCURVE",
"242 -53 CURVE SMOOTH",
"242 -105 OFFCURVE",
"221 -129 OFFCURVE",
"163 -129 CURVE SMOOTH",
"110 -129 OFFCURVE",
"88 -109 OFFCURVE",
"88 -59 CURVE SMOOTH",
"88 -19 OFFCURVE",
"109 15 OFFCURVE",
"139 30 CURVE",
"96 53 LINE",
"49 27 OFFCURVE",
"23 -13 OFFCURVE",
"23 -70 CURVE SMOOTH",
"23 -150 OFFCURVE",
"65 -191 OFFCURVE",
"161 -191 CURVE SMOOTH"
);
},
{
closed = 1;
nodes = (
"249 162 OFFCURVE",
"283 211 OFFCURVE",
"283 327 CURVE SMOOTH",
"283 443 OFFCURVE",
"249 492 OFFCURVE",
"167 492 CURVE SMOOTH",
"84 492 OFFCURVE",
"50 443 OFFCURVE",
"50 327 CURVE SMOOTH",
"50 211 OFFCURVE",
"86 162 OFFCURVE",
"167 162 CURVE SMOOTH"
);
},
{
closed = 1;
nodes = (
"125 223 OFFCURVE",
"114 250 OFFCURVE",
"114 327 CURVE SMOOTH",
"114 404 OFFCURVE",
"125 431 OFFCURVE",
"167 431 CURVE SMOOTH",
"209 431 OFFCURVE",
"220 404 OFFCURVE",
"220 327 CURVE SMOOTH",
"220 250 OFFCURVE",
"209 223 OFFCURVE",
"167 223 CURVE SMOOTH"
);
},
{
closed = 1;
nodes = (
"248 522 OFFCURVE",
"256 568 OFFCURVE",
"263 607 CURVE SMOOTH",
"264 613 OFFCURVE",
"263 616 OFFCURVE",
"257 616 CURVE SMOOTH",
"214 616 LINE SMOOTH",
"210 616 OFFCURVE",
"208 613 OFFCURVE",
"207 606 CURVE SMOOTH",
"203 576 OFFCURVE",
"198 532 OFFCURVE",
"195 471 CURVE",
"245 447 LINE"
);
}
);
width = 325;
}
);
leftKerningGroup = g;
rightKerningGroup = g;
unicode = 0067;
},
{
glyphname = h;
lastChange = "2022-10-25 01:43:39 +0000";
layers = (
{
anchors = (
{
name = bottom;
position = "{202, 0}";
},
{
name = center;
position = "{206, 249}";
},
{
name = top;
position = "{219, 533}";
}
);
layerId = "9DFF46AD-73DE-422E-A6A3-16745129C94E";
paths = (
{
closed = 1;
nodes = (
"373 0 LINE SMOOTH",
"380 0 OFFCURVE",
"385 6 OFFCURVE",
"385 14 CURVE SMOOTH",
"385 372 LINE SMOOTH",
"385 466 OFFCURVE",
"357 506 OFFCURVE",
"292 506 CURVE SMOOTH",
"233 506 OFFCURVE",
"183 464 OFFCURVE",
"154 419 CURVE",
"181 357 LINE",
"188 364 OFFCURVE",
"198 369 OFFCURVE",
"207 369 CURVE SMOOTH",
"220 369 OFFCURVE",
"225 363 OFFCURVE",
"225 344 CURVE SMOOTH",
"225 14 LINE SMOOTH",
"225 6 OFFCURVE",
"230 0 OFFCURVE",
"237 0 CURVE SMOOTH"
);
},
{
closed = 1;
nodes = (
"172 0 LINE SMOOTH",
"179 0 OFFCURVE",
"184 6 OFFCURVE",
"184 14 CURVE SMOOTH",
"184 669 LINE SMOOTH",
"184 677 OFFCURVE",
"179 683 OFFCURVE",
"172 683 CURVE SMOOTH",
"36 683 LINE SMOOTH",
"29 683 OFFCURVE",
"24 677 OFFCURVE",
"24 669 CURVE SMOOTH",
"24 14 LINE SMOOTH",
"24 6 OFFCURVE",
"29 0 OFFCURVE",
"36 0 CURVE SMOOTH"
);
}
);
width = 409;
},
{
anchors = (
{
name = bottom;
position = "{173, 0}";
},
{
name = center;
position = "{173, 239}";
},
{
name = top;
position = "{173, 478}";
}
);
layerId = "7BE597F2-1213-4429-94A3-E96FC63EF83E";
paths = (
{
closed = 1;
nodes = (
"280 0 LINE SMOOTH",
"282 0 OFFCURVE",
"283 1 OFFCURVE",
"283 3 CURVE SMOOTH",
"283 357 LINE SMOOTH",
"283 447 OFFCURVE",
"254 484 OFFCURVE",
"204 484 CURVE SMOOTH",
"155 484 OFFCURVE",
"113 446 OFFCURVE",
"72 397 CURVE",
"72 376 LINE",
"112 425 OFFCURVE",
"155 468 OFFCURVE",
"203 468 CURVE SMOOTH",
"246 468 OFFCURVE",
"267 432 OFFCURVE",
"267 354 CURVE SMOOTH",
"267 3 LINE SMOOTH",
"267 1 OFFCURVE",
"268 0 OFFCURVE",
"270 0 CURVE SMOOTH"
);
},
{
closed = 1;
nodes = (
"74 0 LINE SMOOTH",
"75 0 OFFCURVE",
"76 1 OFFCURVE",
"76 3 CURVE SMOOTH",
"76 680 LINE SMOOTH",
"76 682 OFFCURVE",
"75 683 OFFCURVE",
"73 683 CURVE SMOOTH",
"63 683 LINE SMOOTH",
"61 683 OFFCURVE",
"60 682 OFFCURVE",
"60 680 CURVE SMOOTH",
"60 3 LINE SMOOTH",
"60 1 OFFCURVE",
"61 0 OFFCURVE",
"62 0 CURVE SMOOTH"
);
}
);
width = 343;
},
{
anchors = (
{
name = bottom;
position = "{175, 0}";
},
{
name = center;
position = "{173, 243}";
},
{
name = top;
position = "{163, 630}";
}
);
layerId = "061E0761-0390-47CB-9723-8373CF82D209";
paths = (
{
closed = 1;
nodes = (
"294 0 LINE SMOOTH",
"299 0 OFFCURVE",
"301 3 OFFCURVE",
"301 9 CURVE SMOOTH",
"301 370 LINE SMOOTH",
"301 453 OFFCURVE",
"273 492 OFFCURVE",
"218 492 CURVE SMOOTH",
"174 492 OFFCURVE",
"137 467 OFFCURVE",
"99 419 CURVE",
"104 365 LINE",
"137 408 OFFCURVE",
"167 430 OFFCURVE",
"194 430 CURVE SMOOTH",
"223 430 OFFCURVE",
"236 410 OFFCURVE",
"236 366 CURVE SMOOTH",
"236 9 LINE SMOOTH",
"236 3 OFFCURVE",
"239 0 OFFCURVE",
"243 0 CURVE SMOOTH"
);
},
{
closed = 1;
nodes = (
"104 0 LINE SMOOTH",
"108 0 OFFCURVE",
"111 3 OFFCURVE",
"111 9 CURVE SMOOTH",
"111 674 LINE SMOOTH",
"111 680 OFFCURVE",
"108 683 OFFCURVE",
"104 683 CURVE SMOOTH",
"53 683 LINE SMOOTH",
"49 683 OFFCURVE",
"46 680 OFFCURVE",
"46 674 CURVE SMOOTH",
"46 9 LINE SMOOTH",
"46 3 OFFCURVE",
"49 0 OFFCURVE",
"53 0 CURVE SMOOTH"
);
}
);
width = 347;
}
);
leftKerningGroup = h;
rightKerningGroup = n;
rightMetricsKey = n;
unicode = 0068;
},
{
glyphname = hbar;
lastChange = "2022-10-25 01:43:39 +0000";
layers = (
{
components = (
{
name = h;
transform = "{1, 0, 0, 1, 10, 0}";
}
);
layerId = "9DFF46AD-73DE-422E-A6A3-16745129C94E";
rightMetricsKey = "=h";
paths = (
{
closed = 1;
nodes = (
"34 548 LINE",
"246 548 LINE SMOOTH",
"253 548 OFFCURVE",
"258 554 OFFCURVE",
"258 562 CURVE SMOOTH",
"258 632 LINE SMOOTH",
"258 640 OFFCURVE",
"253 645 OFFCURVE",
"246 645 CURVE SMOOTH",
"11 645 LINE SMOOTH",
"3 645 OFFCURVE",
"-1 640 OFFCURVE",
"-1 632 CURVE SMOOTH",
"-1 562 LINE SMOOTH",
"-1 554 OFFCURVE",
"4 548 OFFCURVE",
"11 548 CURVE SMOOTH"
);
}
);
width = 419;
},
{
components = (
{
name = h;
}
);
layerId = "7BE597F2-1213-4429-94A3-E96FC63EF83E";
paths = (
{
closed = 1;
nodes = (
"60 584 LINE",
"167 584 LINE SMOOTH",
"169 584 OFFCURVE",
"170 585 OFFCURVE",
"170 587 CURVE SMOOTH",
"170 597 LINE SMOOTH",
"170 599 OFFCURVE",
"169 600 OFFCURVE",
"167 600 CURVE SMOOTH",
"9 600 LINE SMOOTH",
"7 600 OFFCURVE",
"6 599 OFFCURVE",
"6 597 CURVE SMOOTH",
"6 587 LINE SMOOTH",
"6 585 OFFCURVE",
"7 584 OFFCURVE",
"9 584 CURVE SMOOTH"
);
}
);
width = 343;
},
{
components = (
{
alignment = -1;
name = h;
}
);
layerId = "061E0761-0390-47CB-9723-8373CF82D209";
paths = (
{
closed = 1;
nodes = (
"46 558 LINE",
"171 558 LINE SMOOTH",
"176 558 OFFCURVE",
"178 562 OFFCURVE",
"178 567 CURVE SMOOTH",
"178 609 LINE SMOOTH",
"178 614 OFFCURVE",
"176 617 OFFCURVE",
"171 617 CURVE SMOOTH",
"7 617 LINE SMOOTH",
"2 617 OFFCURVE",
"-1 614 OFFCURVE",
"-1 609 CURVE SMOOTH",
"-1 567 LINE SMOOTH",
"-1 562 OFFCURVE",
"2 558 OFFCURVE",
"7 558 CURVE SMOOTH"
);
}
);
width = 347;
}
);
leftKerningGroup = hbar;
leftMetricsKey = "=|dcroat";
rightKerningGroup = n;
rightMetricsKey = h;
unicode = 0127;
},
{
glyphname = idotless;
lastChange = "2022-10-25 01:43:39 +0000";
layers = (
{
anchors = (
{
name = bottom;
position = "{104, 0}";
},
{
name = ogonek;
position = "{172, 10}";
},
{
name = top;
position = "{104, 500}";
}
);
layerId = "9DFF46AD-73DE-422E-A6A3-16745129C94E";
paths = (
{
closed = 1;
nodes = (
"172 0 LINE SMOOTH",
"179 0 OFFCURVE",
"184 6 OFFCURVE",
"184 14 CURVE SMOOTH",
"184 487 LINE SMOOTH",
"184 495 OFFCURVE",
"179 500 OFFCURVE",
"172 500 CURVE SMOOTH",
"36 500 LINE SMOOTH",
"29 500 OFFCURVE",
"24 495 OFFCURVE",
"24 487 CURVE SMOOTH",
"24 14 LINE SMOOTH",
"24 6 OFFCURVE",
"29 0 OFFCURVE",
"36 0 CURVE SMOOTH"
);
}
);
width = 208;
},
{
anchors = (
{
name = bottom;
position = "{68, 0}";
},
{
name = ogonek;
position = "{80, 10}";
},
{
name = top;
position = "{68, 478}";
}
);
layerId = "7BE597F2-1213-4429-94A3-E96FC63EF83E";
paths = (
{
closed = 1;
nodes = (
"73 0 LINE SMOOTH",
"75 0 OFFCURVE",
"76 1 OFFCURVE",
"76 3 CURVE SMOOTH",
"76 475 LINE SMOOTH",
"76 477 OFFCURVE",
"75 478 OFFCURVE",
"73 478 CURVE SMOOTH",
"63 478 LINE SMOOTH",
"61 478 OFFCURVE",
"60 477 OFFCURVE",
"60 475 CURVE SMOOTH",
"60 3 LINE SMOOTH",
"60 1 OFFCURVE",
"61 0 OFFCURVE",
"63 0 CURVE SMOOTH"
);
}
);
width = 136;
},
{
anchors = (
{
name = bottom;
position = "{79, 0}";
},
{
name = ogonek;
position = "{110, 10}";
},
{
name = top;
position = "{79, 486}";
}
);
layerId = "061E0761-0390-47CB-9723-8373CF82D209";
paths = (
{
closed = 1;
nodes = (
"104 0 LINE SMOOTH",
"108 0 OFFCURVE",
"111 3 OFFCURVE",
"111 9 CURVE SMOOTH",
"111 477 LINE SMOOTH",
"111 483 OFFCURVE",
"108 486 OFFCURVE",
"104 486 CURVE SMOOTH",
"53 486 LINE SMOOTH",
"49 486 OFFCURVE",
"46 483 OFFCURVE",
"46 477 CURVE SMOOTH",
"46 9 LINE SMOOTH",
"46 3 OFFCURVE",
"49 0 OFFCURVE",
"53 0 CURVE SMOOTH"
);
}
);
width = 157;
}
);
leftKerningGroup = n;
leftMetricsKey = u;
rightKerningGroup = u;
rightMetricsKey = n;
unicode = 0131;
},
{
glyphname = jdotless;
lastChange = "2022-10-25 01:43:39 +0000";
layers = (
{
anchors = (
{
name = bottom;
position = "{107, 0}";
},
{
name = top;
position = "{107, 500}";
}
);
layerId = "9DFF46AD-73DE-422E-A6A3-16745129C94E";
paths = (
{
closed = 1;
nodes = (
"163 -122 OFFCURVE",
"184 -55 OFFCURVE",
"184 87 CURVE SMOOTH",
"184 487 LINE SMOOTH",
"184 495 OFFCURVE",
"179 500 OFFCURVE",
"172 500 CURVE SMOOTH",
"36 500 LINE SMOOTH",
"29 500 OFFCURVE",
"24 495 OFFCURVE",
"24 487 CURVE SMOOTH",
"24 85 LINE SMOOTH",
"24 -3 OFFCURVE",
"16 -43 OFFCURVE",
"-18 -77 CURVE SMOOTH",
"-24 -83 OFFCURVE",
"-22 -89 OFFCURVE",
"-17 -95 CURVE SMOOTH",
"62 -184 LINE SMOOTH",
"66 -189 OFFCURVE",
"71 -191 OFFCURVE",
"75 -188 CURVE SMOOTH"
);
}
);
width = 208;
},
{
anchors = (
{
name = bottom;
position = "{62, 0}";
},
{
name = top;
position = "{62, 478}";
}
);
layerId = "7BE597F2-1213-4429-94A3-E96FC63EF83E";
paths = (
{
closed = 1;
nodes = (
"69 -125 OFFCURVE",
"71 -70 OFFCURVE",
"71 17 CURVE SMOOTH",
"71 475 LINE SMOOTH",
"71 477 OFFCURVE",
"70 478 OFFCURVE",
"68 478 CURVE SMOOTH",
"58 478 LINE SMOOTH",
"56 478 OFFCURVE",
"55 477 OFFCURVE",
"55 475 CURVE SMOOTH",
"55 18 LINE SMOOTH",
"55 -74 OFFCURVE",
"48 -122 OFFCURVE",
"2 -168 CURVE SMOOTH",
"1 -169 OFFCURVE",
"1 -171 OFFCURVE",
"2 -172 CURVE SMOOTH",
"10 -181 LINE SMOOTH",
"11 -182 OFFCURVE",
"12 -182 OFFCURVE",
"13 -181 CURVE SMOOTH"
);
}
);
width = 126;
},
{
anchors = (
{
name = bottom;
position = "{73, 0}";
},
{
name = top;
position = "{73, 486}";
}
);
layerId = "061E0761-0390-47CB-9723-8373CF82D209";
paths = (
{
closed = 1;
nodes = (
"90 -144 OFFCURVE",
"104 -70 OFFCURVE",
"104 50 CURVE SMOOTH",
"104 477 LINE SMOOTH",
"104 483 OFFCURVE",
"102 486 OFFCURVE",
"97 486 CURVE SMOOTH",
"46 486 LINE SMOOTH",
"42 486 OFFCURVE",
"39 483 OFFCURVE",
"39 477 CURVE SMOOTH",
"39 56 LINE SMOOTH",
"39 -43 OFFCURVE",
"30 -100 OFFCURVE",
"-7 -133 CURVE SMOOTH",
"-11 -136 OFFCURVE",
"-11 -141 OFFCURVE",
"-7 -145 CURVE SMOOTH",
"22 -186 LINE SMOOTH",
"24 -190 OFFCURVE",
"29 -189 OFFCURVE",
"32 -188 CURVE SMOOTH"
);
}
);
width = 143;
}
);
leftKerningGroup = j;
rightKerningGroup = j;
unicode = 0237;
},
{
glyphname = k;
lastChange = "2022-10-25 01:43:39 +0000";
layers = (
{
anchors = (
{
name = bottom;
position = "{222, 0}";
},
{
name = top;
position = "{216, 497}";
}
);
layerId = "9DFF46AD-73DE-422E-A6A3-16745129C94E";
paths = (
{
closed = 1;
nodes = (
"172 0 LINE SMOOTH",
"179 0 OFFCURVE",
"184 6 OFFCURVE",
"184 14 CURVE SMOOTH",
"184 126 LINE",
"195 149 LINE",
"247 9 LINE SMOOTH",
"249 3 OFFCURVE",
"255 0 OFFCURVE",
"262 0 CURVE SMOOTH",
"416 0 LINE SMOOTH",
"425 0 OFFCURVE",
"428 7 OFFCURVE",
"423 17 CURVE SMOOTH",
"309 273 LINE",
"417 484 LINE SMOOTH",
"422 493 OFFCURVE",
"420 500 OFFCURVE",
"410 500 CURVE SMOOTH",
"264 500 LINE SMOOTH",
"257 500 OFFCURVE",
"253 498 OFFCURVE",
"250 492 CURVE SMOOTH",
"216 416 LINE SMOOTH",
"201 382 OFFCURVE",
"190 347 OFFCURVE",
"179 314 CURVE",
"176 314 LINE",
"181 360 OFFCURVE",
"184 437 OFFCURVE",
"184 482 CURVE SMOOTH",
"184 669 LINE SMOOTH",
"184 677 OFFCURVE",
"179 683 OFFCURVE",
"171 683 CURVE SMOOTH",
"36 683 LINE SMOOTH",
"29 683 OFFCURVE",
"24 677 OFFCURVE",
"24 669 CURVE SMOOTH",
"24 14 LINE SMOOTH",
"24 6 OFFCURVE",
"29 0 OFFCURVE",
"36 0 CURVE SMOOTH"
);
}
);
width = 429;
},
{
anchors = (
{
name = bottom;
position = "{155, 0}";
},
{
name = top;
position = "{150, 478}";
}
);
layerId = "7BE597F2-1213-4429-94A3-E96FC63EF83E";
paths = (
{
closed = 1;
nodes = (
"73 0 LINE SMOOTH",
"75 0 OFFCURVE",
"76 1 OFFCURVE",
"76 3 CURVE SMOOTH",
"76 166 LINE",
"140 273 LINE",
"257 2 LINE",
"258 0 OFFCURVE",
"258 0 OFFCURVE",
"259 0 CURVE SMOOTH",
"272 0 LINE SMOOTH",
"274 0 OFFCURVE",
"275 2 OFFCURVE",
"274 4 CURVE",
"150 291 LINE",
"258 474 LINE SMOOTH",
"259 476 OFFCURVE",
"258 478 OFFCURVE",
"256 478 CURVE SMOOTH",
"246 478 LINE SMOOTH",
"244 478 OFFCURVE",
"242 478 OFFCURVE",
"240 475 CURVE SMOOTH",
"133 292 LINE SMOOTH",
"114 261 OFFCURVE",
"95 227 OFFCURVE",
"77 195 CURVE",
"76 195 LINE",
"76 235 OFFCURVE",
"76 275 OFFCURVE",
"76 315 CURVE SMOOTH",
"76 680 LINE SMOOTH",
"76 682 OFFCURVE",
"75 683 OFFCURVE",
"73 683 CURVE SMOOTH",
"63 683 LINE SMOOTH",
"61 683 OFFCURVE",
"60 682 OFFCURVE",
"60 680 CURVE SMOOTH",
"60 3 LINE SMOOTH",
"60 1 OFFCURVE",
"61 0 OFFCURVE",
"63 0 CURVE SMOOTH"
);
}
);
width = 294;
},
{
anchors = (
{
name = bottom;
position = "{170, 0}";
},
{
name = top;
position = "{161, 486}";
}
);
layerId = "061E0761-0390-47CB-9723-8373CF82D209";
paths = (
{
closed = 1;
nodes = (
"105 0 LINE SMOOTH",
"108 0 OFFCURVE",
"111 3 OFFCURVE",
"111 9 CURVE SMOOTH",
"111 167 LINE",
"151 238 LINE",
"235 6 LINE",
"236 2 OFFCURVE",
"239 0 OFFCURVE",
"242 0 CURVE SMOOTH",
"300 0 LINE SMOOTH",
"305 0 OFFCURVE",
"307 4 OFFCURVE",
"305 11 CURVE",
"193 305 LINE",
"295 476 LINE",
"297 481 OFFCURVE",
"295 486 OFFCURVE",
"290 486 CURVE SMOOTH",
"231 486 LINE SMOOTH",
"227 486 OFFCURVE",
"225 485 OFFCURVE",
"223 482 CURVE SMOOTH",
"159 363 LINE SMOOTH",
"141 330 OFFCURVE",
"126 302 OFFCURVE",
"111 268 CURVE",
"110 268 LINE",
"111 306 OFFCURVE",
"111 334 OFFCURVE",
"111 372 CURVE SMOOTH",
"111 674 LINE SMOOTH",
"111 680 OFFCURVE",
"108 683 OFFCURVE",
"104 683 CURVE SMOOTH",
"53 683 LINE SMOOTH",
"49 683 OFFCURVE",
"46 680 OFFCURVE",
"46 674 CURVE SMOOTH",
"46 9 LINE SMOOTH",
"46 3 OFFCURVE",
"49 0 OFFCURVE",
"52 0 CURVE SMOOTH"
);
}
);
width = 313;
}
);
leftKerningGroup = h;
leftMetricsKey = h;
rightKerningGroup = k;
unicode = 006B;
},
{
glyphname = kgreenlandic;
lastChange = "2022-10-25 01:43:39 +0000";
layers = (
{
anchors = (
{
name = bottom;
position = "{212, 0}";
},
{
name = top;
position = "{212, 500}";
}
);
layerId = "9DFF46AD-73DE-422E-A6A3-16745129C94E";
paths = (
{
closed = 1;
nodes = (
"172 0 LINE SMOOTH",
"179 0 OFFCURVE",
"184 6 OFFCURVE",
"184 14 CURVE SMOOTH",
"184 126 LINE",
"195 149 LINE",
"247 9 LINE SMOOTH",
"249 3 OFFCURVE",
"255 0 OFFCURVE",
"262 0 CURVE SMOOTH",
"416 0 LINE SMOOTH",
"425 0 OFFCURVE",
"428 7 OFFCURVE",
"423 17 CURVE SMOOTH",
"309 273 LINE",
"417 484 LINE SMOOTH",
"422 493 OFFCURVE",
"420 500 OFFCURVE",
"410 500 CURVE SMOOTH",
"264 500 LINE SMOOTH",
"257 500 OFFCURVE",
"253 498 OFFCURVE",
"250 492 CURVE SMOOTH",
"216 416 LINE SMOOTH",
"201 382 OFFCURVE",
"190 347 OFFCURVE",
"179 314 CURVE",
"176 314 LINE",
"181 360 OFFCURVE",
"184 437 OFFCURVE",
"184 475 CURVE SMOOTH",
"184 486 LINE SMOOTH",
"184 494 OFFCURVE",
"179 500 OFFCURVE",
"171 500 CURVE SMOOTH",
"36 500 LINE SMOOTH",
"29 500 OFFCURVE",
"24 494 OFFCURVE",
"24 486 CURVE SMOOTH",
"24 14 LINE SMOOTH",
"24 6 OFFCURVE",
"29 0 OFFCURVE",
"36 0 CURVE SMOOTH"
);
}
);
width = 429;
},
{
anchors = (
{
name = bottom;
position = "{149, 0}";
},
{
name = top;
position = "{149, 478}";
}
);
layerId = "7BE597F2-1213-4429-94A3-E96FC63EF83E";
paths = (
{
closed = 1;
nodes = (
"73 0 LINE SMOOTH",
"75 0 OFFCURVE",
"76 1 OFFCURVE",
"76 3 CURVE SMOOTH",
"76 166 LINE",
"140 273 LINE",
"257 2 LINE",
"258 0 OFFCURVE",
"258 0 OFFCURVE",
"259 0 CURVE SMOOTH",
"272 0 LINE SMOOTH",
"274 0 OFFCURVE",
"275 2 OFFCURVE",
"274 4 CURVE",
"150 291 LINE",
"258 474 LINE SMOOTH",
"259 476 OFFCURVE",
"258 478 OFFCURVE",
"256 478 CURVE SMOOTH",
"246 478 LINE SMOOTH",
"244 478 OFFCURVE",
"242 478 OFFCURVE",
"240 475 CURVE SMOOTH",
"133 292 LINE SMOOTH",
"114 261 OFFCURVE",
"96 229 OFFCURVE",
"77 195 CURVE",
"76 195 LINE",
"76 235 OFFCURVE",
"76 275 OFFCURVE",
"76 315 CURVE SMOOTH",
"76 475 LINE SMOOTH",
"76 477 OFFCURVE",
"75 478 OFFCURVE",
"73 478 CURVE SMOOTH",
"63 478 LINE SMOOTH",
"61 478 OFFCURVE",
"60 477 OFFCURVE",
"60 475 CURVE SMOOTH",
"60 3 LINE SMOOTH",
"60 1 OFFCURVE",
"61 0 OFFCURVE",
"63 0 CURVE SMOOTH"
);
}
);
width = 294;
},
{
anchors = (
{
name = bottom;
position = "{163, 0}";
},
{
name = top;
position = "{161, 486}";
}
);
layerId = "061E0761-0390-47CB-9723-8373CF82D209";
paths = (
{
closed = 1;
nodes = (
"105 0 LINE SMOOTH",
"108 0 OFFCURVE",
"111 3 OFFCURVE",
"111 9 CURVE SMOOTH",
"111 167 LINE",
"152 239 LINE",
"235 6 LINE SMOOTH",
"236 2 OFFCURVE",
"239 0 OFFCURVE",
"242 0 CURVE SMOOTH",
"300 0 LINE SMOOTH",
"305 0 OFFCURVE",
"307 4 OFFCURVE",
"305 11 CURVE SMOOTH",
"193 305 LINE",
"295 476 LINE SMOOTH",
"297 481 OFFCURVE",
"295 486 OFFCURVE",
"290 486 CURVE SMOOTH",
"231 486 LINE SMOOTH",
"227 486 OFFCURVE",
"225 485 OFFCURVE",
"223 482 CURVE SMOOTH",
"159 363 LINE SMOOTH",
"141 330 OFFCURVE",
"126 296 OFFCURVE",
"111 262 CURVE",
"110 262 LINE",
"111 301 OFFCURVE",
"111 334 OFFCURVE",
"111 372 CURVE SMOOTH",
"111 477 LINE SMOOTH",
"111 483 OFFCURVE",
"108 486 OFFCURVE",
"104 486 CURVE SMOOTH",
"53 486 LINE SMOOTH",
"49 486 OFFCURVE",
"46 483 OFFCURVE",
"46 477 CURVE SMOOTH",
"46 9 LINE SMOOTH",
"46 3 OFFCURVE",
"49 0 OFFCURVE",
"52 0 CURVE SMOOTH"
);
}
);
width = 313;
}
);
leftKerningGroup = u;
leftMetricsKey = u;
rightKerningGroup = k;
rightMetricsKey = k;
unicode = 0138;
},
{
glyphname = l;
lastChange = "2022-10-25 01:43:39 +0000";
layers = (
{
anchors = (
{
name = bottom;
position = "{104, 0}";
},
{
name = center;
position = "{104, 250}";
},
{
name = top;
position = "{104, 683}";
},
{
name = topright;
position = "{188, 500}";
}
);
layerId = "9DFF46AD-73DE-422E-A6A3-16745129C94E";
paths = (
{
closed = 1;
nodes = (
"172 0 LINE SMOOTH",
"179 0 OFFCURVE",
"184 6 OFFCURVE",
"184 14 CURVE SMOOTH",
"184 669 LINE SMOOTH",
"184 677 OFFCURVE",
"179 683 OFFCURVE",
"172 683 CURVE SMOOTH",
"36 683 LINE SMOOTH",
"29 683 OFFCURVE",
"24 677 OFFCURVE",
"24 669 CURVE SMOOTH",
"24 14 LINE SMOOTH",
"24 6 OFFCURVE",
"29 0 OFFCURVE",
"36 0 CURVE SMOOTH"
);
}
);
width = 208;
},
{
anchors = (
{
name = bottom;
position = "{68, 0}";
},
{
name = center;
position = "{68, 239}";
},
{
name = top;
position = "{68, 683}";
},
{
name = topright;
position = "{116, 478}";
}
);
layerId = "7BE597F2-1213-4429-94A3-E96FC63EF83E";
paths = (
{
closed = 1;
nodes = (
"73 0 LINE SMOOTH",
"75 0 OFFCURVE",
"76 1 OFFCURVE",
"76 3 CURVE SMOOTH",
"76 680 LINE SMOOTH",
"76 682 OFFCURVE",
"75 683 OFFCURVE",
"73 683 CURVE SMOOTH",
"63 683 LINE SMOOTH",
"61 683 OFFCURVE",
"60 682 OFFCURVE",
"60 680 CURVE SMOOTH",
"60 3 LINE SMOOTH",
"60 1 OFFCURVE",
"61 0 OFFCURVE",
"63 0 CURVE SMOOTH"
);
}
);
width = 136;
},
{
anchors = (
{
name = bottom;
position = "{79, 0}";
},
{
name = center;
position = "{79, 243}";
},
{
name = top;
position = "{79, 683}";
},
{
name = topright;
position = "{137, 486}";
}
);
layerId = "061E0761-0390-47CB-9723-8373CF82D209";
paths = (
{
closed = 1;
nodes = (
"104 0 LINE SMOOTH",
"108 0 OFFCURVE",
"111 3 OFFCURVE",
"111 9 CURVE SMOOTH",
"111 674 LINE SMOOTH",
"111 680 OFFCURVE",
"108 683 OFFCURVE",
"104 683 CURVE SMOOTH",
"53 683 LINE SMOOTH",
"49 683 OFFCURVE",
"46 680 OFFCURVE",
"46 674 CURVE SMOOTH",
"46 9 LINE SMOOTH",
"46 3 OFFCURVE",
"49 0 OFFCURVE",
"53 0 CURVE SMOOTH"
);
}
);
width = 157;
}
);
leftKerningGroup = h;
leftMetricsKey = h;
rightKerningGroup = l;
rightMetricsKey = "=|h";
unicode = 006C;
},
{
glyphname = lslash;
lastChange = "2022-10-25 01:43:39 +0000";
layers = (
{
components = (
{
name = l;
}
);
layerId = "9DFF46AD-73DE-422E-A6A3-16745129C94E";
paths = (
{
closed = 1;
nodes = (
"24 324 LINE",
"205 402 LINE SMOOTH",
"212 405 OFFCURVE",
"213 407 OFFCURVE",
"213 415 CURVE SMOOTH",
"213 505 LINE SMOOTH",
"213 510 OFFCURVE",
"210 513 OFFCURVE",
"204 510 CURVE SMOOTH",
"3 423 LINE SMOOTH",
"-4 420 OFFCURVE",
"-5 418 OFFCURVE",
"-5 410 CURVE SMOOTH",
"-5 320 LINE SMOOTH",
"-5 315 OFFCURVE",
"-2 312 OFFCURVE",
"4 315 CURVE SMOOTH"
);
}
);
width = 208;
},
{
components = (
{
name = l;
}
);
layerId = "7BE597F2-1213-4429-94A3-E96FC63EF83E";
paths = (
{
closed = 1;
nodes = (
"60 409 LINE",
"126 457 LINE SMOOTH",
"128 459 OFFCURVE",
"128 459 OFFCURVE",
"128 461 CURVE SMOOTH",
"128 473 LINE SMOOTH",
"128 476 OFFCURVE",
"126 476 OFFCURVE",
"125 475 CURVE SMOOTH",
"10 390 LINE SMOOTH",
"8 389 OFFCURVE",
"8 388 OFFCURVE",
"8 386 CURVE SMOOTH",
"8 374 LINE SMOOTH",
"8 372 OFFCURVE",
"10 372 OFFCURVE",
"11 373 CURVE SMOOTH"
);
}
);
width = 136;
},
{
components = (
{
alignment = -1;
name = l;
}
);
layerId = "061E0761-0390-47CB-9723-8373CF82D209";
paths = (
{
closed = 1;
nodes = (
"46 370 LINE",
"150 447 LINE SMOOTH",
"154 450 OFFCURVE",
"155 452 OFFCURVE",
"155 456 CURVE SMOOTH",
"155 506 LINE SMOOTH",
"155 512 OFFCURVE",
"151 513 OFFCURVE",
"147 511 CURVE SMOOTH",
"7 407 LINE SMOOTH",
"4 405 OFFCURVE",
"2 402 OFFCURVE",
"2 398 CURVE SMOOTH",
"2 346 LINE SMOOTH",
"2 340 OFFCURVE",
"7 340 OFFCURVE",
"9 343 CURVE SMOOTH"
);
}
);
width = 157;
}
);
leftKerningGroup = lslash;
rightKerningGroup = lslash;
unicode = 0142;
},
{
glyphname = m;
lastChange = "2022-10-25 01:43:39 +0000";
layers = (
{
anchors = (
{
name = bottom;
position = "{294, 0}";
},
{
name = top;
position = "{294, 500}";
}
);
layerId = "9DFF46AD-73DE-422E-A6A3-16745129C94E";
paths = (
{
closed = 1;
nodes = (
"171 0 LINE SMOOTH",
"179 0 OFFCURVE",
"184 6 OFFCURVE",
"184 14 CURVE SMOOTH",
"184 359 LINE",
"191 365 OFFCURVE",
"200 369 OFFCURVE",
"208 369 CURVE SMOOTH",
"218 369 OFFCURVE",
"222 363 OFFCURVE",
"222 349 CURVE SMOOTH",
"222 14 LINE SMOOTH",
"222 6 OFFCURVE",
"227 0 OFFCURVE",
"234 0 CURVE SMOOTH",
"370 0 LINE SMOOTH",
"377 0 OFFCURVE",
"382 6 OFFCURVE",
"382 14 CURVE SMOOTH",
"382 359 LINE",
"389 365 OFFCURVE",
"398 369 OFFCURVE",
"406 369 CURVE SMOOTH",
"416 369 OFFCURVE",
"420 363 OFFCURVE",
"420 349 CURVE SMOOTH",
"420 14 LINE SMOOTH",
"420 6 OFFCURVE",
"425 0 OFFCURVE",
"432 0 CURVE SMOOTH",
"568 0 LINE SMOOTH",
"575 0 OFFCURVE",
"580 6 OFFCURVE",
"580 14 CURVE SMOOTH",
"580 371 LINE SMOOTH",
"580 465 OFFCURVE",
"552 506 OFFCURVE",
"484 506 CURVE SMOOTH",
"439 506 OFFCURVE",
"401 480 OFFCURVE",
"372 447 CURVE",
"358 489 OFFCURVE",
"331 506 OFFCURVE",
"289 506 CURVE SMOOTH",
"233 506 OFFCURVE",
"197 474 OFFCURVE",
"164 434 CURVE",
"163 453 OFFCURVE",
"160 477 OFFCURVE",
"159 489 CURVE SMOOTH",
"158 498 OFFCURVE",
"153 500 OFFCURVE",
"147 500 CURVE SMOOTH",
"32 500 LINE SMOOTH",
"24 500 OFFCURVE",
"20 495 OFFCURVE",
"21 485 CURVE SMOOTH",
"24 452 OFFCURVE",
"24 410 OFFCURVE",
"24 368 CURVE SMOOTH",
"24 14 LINE SMOOTH",
"24 6 OFFCURVE",
"29 0 OFFCURVE",
"36 0 CURVE SMOOTH"
);
}
);
width = 604;
},
{
anchors = (
{
name = bottom;
position = "{256, 0}";
},
{
name = top;
position = "{256, 478}";
}
);
layerId = "7BE597F2-1213-4429-94A3-E96FC63EF83E";
paths = (
{
closed = 1;
nodes = (
"73 0 LINE SMOOTH",
"75 0 OFFCURVE",
"76 1 OFFCURVE",
"76 3 CURVE SMOOTH",
"76 381 LINE",
"127 445 OFFCURVE",
"158 468 OFFCURVE",
"192 468 CURVE SMOOTH",
"232 468 OFFCURVE",
"249 432 OFFCURVE",
"249 378 CURVE SMOOTH",
"249 3 LINE SMOOTH",
"249 1 OFFCURVE",
"250 0 OFFCURVE",
"252 0 CURVE SMOOTH",
"262 0 LINE SMOOTH",
"264 0 OFFCURVE",
"265 1 OFFCURVE",
"265 3 CURVE SMOOTH",
"265 381 LINE",
"316 445 OFFCURVE",
"347 468 OFFCURVE",
"381 468 CURVE SMOOTH",
"421 468 OFFCURVE",
"438 432 OFFCURVE",
"438 378 CURVE SMOOTH",
"438 3 LINE SMOOTH",
"438 1 OFFCURVE",
"439 0 OFFCURVE",
"441 0 CURVE SMOOTH",
"451 0 LINE SMOOTH",
"453 0 OFFCURVE",
"454 1 OFFCURVE",
"454 3 CURVE SMOOTH",
"454 382 LINE SMOOTH",
"454 447 OFFCURVE",
"431 484 OFFCURVE",
"383 484 CURVE SMOOTH",
"344 484 OFFCURVE",
"310 459 OFFCURVE",
"264 401 CURVE",
"260 454 OFFCURVE",
"237 484 OFFCURVE",
"194 484 CURVE SMOOTH",
"155 484 OFFCURVE",
"121 459 OFFCURVE",
"76 402 CURVE",
"75 422 OFFCURVE",
"74 450 OFFCURVE",
"72 475 CURVE",
"72 477 OFFCURVE",
"71 478 OFFCURVE",
"69 478 CURVE SMOOTH",
"60 478 LINE SMOOTH",
"58 478 OFFCURVE",
"57 477 OFFCURVE",
"57 475 CURVE",
"59 441 OFFCURVE",
"60 403 OFFCURVE",
"60 368 CURVE SMOOTH",
"60 3 LINE SMOOTH",
"60 1 OFFCURVE",
"61 0 OFFCURVE",
"63 0 CURVE SMOOTH"
);
}
);
width = 514;
},
{
anchors = (
{
name = bottom;
position = "{258, 0}";
},
{
name = top;
position = "{258, 486}";
}
);
layerId = "061E0761-0390-47CB-9723-8373CF82D209";
paths = (
{
closed = 1;
nodes = (
"104 0 LINE SMOOTH",
"108 0 OFFCURVE",
"111 3 OFFCURVE",
"111 9 CURVE SMOOTH",
"111 374 LINE",
"139 410 OFFCURVE",
"164 430 OFFCURVE",
"188 430 CURVE SMOOTH",
"213 430 OFFCURVE",
"225 413 OFFCURVE",
"225 374 CURVE SMOOTH",
"225 9 LINE SMOOTH",
"225 3 OFFCURVE",
"228 0 OFFCURVE",
"232 0 CURVE SMOOTH",
"283 0 LINE SMOOTH",
"287 0 OFFCURVE",
"290 3 OFFCURVE",
"290 9 CURVE SMOOTH",
"290 374 LINE",
"318 410 OFFCURVE",
"343 430 OFFCURVE",
"367 430 CURVE SMOOTH",
"392 430 OFFCURVE",
"404 413 OFFCURVE",
"404 374 CURVE SMOOTH",
"404 9 LINE SMOOTH",
"404 3 OFFCURVE",
"407 0 OFFCURVE",
"411 0 CURVE SMOOTH",
"462 0 LINE SMOOTH",
"466 0 OFFCURVE",
"469 3 OFFCURVE",
"469 9 CURVE SMOOTH",
"469 383 LINE SMOOTH",
"469 454 OFFCURVE",
"440 492 OFFCURVE",
"392 492 CURVE SMOOTH",
"351 492 OFFCURVE",
"318 468 OFFCURVE",
"285 428 CURVE",
"275 470 OFFCURVE",
"249 492 OFFCURVE",
"213 492 CURVE SMOOTH",
"171 492 OFFCURVE",
"139 468 OFFCURVE",
"105 427 CURVE",
"104 444 OFFCURVE",
"103 459 OFFCURVE",
"101 477 CURVE SMOOTH",
"100 484 OFFCURVE",
"98 486 OFFCURVE",
"95 486 CURVE SMOOTH",
"49 486 LINE SMOOTH",
"44 486 OFFCURVE",
"42 483 OFFCURVE",
"43 475 CURVE SMOOTH",
"45 456 OFFCURVE",
"46 422 OFFCURVE",
"46 366 CURVE SMOOTH",
"46 9 LINE SMOOTH",
"46 3 OFFCURVE",
"49 0 OFFCURVE",
"53 0 CURVE SMOOTH"
);
}
);
width = 515;
}
);
leftKerningGroup = n;
leftMetricsKey = n;
rightKerningGroup = n;
rightMetricsKey = n;
unicode = 006D;
},
{
glyphname = n;
lastChange = "2022-10-25 01:43:39 +0000";
layers = (
{
anchors = (
{
name = apo;
position = "{-36, 497}";
},
{
name = bottom;
position = "{208, 0}";
},
{
name = top;
position = "{208, 500}";
}
);
layerId = "9DFF46AD-73DE-422E-A6A3-16745129C94E";
paths = (
{
closed = 1;
nodes = (
"372 0 LINE SMOOTH",
"380 0 OFFCURVE",
"385 6 OFFCURVE",
"385 14 CURVE SMOOTH",
"385 372 LINE SMOOTH",
"385 466 OFFCURVE",
"357 506 OFFCURVE",
"292 506 CURVE SMOOTH",
"233 506 OFFCURVE",
"183 464 OFFCURVE",
"154 419 CURVE",
"181 357 LINE",
"188 364 OFFCURVE",
"198 369 OFFCURVE",
"207 369 CURVE SMOOTH",
"220 369 OFFCURVE",
"225 363 OFFCURVE",
"225 344 CURVE SMOOTH",
"225 14 LINE SMOOTH",
"225 6 OFFCURVE",
"230 0 OFFCURVE",
"238 0 CURVE SMOOTH"
);
},
{
closed = 1;
nodes = (
"171 0 LINE SMOOTH",
"179 0 OFFCURVE",
"184 6 OFFCURVE",
"184 14 CURVE SMOOTH",
"184 368 LINE",
"166 407 LINE",
"165 433 OFFCURVE",
"162 469 OFFCURVE",
"159 488 CURVE SMOOTH",
"157 498 OFFCURVE",
"153 500 OFFCURVE",
"147 500 CURVE SMOOTH",
"32 500 LINE SMOOTH",
"24 500 OFFCURVE",
"20 495 OFFCURVE",
"21 485 CURVE SMOOTH",
"24 452 OFFCURVE",
"24 410 OFFCURVE",
"24 368 CURVE SMOOTH",
"24 14 LINE SMOOTH",
"24 6 OFFCURVE",
"29 0 OFFCURVE",
"37 0 CURVE SMOOTH"
);
}
);
width = 409;
},
{
anchors = (
{
name = apo;
position = "{14, 488}";
},
{
name = bottom;
position = "{172, 0}";
},
{
name = top;
position = "{169, 478}";
}
);
layerId = "7BE597F2-1213-4429-94A3-E96FC63EF83E";
paths = (
{
closed = 1;
nodes = (
"280 0 LINE SMOOTH",
"282 0 OFFCURVE",
"283 1 OFFCURVE",
"283 3 CURVE SMOOTH",
"283 357 LINE SMOOTH",
"283 447 OFFCURVE",
"254 484 OFFCURVE",
"204 484 CURVE SMOOTH",
"155 484 OFFCURVE",
"113 446 OFFCURVE",
"72 397 CURVE",
"72 376 LINE",
"112 425 OFFCURVE",
"155 468 OFFCURVE",
"203 468 CURVE SMOOTH",
"246 468 OFFCURVE",
"267 432 OFFCURVE",
"267 354 CURVE SMOOTH",
"267 3 LINE SMOOTH",
"267 1 OFFCURVE",
"268 0 OFFCURVE",
"270 0 CURVE SMOOTH"
);
},
{
closed = 1;
nodes = (
"73 0 LINE SMOOTH",
"75 0 OFFCURVE",
"76 1 OFFCURVE",
"76 3 CURVE SMOOTH",
"76 382 LINE",
"76 383 LINE",
"76 403 OFFCURVE",
"74 450 OFFCURVE",
"72 475 CURVE SMOOTH",
"72 477 OFFCURVE",
"71 478 OFFCURVE",
"69 478 CURVE SMOOTH",
"60 478 LINE SMOOTH",
"58 478 OFFCURVE",
"57 477 OFFCURVE",
"57 475 CURVE SMOOTH",
"59 441 OFFCURVE",
"60 403 OFFCURVE",
"60 368 CURVE SMOOTH",
"60 3 LINE SMOOTH",
"60 1 OFFCURVE",
"61 0 OFFCURVE",
"63 0 CURVE SMOOTH"
);
}
);
width = 343;
},
{
anchors = (
{
name = apo;
position = "{46, 488}";
},
{
name = bottom;
position = "{174, 0}";
},
{
name = top;
position = "{176, 486}";
}
);
layerId = "061E0761-0390-47CB-9723-8373CF82D209";
paths = (
{
closed = 1;
nodes = (
"294 0 LINE SMOOTH",
"299 0 OFFCURVE",
"301 3 OFFCURVE",
"301 9 CURVE SMOOTH",
"301 370 LINE SMOOTH",
"301 453 OFFCURVE",
"273 492 OFFCURVE",
"218 492 CURVE SMOOTH",
"174 492 OFFCURVE",
"137 467 OFFCURVE",
"99 419 CURVE",
"104 365 LINE",
"137 408 OFFCURVE",
"167 430 OFFCURVE",
"194 430 CURVE SMOOTH",
"223 430 OFFCURVE",
"236 410 OFFCURVE",
"236 366 CURVE SMOOTH",
"236 9 LINE SMOOTH",
"236 3 OFFCURVE",
"239 0 OFFCURVE",
"243 0 CURVE SMOOTH"
);
},
{
closed = 1;
nodes = (
"104 0 LINE SMOOTH",
"108 0 OFFCURVE",
"111 3 OFFCURVE",
"111 9 CURVE SMOOTH",
"111 379 LINE",
"107 385 LINE",
"107 405 OFFCURVE",
"105 451 OFFCURVE",
"101 477 CURVE SMOOTH",
"100 484 OFFCURVE",
"98 486 OFFCURVE",
"92 486 CURVE SMOOTH",
"49 486 LINE SMOOTH",
"44 486 OFFCURVE",
"42 483 OFFCURVE",
"43 475 CURVE SMOOTH",
"45 456 OFFCURVE",
"46 422 OFFCURVE",
"46 366 CURVE SMOOTH",
"46 9 LINE SMOOTH",
"46 3 OFFCURVE",
"49 0 OFFCURVE",
"53 0 CURVE SMOOTH"
);
}
);
width = 347;
}
);
leftKerningGroup = n;
rightKerningGroup = n;
unicode = 006E;
},
{
glyphname = eng;
lastChange = "2022-10-25 01:43:39 +0000";
layers = (
{
layerId = "9DFF46AD-73DE-422E-A6A3-16745129C94E";
leftMetricsKey = "=n";
rightMetricsKey = "=n";
paths = (
{
closed = 1;
nodes = (
"364 -122 OFFCURVE",
"385 -55 OFFCURVE",
"385 87 CURVE SMOOTH",
"385 372 LINE SMOOTH",
"385 466 OFFCURVE",
"357 506 OFFCURVE",
"292 506 CURVE SMOOTH",
"240 506 OFFCURVE",
"195 473 OFFCURVE",
"164 434 CURVE",
"163 454 OFFCURVE",
"161 475 OFFCURVE",
"159 488 CURVE",
"157 498 OFFCURVE",
"153 500 OFFCURVE",
"147 500 CURVE SMOOTH",
"32 500 LINE SMOOTH",
"24 500 OFFCURVE",
"20 495 OFFCURVE",
"21 485 CURVE SMOOTH",
"24 452 OFFCURVE",
"24 410 OFFCURVE",
"24 368 CURVE SMOOTH",
"24 14 LINE SMOOTH",
"24 6 OFFCURVE",
"29 0 OFFCURVE",
"37 0 CURVE SMOOTH",
"171 0 LINE SMOOTH",
"179 0 OFFCURVE",
"184 6 OFFCURVE",
"184 14 CURVE SMOOTH",
"184 360 LINE",
"191 365 OFFCURVE",
"199 369 OFFCURVE",
"207 369 CURVE SMOOTH",
"220 369 OFFCURVE",
"225 363 OFFCURVE",
"225 344 CURVE SMOOTH",
"225 85 LINE SMOOTH",
"225 -3 OFFCURVE",
"217 -43 OFFCURVE",
"183 -77 CURVE SMOOTH",
"177 -83 OFFCURVE",
"179 -89 OFFCURVE",
"184 -95 CURVE SMOOTH",
"263 -184 LINE",
"267 -189 OFFCURVE",
"272 -191 OFFCURVE",
"276 -188 CURVE SMOOTH"
);
}
);
width = 409;
},
{
layerId = "7BE597F2-1213-4429-94A3-E96FC63EF83E";
paths = (
{
closed = 1;
nodes = (
"281 -112 OFFCURVE",
"283 -57 OFFCURVE",
"283 30 CURVE SMOOTH",
"283 357 LINE SMOOTH",
"283 447 OFFCURVE",
"254 484 OFFCURVE",
"204 484 CURVE SMOOTH",
"156 484 OFFCURVE",
"114 447 OFFCURVE",
"76 401 CURVE",
"75 424 OFFCURVE",
"73 460 OFFCURVE",
"72 475 CURVE",
"72 477 OFFCURVE",
"71 478 OFFCURVE",
"69 478 CURVE SMOOTH",
"60 478 LINE SMOOTH",
"58 478 OFFCURVE",
"57 477 OFFCURVE",
"57 475 CURVE",
"59 441 OFFCURVE",
"60 403 OFFCURVE",
"60 368 CURVE SMOOTH",
"60 3 LINE SMOOTH",
"60 1 OFFCURVE",
"61 0 OFFCURVE",
"63 0 CURVE SMOOTH",
"73 0 LINE SMOOTH",
"75 0 OFFCURVE",
"76 1 OFFCURVE",
"76 3 CURVE SMOOTH",
"76 381 LINE",
"115 428 OFFCURVE",
"157 468 OFFCURVE",
"203 468 CURVE SMOOTH",
"246 468 OFFCURVE",
"267 432 OFFCURVE",
"267 354 CURVE SMOOTH",
"267 31 LINE SMOOTH",
"267 -61 OFFCURVE",
"260 -109 OFFCURVE",
"214 -155 CURVE SMOOTH",
"213 -156 OFFCURVE",
"213 -158 OFFCURVE",
"214 -159 CURVE",
"222 -168 LINE",
"223 -169 OFFCURVE",
"224 -169 OFFCURVE",
"225 -168 CURVE SMOOTH"
);
}
);
width = 343;
},
{
layerId = "061E0761-0390-47CB-9723-8373CF82D209";
paths = (
{
closed = 1;
nodes = (
"288 -144 OFFCURVE",
"301 -68 OFFCURVE",
"301 52 CURVE SMOOTH",
"301 370 LINE SMOOTH",
"301 453 OFFCURVE",
"273 492 OFFCURVE",
"218 492 CURVE SMOOTH",
"177 492 OFFCURVE",
"141 469 OFFCURVE",
"105 428 CURVE",
"104 445 OFFCURVE",
"103 464 OFFCURVE",
"101 477 CURVE SMOOTH",
"100 484 OFFCURVE",
"98 486 OFFCURVE",
"92 486 CURVE SMOOTH",
"49 486 LINE SMOOTH",
"44 486 OFFCURVE",
"42 483 OFFCURVE",
"43 475 CURVE SMOOTH",
"45 456 OFFCURVE",
"46 422 OFFCURVE",
"46 366 CURVE SMOOTH",
"46 9 LINE SMOOTH",
"46 3 OFFCURVE",
"49 0 OFFCURVE",
"53 0 CURVE SMOOTH",
"104 0 LINE SMOOTH",
"108 0 OFFCURVE",
"111 3 OFFCURVE",
"111 9 CURVE SMOOTH",
"111 374 LINE",
"142 411 OFFCURVE",
"169 430 OFFCURVE",
"194 430 CURVE SMOOTH",
"223 430 OFFCURVE",
"236 410 OFFCURVE",
"236 366 CURVE SMOOTH",
"236 58 LINE SMOOTH",
"236 -41 OFFCURVE",
"228 -100 OFFCURVE",
"190 -131 CURVE SMOOTH",
"186 -134 OFFCURVE",
"186 -139 OFFCURVE",
"190 -143 CURVE",
"219 -184 LINE",
"221 -188 OFFCURVE",
"226 -187 OFFCURVE",
"229 -185 CURVE SMOOTH"
);
}
);
width = 347;
}
);
leftKerningGroup = n;
leftMetricsKey = n;
rightKerningGroup = n;
rightMetricsKey = n;
unicode = 014B;
},
{
glyphname = o;
lastChange = "2022-10-25 01:43:39 +0000";
layers = (
{
anchors = (
{
name = bottom;
position = "{203, 400}";
},
{
name = center;
position = "{203, -151}";
},
{
name = ogonek;
position = "{360, 10}";
},
{
name = top;
position = "{203, 500}";
},
{
name = topright;
position = "{385, 497}";
}
);
layerId = "9DFF46AD-73DE-422E-A6A3-16745129C94E";
paths = (
{
closed = 1;
nodes = (
"317 -6 OFFCURVE",
"385 59 OFFCURVE",
"385 172 CURVE SMOOTH",
"385 330 LINE SMOOTH",
"385 441 OFFCURVE",
"317 506 OFFCURVE",
"203 506 CURVE SMOOTH",
"89 506 OFFCURVE",
"21 441 OFFCURVE",
"21 330 CURVE SMOOTH",
"21 172 LINE SMOOTH",
"21 59 OFFCURVE",
"89 -6 OFFCURVE",
"203 -6 CURVE SMOOTH"
);
},
{
closed = 1;
nodes = (
"187 131 OFFCURVE",
"180 142 OFFCURVE",
"180 173 CURVE SMOOTH",
"180 328 LINE SMOOTH",
"180 358 OFFCURVE",
"187 369 OFFCURVE",
"203 369 CURVE SMOOTH",
"219 369 OFFCURVE",
"226 358 OFFCURVE",
"226 328 CURVE SMOOTH",
"226 173 LINE SMOOTH",
"226 142 OFFCURVE",
"219 131 OFFCURVE",
"203 131 CURVE SMOOTH"
);
}
);
width = 406;
},
{
anchors = (
{
name = bottom;
position = "{160, 0}";
},
{
name = center;
position = "{160, 239}";
},
{
name = ogonek;
position = "{287, 10}";
},
{
name = top;
position = "{160, 478}";
},
{
name = topright;
position = "{308, 478}";
}
);
guideLines = (
{
position = "{-58, -6}";
}
);
layerId = "7BE597F2-1213-4429-94A3-E96FC63EF83E";
paths = (
{
closed = 1;
nodes = (
"233.989 -6 OFFCURVE",
"273 41.987 OFFCURVE",
"273 133 CURVE SMOOTH",
"273 345 LINE SMOOTH",
"273 436.628 OFFCURVE",
"234.489 484 OFFCURVE",
"160 484 CURVE SMOOTH",
"86.104 484 OFFCURVE",
"47 435.898 OFFCURVE",
"47 345 CURVE SMOOTH",
"47 133 LINE SMOOTH",
"47 41.987 OFFCURVE",
"86.011 -6 OFFCURVE",
"160 -6 CURVE SMOOTH"
);
},
{
closed = 1;
nodes = (
"96.21 10 OFFCURVE",
"63 52.454 OFFCURVE",
"63 134 CURVE SMOOTH",
"63 344 LINE SMOOTH",
"63 425.546 OFFCURVE",
"96.21 468 OFFCURVE",
"160 468 CURVE SMOOTH",
"223.79 468 OFFCURVE",
"257 425.546 OFFCURVE",
"257 344 CURVE SMOOTH",
"257 134 LINE SMOOTH",
"257 52.454 OFFCURVE",
"223.79 10 OFFCURVE",
"160 10 CURVE SMOOTH"
);
}
);
width = 320;
},
{
anchors = (
{
name = bottom;
position = "{169, -17}";
},
{
name = center;
position = "{169, 261}";
},
{
name = ogonek;
position = "{298, 10}";
},
{
name = top;
position = "{169, 486}";
},
{
name = topright;
position = "{319, 486}";
}
);
layerId = "061E0761-0390-47CB-9723-8373CF82D209";
paths = (
{
closed = 1;
nodes = (
"258 -6 OFFCURVE",
"300 46 OFFCURVE",
"300 155 CURVE SMOOTH",
"300 330 LINE SMOOTH",
"300 440 OFFCURVE",
"258 492 OFFCURVE",
"169 492 CURVE SMOOTH",
"80 492 OFFCURVE",
"38 440 OFFCURVE",
"38 330 CURVE SMOOTH",
"38 155 LINE SMOOTH",
"38 46 OFFCURVE",
"80 -6 OFFCURVE",
"169 -6 CURVE SMOOTH"
);
},
{
closed = 1;
nodes = (
"123 57 OFFCURVE",
"103 85 OFFCURVE",
"103 156 CURVE SMOOTH",
"103 328 LINE SMOOTH",
"103 400 OFFCURVE",
"122 430 OFFCURVE",
"169 430 CURVE SMOOTH",
"216 430 OFFCURVE",
"235 400 OFFCURVE",
"235 328 CURVE SMOOTH",
"235 156 LINE SMOOTH",
"235 85 OFFCURVE",
"216 57 OFFCURVE",
"169 57 CURVE SMOOTH"
);
}
);
width = 338;
}
);
leftKerningGroup = o;
rightKerningGroup = o;
unicode = 006F;
},
{
glyphname = oslash;
lastChange = "2022-10-25 01:43:39 +0000";
layers = (
{
anchors = (
{
name = top;
position = "{206, 500}";
}
);
components = (
{
name = o;
}
);
layerId = "9DFF46AD-73DE-422E-A6A3-16745129C94E";
paths = (
{
closed = 1;
nodes = (
"129 -52 LINE SMOOTH",
"137 -52 OFFCURVE",
"141 -48 OFFCURVE",
"144 -40 CURVE SMOOTH",
"167 22 LINE",
"172 100 LINE",
"276 376 LINE",
"348 434 LINE",
"386 533 LINE SMOOTH",
"389 542 OFFCURVE",
"387 548 OFFCURVE",
"379 548 CURVE SMOOTH",
"280 548 LINE SMOOTH",
"274 548 OFFCURVE",
"271 546 OFFCURVE",
"268 539 CURVE SMOOTH",
"244 475 LINE",
"244 410 LINE",
"146 150 LINE",
"69 79 LINE",
"26 -36 LINE SMOOTH",
"23 -45 OFFCURVE",
"24 -52 OFFCURVE",
"32 -52 CURVE SMOOTH"
);
}
);
width = 406;
},
{
anchors = (
{
name = top;
position = "{155, 478}";
}
);
components = (
{
name = o;
}
);
layerId = "7BE597F2-1213-4429-94A3-E96FC63EF83E";
paths = (
{
closed = 1;
nodes = (
"33 -51 LINE SMOOTH",
"35 -51 OFFCURVE",
"35 -51 OFFCURVE",
"36 -49 CURVE SMOOTH",
"76 39 LINE",
"79 46 LINE",
"248 422 LINE",
"252 431 LINE",
"298 535 LINE SMOOTH",
"299 537 OFFCURVE",
"298 538 OFFCURVE",
"297 538 CURVE SMOOTH",
"286 538 LINE SMOOTH",
"284 538 OFFCURVE",
"284 538 OFFCURVE",
"283 536 CURVE SMOOTH",
"241 443 LINE",
"238 436 LINE",
"70 62 LINE",
"66 54 LINE",
"21 -48 LINE SMOOTH",
"20 -50 OFFCURVE",
"21 -51 OFFCURVE",
"23 -51 CURVE SMOOTH"
);
}
);
width = 320;
},
{
anchors = (
{
name = top;
position = "{168, 486}";
}
);
components = (
{
alignment = -1;
name = o;
}
);
layerId = "061E0761-0390-47CB-9723-8373CF82D209";
paths = (
{
closed = 1;
nodes = (
"67 -51 LINE SMOOTH",
"71 -51 OFFCURVE",
"73 -49 OFFCURVE",
"75 -46 CURVE",
"108 31 LINE",
"116 52 LINE",
"256 380 LINE",
"271 415 LINE",
"319 528 LINE",
"321 533 OFFCURVE",
"320 537 OFFCURVE",
"314 537 CURVE SMOOTH",
"270 537 LINE SMOOTH",
"267 537 OFFCURVE",
"264 536 OFFCURVE",
"262 533 CURVE",
"230 458 LINE",
"219 431 LINE",
"87 120 LINE",
"73 89 LINE",
"19 -41 LINE",
"16 -46 OFFCURVE",
"18 -51 OFFCURVE",
"23 -51 CURVE SMOOTH"
);
}
);
width = 338;
}
);
leftKerningGroup = o;
rightKerningGroup = o;
unicode = 00F8;
},
{
glyphname = oe;
lastChange = "2022-10-25 01:47:17 +0000";
layers = (
{
layerId = "9DFF46AD-73DE-422E-A6A3-16745129C94E";
paths = (
{
closed = 1;
nodes = (
"241 -6 OFFCURVE",
"273 5 OFFCURVE",
"301 28 CURVE",
"329 5 OFFCURVE",
"363 -6 OFFCURVE",
"415 -6 CURVE SMOOTH",
"532 -6 OFFCURVE",
"587 44 OFFCURVE",
"586 153 CURVE",
"586 162 OFFCURVE",
"582 166 OFFCURVE",
"573 166 CURVE SMOOTH",
"446 166 LINE SMOOTH",
"439 166 OFFCURVE",
"435 162 OFFCURVE",
"435 154 CURVE SMOOTH",
"435 124 OFFCURVE",
"428 113 OFFCURVE",
"409 113 CURVE SMOOTH",
"391 113 OFFCURVE",
"385 123 OFFCURVE",
"385 152 CURVE SMOOTH",
"385 212 LINE",
"580 212 LINE SMOOTH",
"589 212 OFFCURVE",
"594 218 OFFCURVE",
"594 227 CURVE SMOOTH",
"594 313 LINE SMOOTH",
"594 444 OFFCURVE",
"531 506 OFFCURVE",
"426 506 CURVE SMOOTH",
"371 506 OFFCURVE",
"332 490 OFFCURVE",
"306 469 CURVE",
"281 489 OFFCURVE",
"247 506 OFFCURVE",
"191 506 CURVE SMOOTH",
"89 506 OFFCURVE",
"21 441 OFFCURVE",
"21 330 CURVE SMOOTH",
"21 172 LINE SMOOTH",
"21 59 OFFCURVE",
"89 -6 OFFCURVE",
"195 -6 CURVE SMOOTH"
);
},
{
closed = 1;
nodes = (
"187 131 OFFCURVE",
"180 142 OFFCURVE",
"180 173 CURVE SMOOTH",
"180 328 LINE SMOOTH",
"180 358 OFFCURVE",
"187 369 OFFCURVE",
"203 369 CURVE SMOOTH",
"219 369 OFFCURVE",
"226 358 OFFCURVE",
"226 328 CURVE SMOOTH",
"226 173 LINE SMOOTH",
"226 142 OFFCURVE",
"219 131 OFFCURVE",
"203 131 CURVE SMOOTH"
);
},
{
closed = 1;
nodes = (
"385 351 LINE SMOOTH",
"385 376 OFFCURVE",
"393 387 OFFCURVE",
"411 387 CURVE SMOOTH",
"429 387 OFFCURVE",
"437 376 OFFCURVE",
"437 351 CURVE SMOOTH",
"437 300 LINE",
"385 300 LINE"
);
}
);
width = 615;
},
{
layerId = "7BE597F2-1213-4429-94A3-E96FC63EF83E";
paths = (
{
closed = 1;
nodes = (
"208 -6 OFFCURVE",
"242 21 OFFCURVE",
"257 75 CURVE",
"272 20 OFFCURVE",
"308 -6 OFFCURVE",
"362 -6 CURVE SMOOTH",
"429 -6 OFFCURVE",
"461 35 OFFCURVE",
"461 119 CURVE SMOOTH",
"461 121 OFFCURVE",
"460 122 OFFCURVE",
"459 122 CURVE SMOOTH",
"447 122 LINE SMOOTH",
"446 122 OFFCURVE",
"445 121 OFFCURVE",
"445 119 CURVE SMOOTH",
"445 47 OFFCURVE",
"421 10 OFFCURVE",
"362 10 CURVE SMOOTH",
"297 10 OFFCURVE",
"265 55 OFFCURVE",
"265 141 CURVE SMOOTH",
"265 248 LINE",
"463 248 LINE SMOOTH",
"466 248 OFFCURVE",
"467 249 OFFCURVE",
"467 252 CURVE SMOOTH",
"467 342 LINE SMOOTH",
"467 437 OFFCURVE",
"424 484 OFFCURVE",
"358 484 CURVE SMOOTH",
"309 484 OFFCURVE",
"272 459 OFFCURVE",
"257 403 CURVE",
"245 458 OFFCURVE",
"208 484 OFFCURVE",
"156 484 CURVE SMOOTH",
"86 484 OFFCURVE",
"47 436 OFFCURVE",
"47 345 CURVE SMOOTH",
"47 133 LINE SMOOTH",
"47 42 OFFCURVE",
"86 -6 OFFCURVE",
"156 -6 CURVE SMOOTH"
);
},
{
closed = 1;
nodes = (
"96 10 OFFCURVE",
"63 52 OFFCURVE",
"63 134 CURVE SMOOTH",
"63 344 LINE SMOOTH",
"63 426 OFFCURVE",
"96 468 OFFCURVE",
"156 468 CURVE SMOOTH",
"216 468 OFFCURVE",
"249 426 OFFCURVE",
"249 344 CURVE SMOOTH",
"249 134 LINE SMOOTH",
"249 52 OFFCURVE",
"216 10 OFFCURVE",
"156 10 CURVE SMOOTH"
);
},
{
closed = 1;
nodes = (
"265 341 LINE SMOOTH",
"265 424 OFFCURVE",
"300 468 OFFCURVE",
"358 468 CURVE SMOOTH",
"416 468 OFFCURVE",
"451 422 OFFCURVE",
"451 341 CURVE SMOOTH",
"451 264 LINE",
"265 264 LINE"
);
}
);
width = 512;
},
{
layerId = "061E0761-0390-47CB-9723-8373CF82D209";
paths = (
{
closed = 1;
nodes = (
"216 -6 OFFCURVE",
"245 14 OFFCURVE",
"268 50 CURVE",
"289 13 OFFCURVE",
"318 -6 OFFCURVE",
"365 -6 CURVE SMOOTH",
"442 -6 OFFCURVE",
"484 41 OFFCURVE",
"483 125 CURVE",
"483 129 OFFCURVE",
"480 133 OFFCURVE",
"476 133 CURVE SMOOTH",
"427 133 LINE SMOOTH",
"423 133 OFFCURVE",
"420 128 OFFCURVE",
"421 123 CURVE",
"423 79 OFFCURVE",
"405 57 OFFCURVE",
"365 57 CURVE SMOOTH",
"319 57 OFFCURVE",
"299 89 OFFCURVE",
"299 167 CURVE SMOOTH",
"299 228 LINE",
"481 228 LINE SMOOTH",
"485 228 OFFCURVE",
"488 231 OFFCURVE",
"488 236 CURVE SMOOTH",
"488 335 LINE SMOOTH",
"488 439 OFFCURVE",
"443 492 OFFCURVE",
"361 492 CURVE SMOOTH",
"321 492 OFFCURVE",
"290 474 OFFCURVE",
"266 438 CURVE",
"243 474 OFFCURVE",
"213 492 OFFCURVE",
"168 492 CURVE SMOOTH",
"80 492 OFFCURVE",
"38 440 OFFCURVE",
"38 330 CURVE SMOOTH",
"38 155 LINE SMOOTH",
"38 46 OFFCURVE",
"80 -6 OFFCURVE",
"168 -6 CURVE SMOOTH"
);
},
{
closed = 1;
nodes = (
"123 57 OFFCURVE",
"103 85 OFFCURVE",
"103 156 CURVE SMOOTH",
"103 328 LINE SMOOTH",
"103 400 OFFCURVE",
"122 430 OFFCURVE",
"168 430 CURVE SMOOTH",
"215 430 OFFCURVE",
"234 400 OFFCURVE",
"234 328 CURVE SMOOTH",
"234 156 LINE SMOOTH",
"234 85 OFFCURVE",
"214 57 OFFCURVE",
"168 57 CURVE SMOOTH"
);
},
{
closed = 1;
nodes = (
"299 334 LINE SMOOTH",
"299 401 OFFCURVE",
"317 430 OFFCURVE",
"361 430 CURVE SMOOTH",
"405 430 OFFCURVE",
"423 402 OFFCURVE",
"423 334 CURVE SMOOTH",
"423 289 LINE",
"299 289 LINE"
);
}
);
width = 523;
}
);
leftKerningGroup = o;
leftMetricsKey = o;
rightKerningGroup = e;
rightMetricsKey = e;
unicode = 0153;
},
